<?xml version="1.0" encoding="utf-8"?>
<svg width="1957" height="2500" viewBox="0 0 256 327" preserveAspectRatio="xMinYMin meet" xmlns="http://www.w3.org/2000/svg">
  <path d="M69.298.005c-1.653.051-3.433.662-5.453 2.255C58.9.353 54.102-.31 49.813 3.573c-6.623-.859-8.775.914-10.406 2.984-1.454-.03-10.879-1.495-15.202 4.953C13.343 10.225 9.91 17.899 13.8 25.056c-2.219 3.434-4.518 6.827.67 13.375-1.835 3.646-.697 7.602 3.626 12.389-1.14 5.127 1.102 8.743 5.125 11.562-.753 7.015 6.433 11.094 8.578 12.547.824 4.087 2.541 7.945 10.748 10.077 1.354 6.092 6.286 7.144 11.063 8.422-15.787 9.177-29.325 21.25-29.233 50.875l-2.313 4.125c-18.102 11.008-34.388 46.39-8.92 75.148 1.663 9.002 4.453 15.468 6.937 22.624 3.715 28.836 27.962 42.339 34.358 43.936 9.371 7.138 19.352 13.911 32.86 18.656 12.731 13.131 26.525 18.136 40.394 18.128.204 0 28.277-4.996 41.01-18.128 13.506-4.745 23.487-11.518 32.86-18.656 6.394-1.597 30.641-15.1 34.356-43.936 2.484-7.156 5.274-13.622 6.938-22.624 25.466-28.761 9.181-64.144-8.92-75.152l-2.317-4.125c.092-29.622-13.446-41.696-29.233-50.875 4.776-1.278 9.71-2.33 11.062-8.422 8.207-2.133 9.925-5.99 10.748-10.077 2.146-1.453 9.331-5.532 8.58-12.547 4.021-2.819 6.264-6.436 5.123-11.562 4.324-4.787 5.461-8.743 3.626-12.39 5.19-6.544 2.887-9.937.671-13.371 3.888-7.157.457-14.832-10.409-13.546-4.32-6.448-13.744-4.984-15.202-4.954-1.63-2.069-3.782-3.842-10.405-2.983-4.289-3.883-9.085-3.221-14.032-1.313-5.874-4.635-9.76-.92-14.2.485-7.112-2.324-8.739.859-12.233 2.156-7.756-1.639-10.113 1.929-13.83 5.695l-4.326-.086c-11.698 6.894-17.51 20.932-19.57 28.149-2.06-7.218-7.859-21.256-19.555-28.149l-4.325.086c-3.723-3.766-6.079-7.334-13.835-5.695C86.78 3.603 85.16.42 78.042 2.744c-2.914-.922-5.594-2.838-8.749-2.74L-11 141"/>
  <path d="M46.008 30.334c31.036 16.001 49.079 28.945 58.964 39.969-5.062 20.289-31.47 21.215-41.126 20.646 1.977-.92 3.627-2.023 4.212-3.716-2.423-1.722-11.014-.182-17.012-3.551 2.304-.478 3.382-.943 4.459-2.643-5.666-1.807-11.77-3.365-15.36-6.359 1.937.024 3.746.434 6.276-1.321-5.075-2.735-10.491-4.903-14.699-9.084 2.624-.064 5.453-.026 6.276-.991-4.645-2.878-8.565-6.078-11.809-9.579 3.672.443 5.223.062 6.111-.578-3.512-3.597-7.956-6.634-10.075-11.066 2.726.94 5.221 1.3 7.019-.082-1.193-2.692-6.305-4.28-9.249-10.571 2.871.279 5.915.626 6.524 0-1.332-5.428-3.618-8.48-5.86-11.642 6.143-.091 15.451.024 15.03-.495L31.89 15.39c6.001-1.616 12.141.259 16.599 1.651 2.001-1.579-.036-3.576-2.478-5.615 5.1.681 9.708 1.853 13.874 3.468 2.225-2.009-1.445-4.019-3.221-6.028 7.879 1.494 11.217 3.595 14.534 5.698 2.407-2.307.138-4.268-1.486-6.276 5.941 2.2 9.001 5.041 12.222 7.845 1.092-1.474 2.775-2.555.743-6.111 4.218 2.431 7.395 5.296 9.745 8.506 2.61-1.662 1.555-3.934 1.569-6.029 4.384 3.566 7.166 7.361 10.571 11.066.686-.5 1.286-2.193 1.817-4.872 10.457 10.145 25.234 35.7 3.798 45.832-18.243-15.046-40.031-25.983-64.176-34.187l.007-.004M210.686 30.334c-31.032 16.003-49.075 28.943-58.959 39.969 5.062 20.289 31.469 21.215 41.125 20.646-1.977-.92-3.627-2.023-4.211-3.716 2.423-1.722 11.014-.182 17.011-3.551-2.304-.478-3.381-.943-4.459-2.643 5.667-1.807 11.771-3.365 15.36-6.359-1.937.024-3.746.434-6.276-1.321 5.076-2.735 10.492-4.903 14.7-9.084-2.625-.064-5.454-.026-6.276-.991 4.645-2.878 8.565-6.078 11.809-9.579-3.673.443-5.223.062-6.111-.578 3.511-3.597 7.956-6.634 10.075-11.066-2.727.94-5.222 1.3-7.02-.082 1.193-2.692 6.306-4.28 9.249-10.571-2.87.279-5.915.626-6.524 0 1.335-5.43 3.621-8.482 5.863-11.644-6.143-.091-15.451.024-15.03-.495l3.799-3.882c-6.001-1.615-12.141.26-16.599 1.652-2.001-1.579.035-3.576 2.477-5.615-5.099.68-9.708 1.853-13.873 3.468-2.226-2.009 1.445-4.019 3.221-6.028-7.879 1.494-11.217 3.595-14.535 5.698-2.407-2.307-.137-4.268 1.487-6.276-5.941 2.2-9.001 5.041-12.222 7.845-1.093-1.474-2.775-2.555-.744-6.111-4.217 2.431-7.394 5.296-9.744 8.506-2.61-1.662-1.555-3.935-1.569-6.029-4.384 3.566-7.166 7.36-10.571 11.066-.686-.5-1.286-2.193-1.817-4.873-10.457 10.146-25.234 35.701-3.798 45.833 18.233-15.05 40.02-25.985 64.166-34.189h-.004" fill="#75A928"/>
  <path d="M 107.24 139.002 C 122.644 149.095 125.421 171.971 113.442 190.097 C 101.463 208.224 79.265 214.738 63.861 204.646 C 48.457 194.553 45.681 171.677 57.659 153.551 C 69.638 135.424 91.836 128.91 107.24 139.002 M 148.816 137.175 C 133.413 147.267 130.636 170.144 142.614 188.27 C 154.593 206.397 176.791 212.911 192.195 202.818 C 207.599 192.726 210.376 169.85 198.397 151.723 C 186.419 133.597 164.221 127.083 148.816 137.175 M 30.252 155.502 C 46.883 151.044 35.867 224.305 22.335 218.294 C 7.45 206.322 2.656 171.261 30.252 155.502 M 222.447 154.589 C 205.814 150.132 216.832 223.396 230.364 217.385 C 245.249 205.412 250.043 170.347 222.447 154.589 M 165.94 100.032 C 194.641 95.186 218.523 112.238 217.559 143.36 C 216.615 155.292 155.366 101.809 165.94 100.032 M 86.64 99.119 C 57.937 94.272 34.057 111.328 35.021 142.448 C 35.965 154.379 97.215 100.896 86.64 99.119 M 127.868 91.861 C 110.738 91.415 94.298 104.574 94.258 112.207 C 94.211 121.481 107.802 130.977 127.985 131.218 C 148.595 131.365 161.747 123.617 161.813 114.046 C 161.889 103.202 143.068 91.693 127.868 91.86 L 127.868 91.861" style="fill: rgb(255, 0, 0);"/>
  <path d="M 165.941 236.937 C 166.049 255.87 149.492 271.299 128.961 271.398 C 108.429 271.498 91.697 256.231 91.589 237.298 C 91.588 237.178 91.588 237.057 91.589 236.937 C 91.481 218.005 108.037 202.576 128.569 202.476 C 149.101 202.376 165.832 217.643 165.941 236.576 L 165.941 236.937 M 128.928 282.047 C 143.863 281.395 163.903 286.857 163.943 294.104 C 164.191 301.14 145.768 317.038 127.938 316.731 C 109.472 317.528 91.365 301.605 91.602 296.086 C 91.325 287.994 114.086 281.676 128.928 282.047 M 73.764 239.102 C 84.397 251.912 89.245 274.418 80.371 281.053 C 71.976 286.118 51.589 284.032 37.099 263.215 C 27.326 245.747 28.585 227.972 35.447 222.75 C 45.708 216.5 61.562 224.943 73.765 239.102 L 73.764 239.102 M 181.964 235.041 C 170.459 248.516 164.053 273.094 172.445 281.01 C 180.47 287.16 202.012 286.3 217.924 264.221 C 229.478 249.392 225.607 224.627 219.007 218.051 C 209.203 210.468 195.128 220.173 181.964 235.037 L 181.964 235.041" style="fill: rgb(255, 255, 255);"/>
  <ellipse style="stroke: rgb(0, 0, 0); fill: rgb(255, 255, 255); paint-order: fill; stroke-width: 8px;" cx="128.211" cy="206.92" rx="30" ry="30"/>
  <ellipse style="stroke: rgb(0, 0, 0); fill: rgb(255, 255, 255); paint-order: fill; stroke-width: 3px;" cx="128.178" cy="206.621" rx="18.967" ry="18.967"/>
</svg>