solid v10
facet normal 0.991444861373673 -0.13052619222109602 0.0
  outer loop
    vertex 63.99175114513994 444.7078307072816 19.500000000000284
    vertex 63.86088104400987 443.7137735983982 21.50000000000037
    vertex 63.86088104400987 443.7137735983982 19.500000000000284
  endloop
endfacet
facet normal 0.991444861373673 -0.13052619222109602 0.0
  outer loop
    vertex 63.86088104400987 443.7137735983982 21.50000000000037
    vertex 63.99175114513994 444.7078307072816 19.500000000000284
    vertex 63.99175114513994 444.7078307072816 21.50000000000037
  endloop
endfacet
facet normal 0.7933533402900951 -0.6087614290102064 0.0
  outer loop
    vertex 80.72782384972449 455.50765916414207 17.500000000000377
    vertex 80.60863488277582 455.35232907825247 19.500000000000284
    vertex 80.60863488277582 455.35232907825247 17.500000000000377
  endloop
endfacet
facet normal 0.7933533402900951 -0.6087614290102064 0.0
  outer loop
    vertex 80.60863488277582 455.35232907825247 19.500000000000284
    vertex 80.72782384972449 455.50765916414207 17.500000000000377
    vertex 80.72782384972449 455.50765916414207 19.500000000000284
  endloop
endfacet
facet normal 0.9914448613741964 0.1305261922171201 0.0
  outer loop
    vertex 80.80274916660277 456.0767734479697 17.500000000000377
    vertex 80.82830479688539 455.8826591641427 19.500000000000284
    vertex 80.82830479688539 455.8826591641427 17.500000000000377
  endloop
endfacet
facet normal 0.9914448613741964 0.1305261922171201 0.0
  outer loop
    vertex 80.82830479688539 455.8826591641427 19.500000000000284
    vertex 80.80274916660277 456.0767734479697 17.500000000000377
    vertex 80.80274916660277 456.0767734479697 19.500000000000284
  endloop
endfacet
facet normal -0.9238795325109812 0.38268343236582764 0.0
  outer loop
    vertex 88.80876648057405 449.743811789684 19.500000000000284
    vertex 88.73384116369576 449.56292607351173 17.500000000000377
    vertex 88.73384116369576 449.56292607351173 19.500000000000284
  endloop
endfacet
facet normal -0.9238795325109812 0.38268343236582764 0.0
  outer loop
    vertex 88.73384116369576 449.56292607351173 17.500000000000377
    vertex 88.80876648057405 449.743811789684 19.500000000000284
    vertex 88.80876648057405 449.743811789684 17.500000000000377
  endloop
endfacet
facet normal 0.13052619221989453 -0.991444861373831 0.0
  outer loop
    vertex 75.51770803200075 454.5144462181835 21.50000000000037
    vertex 73.53769269115743 454.25377225330044 19.500000000000284
    vertex 75.51770803200075 454.5144462181835 19.500000000000284
  endloop
endfacet
facet normal 0.13052619221989453 -0.991444861373831 0.0
  outer loop
    vertex 73.53769269115743 454.25377225330044 19.500000000000284
    vertex 75.51770803200075 454.5144462181835 21.50000000000037
    vertex 73.53769269115743 454.25377225330044 21.50000000000037
  endloop
endfacet
facet normal 0.6087614290084098 -0.7933533402914736 -8.518241533231269e-19
  outer loop
    vertex 67.09064099534295 453.71377359839795 -2.9999999999996394
    vertex 65.64275318923352 452.6027702092054 19.500000000000284
    vertex 65.64275318923349 452.6027702092054 -2.9999999999998197
  endloop
endfacet
facet normal 0.6087614290084098 -0.7933533402914736 -8.518241533231269e-19
  outer loop
    vertex 65.64275318923352 452.6027702092054 19.500000000000284
    vertex 67.09064099534295 453.71377359839795 -2.9999999999996394
    vertex 67.090640995343 453.71377359839795 19.500000000000284
  endloop
endfacet
facet normal 0.0 0.0 -1.0
  outer loop
    vertex 61.47409110606362 445.38243568156935 19.500000000000284
    vertex 63.86088104400987 443.7137735983982 19.500000000000284
    vertex 61.25440757518433 443.7137735983982 19.500000000000284
  endloop
endfacet
facet normal 0.0 0.0 -1.0
  outer loop
    vertex 63.86088104400987 443.7137735983982 19.500000000000284
    vertex 61.47409110606362 445.38243568156935 19.500000000000284
    vertex 63.083134610658746 449.2670103328107 19.500000000000284
  endloop
endfacet
facet normal 0.0 0.0 -1.0
  outer loop
    vertex 63.86088104400987 443.7137735983982 19.500000000000284
    vertex 63.083134610658746 449.2670103328107 19.500000000000284
    vertex 64.53174980004242 451.1548824030975 19.500000000000284
  endloop
endfacet
facet normal 0.0 0.0 -1.0
  outer loop
    vertex 63.86088104400987 443.7137735983982 19.500000000000284
    vertex 64.53174980004242 451.1548824030975 19.500000000000284
    vertex 63.99175114513994 444.7078307072816 19.500000000000284
  endloop
endfacet
facet normal 0.0 0.0 -1.0
  outer loop
    vertex 63.99175114513994 444.7078307072816 19.500000000000284
    vertex 64.53174980004242 451.1548824030975 19.500000000000284
    vertex 64.53174980004242 446.0115027836102 19.500000000000284
  endloop
endfacet
facet normal 0.0 0.0 -1.0
  outer loop
    vertex 64.53174980004242 446.0115027836102 19.500000000000284
    vertex 64.53174980004242 451.1548824030975 19.500000000000284
    vertex 65.64275318923352 452.6027702092054 19.500000000000284
  endloop
endfacet
facet normal 0.0 0.0 -1.0
  outer loop
    vertex 64.53174980004242 446.0115027836102 19.500000000000284
    vertex 65.64275318923352 452.6027702092054 19.500000000000284
    vertex 65.34040684895196 447.96377359839795 19.500000000000284
  endloop
endfacet
facet normal 0.0 0.0 -1.0
  outer loop
    vertex 65.34040684895196 447.96377359839795 19.500000000000284
    vertex 65.64275318923352 452.6027702092054 19.500000000000284
    vertex 67.48580825402352 450.75971514441693 19.500000000000284
  endloop
endfacet
facet normal 0.0 0.0 -1.0
  outer loop
    vertex 67.48580825402352 450.75971514441693 19.500000000000284
    vertex 65.64275318923352 452.6027702092054 19.500000000000284
    vertex 67.090640995343 453.71377359839795 19.500000000000284
  endloop
endfacet
facet normal 0.0 0.0 -1.0
  outer loop
    vertex 67.48580825402352 450.75971514441693 19.500000000000284
    vertex 67.090640995343 453.71377359839795 19.500000000000284
    vertex 68.97851306562833 455.16238878778165 19.500000000000284
  endloop
endfacet
facet normal 0.0 0.0 -1.0
  outer loop
    vertex 67.48580825402352 450.75971514441693 19.500000000000284
    vertex 68.97851306562833 455.16238878778165 19.500000000000284
    vertex 70.28174980004255 452.9051165494884 19.500000000000284
  endloop
endfacet
facet normal 0.0 0.0 -1.0
  outer loop
    vertex 70.28174980004255 452.9051165494884 19.500000000000284
    vertex 68.97851306562833 455.16238878778165 19.500000000000284
    vertex 71.75729175092498 456.31339660606307 19.500000000000284
  endloop
endfacet
facet normal 0.0 0.0 -1.0
  outer loop
    vertex 70.28174980004255 452.9051165494884 19.500000000000284
    vertex 71.75729175092498 456.31339660606307 19.500000000000284
    vertex 72.23402061482888 453.71377359839795 19.500000000000284
  endloop
endfacet
facet normal 0.0 0.0 -1.0
  outer loop
    vertex 72.23402061482888 453.71377359839795 19.500000000000284
    vertex 71.75729175092498 456.31339660606307 19.500000000000284
    vertex 72.23401886009178 456.51086344023065 19.500000000000284
  endloop
endfacet
facet normal 0.0 0.0 -1.0
  outer loop
    vertex 72.23402061482888 453.71377359839795 19.500000000000284
    vertex 72.23401886009178 456.51086344023065 19.500000000000284
    vertex 72.73401886009167 456.7179702214183 19.500000000000284
  endloop
endfacet
facet normal 0.0 0.0 -1.0
  outer loop
    vertex 72.23402061482888 453.71377359839795 19.500000000000284
    vertex 72.73401886009167 456.7179702214183 19.500000000000284
    vertex 72.88585665299388 453.9837729258499 19.500000000000284
  endloop
endfacet
facet normal -0.13052619222017792 0.991444861373794 0.0
  outer loop
    vertex 72.69653079457497 457.39303118873977 21.50000000000037
    vertex 77.03174980004246 457.96377359839846 19.500000000000284
    vertex 72.69653079457497 457.39303118873977 19.500000000000284
  endloop
endfacet
facet normal -0.13052619222017792 0.991444861373794 0.0
  outer loop
    vertex 77.03174980004246 457.96377359839846 19.500000000000284
    vertex 72.69653079457497 457.39303118873977 21.50000000000037
    vertex 77.03174980004246 457.96377359839846 21.50000000000037
  endloop
endfacet
facet normal -0.9914448613741964 0.1305261922171201 0.0
  outer loop
    vertex 88.73384116369576 449.56292607351173 19.500000000000284
    vertex 88.70828553341313 449.3688117896848 17.500000000000377
    vertex 88.70828553341313 449.3688117896848 19.500000000000284
  endloop
endfacet
facet normal -0.9914448613741964 0.1305261922171201 0.0
  outer loop
    vertex 88.70828553341313 449.3688117896848 17.500000000000377
    vertex 88.73384116369576 449.56292607351173 19.500000000000284
    vertex 88.73384116369576 449.56292607351173 17.500000000000377
  endloop
endfacet
facet normal -0.38268343236479585 -0.9238795325114085 0.0
  outer loop
    vertex 83.78174980004236 452.9051165494884 21.50000000000037
    vertex 81.8294789852546 453.71377359839795 19.500000000000284
    vertex 83.78174980004236 452.9051165494884 19.500000000000284
  endloop
endfacet
facet normal -0.38268343236479585 -0.9238795325114085 0.0
  outer loop
    vertex 81.8294789852546 453.71377359839795 19.500000000000284
    vertex 83.78174980004236 452.9051165494884 21.50000000000037
    vertex 81.8294789852546 453.71377359839795 21.50000000000037
  endloop
endfacet
facet normal 0.38268343236322044 -0.9238795325120611 0.0
  outer loop
    vertex 80.4533047968862 455.2331401113038 19.500000000000284
    vertex 80.27241908071251 455.15821479442553 17.500000000000377
    vertex 80.4533047968862 455.2331401113038 17.500000000000377
  endloop
endfacet
facet normal 0.38268343236322044 -0.9238795325120611 0.0
  outer loop
    vertex 80.27241908071251 455.15821479442553 17.500000000000377
    vertex 80.4533047968862 455.2331401113038 19.500000000000284
    vertex 80.27241908071251 455.15821479442553 19.500000000000284
  endloop
endfacet
facet normal -0.991444861373673 -0.13052619222109602 0.0
  outer loop
    vertex 90.07174845494353 444.7078307072816 21.50000000000037
    vertex 90.2026185560736 443.7137735983982 19.500000000000284
    vertex 90.2026185560736 443.7137735983982 21.50000000000037
  endloop
endfacet
facet normal -0.991444861373673 -0.13052619222109602 0.0
  outer loop
    vertex 90.2026185560736 443.7137735983982 19.500000000000284
    vertex 90.07174845494353 444.7078307072816 21.50000000000037
    vertex 90.07174845494353 444.7078307072816 19.500000000000284
  endloop
endfacet
facet normal 0.6087614290086414 -0.793353340291296 0.0
  outer loop
    vertex 70.28174980004255 452.9051165494884 21.50000000000037
    vertex 67.48580825402352 450.75971514441693 19.500000000000284
    vertex 70.28174980004255 452.9051165494884 19.500000000000284
  endloop
endfacet
facet normal 0.6087614290086414 -0.793353340291296 0.0
  outer loop
    vertex 67.48580825402352 450.75971514441693 19.500000000000284
    vertex 70.28174980004255 452.9051165494884 21.50000000000037
    vertex 67.48580825402352 450.75971514441693 21.50000000000037
  endloop
endfacet
facet normal 0.6087614290043241 0.7933533402946087 0.0
  outer loop
    vertex 89.83328553341217 450.0183308425223 19.500000000000284
    vertex 89.98861561930323 449.89914187557434 17.500000000000377
    vertex 89.83328553341217 450.0183308425223 17.500000000000377
  endloop
endfacet
facet normal 0.6087614290043241 0.7933533402946087 0.0
  outer loop
    vertex 89.98861561930323 449.89914187557434 17.500000000000377
    vertex 89.83328553341217 450.0183308425223 19.500000000000284
    vertex 89.98861561930323 449.89914187557434 19.500000000000284
  endloop
endfacet
facet normal 0.7933533402911693 0.6087614290088064 0.0
  outer loop
    vertex 88.87578838491679 453.05781218327223 19.500000000000284
    vertex 91.53767531343159 449.5887735983983 21.50000000000037
    vertex 91.53767531343159 449.5887735983983 19.500000000000284
  endloop
endfacet
facet normal 0.7933533402911693 0.6087614290088064 0.0
  outer loop
    vertex 91.53767531343159 449.5887735983983 21.50000000000037
    vertex 88.87578838491679 453.05781218327223 19.500000000000284
    vertex 88.87578838491679 453.05781218327223 21.50000000000037
  endloop
endfacet
facet normal 0.9914448613737789 -0.13052619222029216 0.0
  outer loop
    vertex 61.47409110606359 445.38243568156935 -2.9999999999998197
    vertex 61.25440757518433 443.7137735983982 19.500000000000284
    vertex 61.2544075751843 443.7137735983982 -2.9999999999998197
  endloop
endfacet
facet normal 0.9914448613737789 -0.13052619222029216 0.0
  outer loop
    vertex 61.25440757518433 443.7137735983982 19.500000000000284
    vertex 61.47409110606359 445.38243568156935 -2.9999999999998197
    vertex 61.47409110606362 445.38243568156935 19.500000000000284
  endloop
endfacet
facet normal -0.1305261922171201 -0.9914448613741964 0.0
  outer loop
    vertex 89.45828553341296 448.61881178968497 19.500000000000284
    vertex 89.26417124958603 448.6443674199676 17.500000000000377
    vertex 89.45828553341296 448.61881178968497 17.500000000000377
  endloop
endfacet
facet normal -0.1305261922171201 -0.9914448613741964 0.0
  outer loop
    vertex 89.26417124958603 448.6443674199676 17.500000000000377
    vertex 89.45828553341296 448.61881178968497 19.500000000000284
    vertex 89.26417124958603 448.6443674199676 19.500000000000284
  endloop
endfacet
facet normal 1.0 0.0 0.0
  outer loop
    vertex 71.75729175092495 457.00398563855026 -2.9999999999998197
    vertex 71.75729175092498 456.31339660606307 19.500000000000284
    vertex 71.75729175092495 456.31339660606307 -2.9999999999998197
  endloop
endfacet
facet normal 1.0 0.0 0.0
  outer loop
    vertex 71.75729175092498 456.31339660606307 19.500000000000284
    vertex 71.75729175092495 457.00398563855026 -2.9999999999998197
    vertex 71.75729175092498 457.00398563855026 19.500000000000284
  endloop
endfacet
facet normal 0.9238795325115211 0.38268343236452407 0.0
  outer loop
    vertex 80.72782384972449 456.25765916414264 17.500000000000377
    vertex 80.80274916660277 456.0767734479697 19.500000000000284
    vertex 80.80274916660277 456.0767734479697 17.500000000000377
  endloop
endfacet
facet normal 0.9238795325115211 0.38268343236452407 0.0
  outer loop
    vertex 80.80274916660277 456.0767734479697 19.500000000000284
    vertex 80.72782384972449 456.25765916414264 17.500000000000377
    vertex 80.72782384972449 456.25765916414264 19.500000000000284
  endloop
endfacet
facet normal -0.9238795325120611 -0.38268343236322044 0.0
  outer loop
    vertex 88.73384116369576 449.17469750585786 19.500000000000284
    vertex 88.80876648057405 448.9938117896842 17.500000000000377
    vertex 88.80876648057405 448.9938117896842 19.500000000000284
  endloop
endfacet
facet normal -0.9238795325120611 -0.38268343236322044 0.0
  outer loop
    vertex 88.80876648057405 448.9938117896842 17.500000000000377
    vertex 88.73384116369576 449.17469750585786 19.500000000000284
    vertex 88.73384116369576 449.17469750585786 17.500000000000377
  endloop
endfacet
facet normal -0.9914448613732422 0.13052619222436884 0.0
  outer loop
    vertex 79.35386042716979 456.0767734479697 19.500000000000284
    vertex 79.32830479688573 455.8826591641427 17.500000000000377
    vertex 79.32830479688573 455.8826591641427 19.500000000000284
  endloop
endfacet
facet normal -0.9914448613732422 0.13052619222436884 0.0
  outer loop
    vertex 79.32830479688573 455.8826591641427 17.500000000000377
    vertex 79.35386042716979 456.0767734479697 19.500000000000284
    vertex 79.35386042716979 456.0767734479697 17.500000000000377
  endloop
endfacet
facet normal -0.9914448613741964 -0.1305261922171201 0.0
  outer loop
    vertex 79.32830479688573 455.8826591641427 19.500000000000284
    vertex 79.35386042716836 455.68854488031576 17.500000000000377
    vertex 79.35386042716836 455.68854488031576 19.500000000000284
  endloop
endfacet
facet normal -0.9914448613741964 -0.1305261922171201 0.0
  outer loop
    vertex 79.35386042716836 455.68854488031576 17.500000000000377
    vertex 79.32830479688573 455.8826591641427 19.500000000000284
    vertex 79.32830479688573 455.8826591641427 17.500000000000377
  endloop
endfacet
facet normal -0.38268343236897484 -0.9238795325096775 0.0
  outer loop
    vertex 79.88419051305861 455.15821479442553 19.500000000000284
    vertex 79.70330479688637 455.2331401113045 17.500000000000377
    vertex 79.88419051305861 455.15821479442553 17.500000000000377
  endloop
endfacet
facet normal -0.38268343236897484 -0.9238795325096775 0.0
  outer loop
    vertex 79.70330479688637 455.2331401113045 17.500000000000377
    vertex 79.88419051305861 455.15821479442553 19.500000000000284
    vertex 79.70330479688637 455.2331401113045 19.500000000000284
  endloop
endfacet
facet normal 0.9238795325109812 0.38268343236582764 0.0
  outer loop
    vertex 90.10780458625045 449.743811789684 17.500000000000377
    vertex 90.18272990312873 449.56292607351173 19.500000000000284
    vertex 90.18272990312873 449.56292607351173 17.500000000000377
  endloop
endfacet
facet normal 0.9238795325109812 0.38268343236582764 0.0
  outer loop
    vertex 90.18272990312873 449.56292607351173 19.500000000000284
    vertex 90.10780458625045 449.743811789684 17.500000000000377
    vertex 90.10780458625045 449.743811789684 19.500000000000284
  endloop
endfacet
facet normal 0.0 -1.0 0.0
  outer loop
    vertex 93.45261855607286 443.7137735983982 21.50000000000037
    vertex 92.80909202489914 443.7137735983982 19.500000000000284
    vertex 93.45261855607286 443.7137735983982 19.500000000000284
  endloop
endfacet
facet normal 0.0 -1.0 0.0
  outer loop
    vertex 92.80909202489914 443.7137735983982 19.500000000000284
    vertex 93.45261855607286 443.7137735983982 21.50000000000037
    vertex 92.80909202489914 443.7137735983982 21.50000000000037
  endloop
endfacet
facet normal -0.38268343236520125 0.9238795325112407 1.0209910291481907e-14
  outer loop
    vertex 68.65674980004219 455.71969911178707 21.50000000000037
    vertex 71.75729175092495 457.00398563855026 -2.9999999999998197
    vertex 68.65674980004216 455.71969911178707 -2.9999999999998197
  endloop
endfacet
facet normal -0.38268343236520125 0.9238795325112407 1.0209910291481907e-14
  outer loop
    vertex 71.75729175092495 457.00398563855026 -2.9999999999998197
    vertex 68.65674980004219 455.71969911178707 21.50000000000037
    vertex 71.75729175092498 457.00398563855026 19.500000000000284
  endloop
endfacet
facet normal -0.38268343236520125 0.9238795325112407 1.0209910291481907e-14
  outer loop
    vertex 71.75729175092498 457.00398563855026 19.500000000000284
    vertex 68.65674980004219 455.71969911178707 21.50000000000037
    vertex 72.23401886009178 457.20145247271824 19.500000000000284
  endloop
endfacet
facet normal -0.38268343236520125 0.9238795325112407 1.0209910291481907e-14
  outer loop
    vertex 72.23401886009178 457.20145247271824 19.500000000000284
    vertex 68.65674980004219 455.71969911178707 21.50000000000037
    vertex 72.69653079457497 457.39303118873977 19.500000000000284
  endloop
endfacet
facet normal -0.38268343236520125 0.9238795325112407 1.0209910291481907e-14
  outer loop
    vertex 72.69653079457497 457.39303118873977 19.500000000000284
    vertex 68.65674980004219 455.71969911178707 21.50000000000037
    vertex 72.69653079457497 457.39303118873977 21.50000000000037
  endloop
endfacet
facet normal 0.9238795325120611 -0.38268343236322044 0.0
  outer loop
    vertex 90.18272990312873 449.17469750585786 17.500000000000377
    vertex 90.10780458625045 448.9938117896842 19.500000000000284
    vertex 90.10780458625045 448.9938117896842 17.500000000000377
  endloop
endfacet
facet normal 0.9238795325120611 -0.38268343236322044 0.0
  outer loop
    vertex 90.10780458625045 448.9938117896842 19.500000000000284
    vertex 90.18272990312873 449.17469750585786 17.500000000000377
    vertex 90.18272990312873 449.17469750585786 19.500000000000284
  endloop
endfacet
facet normal -0.9238795325113924 0.3826834323648348 0.0
  outer loop
    vertex 62.525824286651876 449.5887735983983 21.50000000000037
    vertex 60.85249220970061 445.5489926038655 -2.9999999999998197
    vertex 60.85249220970064 445.5489926038655 21.50000000000037
  endloop
endfacet
facet normal -0.9238795325113924 0.3826834323648348 0.0
  outer loop
    vertex 60.85249220970061 445.5489926038655 -2.9999999999998197
    vertex 62.525824286651876 449.5887735983983 21.50000000000037
    vertex 62.52582428665184 449.5887735983983 -2.9999999999998197
  endloop
endfacet
facet normal -0.3826834323663676 0.9238795325107574 0.0
  outer loop
    vertex 89.08328553341234 450.0183308425223 19.500000000000284
    vertex 89.26417124958603 450.0932561594013 17.500000000000377
    vertex 89.08328553341234 450.0183308425223 17.500000000000377
  endloop
endfacet
facet normal -0.3826834323663676 0.9238795325107574 0.0
  outer loop
    vertex 89.26417124958603 450.0932561594013 17.500000000000377
    vertex 89.08328553341234 450.0183308425223 19.500000000000284
    vertex 89.26417124958603 450.0932561594013 19.500000000000284
  endloop
endfacet
facet normal -0.6087614290078857 0.7933533402918759 0.0
  outer loop
    vertex 88.9279554475227 449.89914187557434 19.500000000000284
    vertex 89.08328553341234 450.0183308425223 17.500000000000377
    vertex 88.9279554475227 449.89914187557434 17.500000000000377
  endloop
endfacet
facet normal -0.6087614290078857 0.7933533402918759 0.0
  outer loop
    vertex 89.08328553341234 450.0183308425223 17.500000000000377
    vertex 88.9279554475227 449.89914187557434 19.500000000000284
    vertex 89.08328553341234 450.0183308425223 19.500000000000284
  endloop
endfacet
facet normal 0.6087614290066449 -0.7933533402928281 0.0
  outer loop
    vertex 89.98861561930323 448.8384817037945 19.500000000000284
    vertex 89.83328553341217 448.7192927368459 17.500000000000377
    vertex 89.98861561930323 448.8384817037945 17.500000000000377
  endloop
endfacet
facet normal 0.6087614290066449 -0.7933533402928281 0.0
  outer loop
    vertex 89.83328553341217 448.7192927368459 17.500000000000377
    vertex 89.98861561930323 448.8384817037945 19.500000000000284
    vertex 89.83328553341217 448.7192927368459 19.500000000000284
  endloop
endfacet
facet normal -0.793353340291296 -0.6087614290086414 0.0
  outer loop
    vertex 86.57769134605995 450.75971514441693 21.50000000000037
    vertex 88.72309275113152 447.96377359839795 19.500000000000284
    vertex 88.72309275113152 447.96377359839795 21.50000000000037
  endloop
endfacet
facet normal -0.793353340291296 -0.6087614290086414 0.0
  outer loop
    vertex 88.72309275113152 447.96377359839795 19.500000000000284
    vertex 86.57769134605995 450.75971514441693 21.50000000000037
    vertex 86.57769134605995 450.75971514441693 19.500000000000284
  endloop
endfacet
facet normal -0.9238795325089139 -0.38268343237081853 0.0
  outer loop
    vertex 79.35386042716836 455.68854488031576 19.500000000000284
    vertex 79.42878574404808 455.5076591641428 17.500000000000377
    vertex 79.42878574404808 455.5076591641428 19.500000000000284
  endloop
endfacet
facet normal -0.9238795325089139 -0.38268343237081853 0.0
  outer loop
    vertex 79.42878574404808 455.5076591641428 17.500000000000377
    vertex 79.35386042716836 455.68854488031576 19.500000000000284
    vertex 79.35386042716836 455.68854488031576 17.500000000000377
  endloop
endfacet
facet normal 0.38268343236459923 -0.9238795325114901 0.0
  outer loop
    vertex 71.75729175092498 456.31339660606307 19.500000000000284
    vertex 68.9785130656283 455.16238878778165 -2.9999999999998197
    vertex 71.75729175092495 456.31339660606307 -2.9999999999998197
  endloop
endfacet
facet normal 0.38268343236459923 -0.9238795325114901 0.0
  outer loop
    vertex 68.9785130656283 455.16238878778165 -2.9999999999998197
    vertex 71.75729175092498 456.31339660606307 19.500000000000284
    vertex 68.97851306562833 455.16238878778165 19.500000000000284
  endloop
endfacet
facet normal 0.7933533402950231 0.6087614290037842 0.0
  outer loop
    vertex 89.98861561930323 449.89914187557434 17.500000000000377
    vertex 90.10780458625045 449.743811789684 19.500000000000284
    vertex 90.10780458625045 449.743811789684 17.500000000000377
  endloop
endfacet
facet normal 0.7933533402950231 0.6087614290037842 0.0
  outer loop
    vertex 90.10780458625045 449.743811789684 19.500000000000284
    vertex 89.98861561930323 449.89914187557434 17.500000000000377
    vertex 89.98861561930323 449.89914187557434 19.500000000000284
  endloop
endfacet
facet normal 0.9238795325112757 0.3826834323651166 0.0
  outer loop
    vertex 91.53767531343159 449.5887735983983 19.500000000000284
    vertex 93.21100739038428 445.5489926038655 21.50000000000037
    vertex 93.21100739038428 445.5489926038655 19.500000000000284
  endloop
endfacet
facet normal 0.9238795325112757 0.3826834323651166 0.0
  outer loop
    vertex 93.21100739038428 445.5489926038655 21.50000000000037
    vertex 91.53767531343159 449.5887735983983 19.500000000000284
    vertex 91.53767531343159 449.5887735983983 21.50000000000037
  endloop
endfacet
facet normal 0.3826834323651166 0.9238795325112757 0.0
  outer loop
    vertex 81.3669688055085 457.39303118873977 21.50000000000037
    vertex 85.40674980004128 455.71969911178707 19.500000000000284
    vertex 81.3669688055085 457.39303118873977 19.500000000000284
  endloop
endfacet
facet normal 0.3826834323651166 0.9238795325112757 0.0
  outer loop
    vertex 85.40674980004128 455.71969911178707 19.500000000000284
    vertex 81.3669688055085 457.39303118873977 21.50000000000037
    vertex 85.40674980004128 455.71969911178707 21.50000000000037
  endloop
endfacet
facet normal 0.9914448613732422 -0.13052619222436884 0.0
  outer loop
    vertex 90.20828553341279 449.3688117896848 17.500000000000377
    vertex 90.18272990312873 449.17469750585786 19.500000000000284
    vertex 90.18272990312873 449.17469750585786 17.500000000000377
  endloop
endfacet
facet normal 0.9914448613732422 -0.13052619222436884 0.0
  outer loop
    vertex 90.18272990312873 449.17469750585786 19.500000000000284
    vertex 90.20828553341279 449.3688117896848 17.500000000000377
    vertex 90.20828553341279 449.3688117896848 19.500000000000284
  endloop
endfacet
facet normal 0.7933533402914615 0.6087614290084256 0.0
  outer loop
    vertex 80.60863488277582 456.412989250033 17.500000000000377
    vertex 80.72782384972449 456.25765916414264 19.500000000000284
    vertex 80.72782384972449 456.25765916414264 17.500000000000377
  endloop
endfacet
facet normal 0.7933533402914615 0.6087614290084256 0.0
  outer loop
    vertex 80.72782384972449 456.25765916414264 19.500000000000284
    vertex 80.60863488277582 456.412989250033 17.500000000000377
    vertex 80.60863488277582 456.412989250033 19.500000000000284
  endloop
endfacet
facet normal -0.7933533402950232 -0.608761429003784 0.0
  outer loop
    vertex 79.42878574404808 455.5076591641428 19.500000000000284
    vertex 79.54797471099529 455.35232907825247 17.500000000000377
    vertex 79.54797471099529 455.35232907825247 19.500000000000284
  endloop
endfacet
facet normal -0.7933533402950232 -0.608761429003784 0.0
  outer loop
    vertex 79.54797471099529 455.35232907825247 17.500000000000377
    vertex 79.42878574404808 455.5076591641428 19.500000000000284
    vertex 79.42878574404808 455.5076591641428 17.500000000000377
  endloop
endfacet
facet normal 0.0 -1.0 0.0
  outer loop
    vertex 61.25440757518433 443.7137735983982 19.500000000000284
    vertex 60.610881044010576 443.7137735983982 -2.9999999999998197
    vertex 61.2544075751843 443.7137735983982 -2.9999999999998197
  endloop
endfacet
facet normal 0.0 -1.0 0.0
  outer loop
    vertex 60.610881044010576 443.7137735983982 -2.9999999999998197
    vertex 61.25440757518433 443.7137735983982 19.500000000000284
    vertex 60.61088104401061 443.7137735983982 21.50000000000037
  endloop
endfacet
facet normal 0.0 -1.0 0.0
  outer loop
    vertex 60.61088104401061 443.7137735983982 21.50000000000037
    vertex 61.25440757518433 443.7137735983982 19.500000000000284
    vertex 61.25440757518433 443.7137735983982 21.50000000000037
  endloop
endfacet
facet normal -0.1305261922171201 -0.9914448613741964 0.0
  outer loop
    vertex 80.07830479688556 455.13265916414286 19.500000000000284
    vertex 79.88419051305861 455.15821479442553 17.500000000000377
    vertex 80.07830479688556 455.13265916414286 17.500000000000377
  endloop
endfacet
facet normal -0.1305261922171201 -0.9914448613741964 0.0
  outer loop
    vertex 79.88419051305861 455.15821479442553 17.500000000000377
    vertex 80.07830479688556 455.13265916414286 19.500000000000284
    vertex 79.88419051305861 455.15821479442553 19.500000000000284
  endloop
endfacet
facet normal -0.9914448613741964 -0.1305261922171201 0.0
  outer loop
    vertex 88.70828553341313 449.3688117896848 19.500000000000284
    vertex 88.73384116369576 449.17469750585786 17.500000000000377
    vertex 88.73384116369576 449.17469750585786 19.500000000000284
  endloop
endfacet
facet normal -0.9914448613741964 -0.1305261922171201 0.0
  outer loop
    vertex 88.73384116369576 449.17469750585786 17.500000000000377
    vertex 88.70828553341313 449.3688117896848 19.500000000000284
    vertex 88.70828553341313 449.3688117896848 17.500000000000377
  endloop
endfacet
facet normal 0.9914448613732422 0.13052619222436884 0.0
  outer loop
    vertex 90.18272990312873 449.56292607351173 17.500000000000377
    vertex 90.20828553341279 449.3688117896848 19.500000000000284
    vertex 90.20828553341279 449.3688117896848 17.500000000000377
  endloop
endfacet
facet normal 0.9914448613732422 0.13052619222436884 0.0
  outer loop
    vertex 90.20828553341279 449.3688117896848 19.500000000000284
    vertex 90.18272990312873 449.56292607351173 17.500000000000377
    vertex 90.18272990312873 449.56292607351173 19.500000000000284
  endloop
endfacet
facet normal -0.1305261922171201 0.9914448613741964 0.0
  outer loop
    vertex 79.88419051305861 456.6071035338599 19.500000000000284
    vertex 80.07830479688556 456.6326591641425 17.500000000000377
    vertex 79.88419051305861 456.6071035338599 17.500000000000377
  endloop
endfacet
facet normal -0.1305261922171201 0.9914448613741964 0.0
  outer loop
    vertex 80.07830479688556 456.6326591641425 17.500000000000377
    vertex 79.88419051305861 456.6071035338599 19.500000000000284
    vertex 80.07830479688556 456.6326591641425 19.500000000000284
  endloop
endfacet
facet normal 0.0 0.0 -1.0
  outer loop
    vertex 88.73384116369576 449.56292607351173 17.500000000000377
    vertex 88.73384116369576 449.17469750585786 17.500000000000377
    vertex 88.70828553341313 449.3688117896848 17.500000000000377
  endloop
endfacet
facet normal 0.0 0.0 -1.0
  outer loop
    vertex 88.73384116369576 449.17469750585786 17.500000000000377
    vertex 88.73384116369576 449.56292607351173 17.500000000000377
    vertex 88.80876648057405 449.743811789684 17.500000000000377
  endloop
endfacet
facet normal 0.0 0.0 -1.0
  outer loop
    vertex 88.73384116369576 449.17469750585786 17.500000000000377
    vertex 88.80876648057405 449.743811789684 17.500000000000377
    vertex 88.80876648057405 448.9938117896842 17.500000000000377
  endloop
endfacet
facet normal 0.0 0.0 -1.0
  outer loop
    vertex 88.80876648057405 448.9938117896842 17.500000000000377
    vertex 88.80876648057405 449.743811789684 17.500000000000377
    vertex 88.9279554475227 449.89914187557434 17.500000000000377
  endloop
endfacet
facet normal 0.0 0.0 -1.0
  outer loop
    vertex 88.80876648057405 448.9938117896842 17.500000000000377
    vertex 88.9279554475227 449.89914187557434 17.500000000000377
    vertex 88.9279554475227 448.8384817037945 17.500000000000377
  endloop
endfacet
facet normal 0.0 0.0 -1.0
  outer loop
    vertex 88.9279554475227 448.8384817037945 17.500000000000377
    vertex 88.9279554475227 449.89914187557434 17.500000000000377
    vertex 89.08328553341234 450.0183308425223 17.500000000000377
  endloop
endfacet
facet normal 0.0 0.0 -1.0
  outer loop
    vertex 88.9279554475227 448.8384817037945 17.500000000000377
    vertex 89.08328553341234 450.0183308425223 17.500000000000377
    vertex 89.08328553341234 448.7192927368459 17.500000000000377
  endloop
endfacet
facet normal 0.0 0.0 -1.0
  outer loop
    vertex 89.08328553341234 448.7192927368459 17.500000000000377
    vertex 89.08328553341234 450.0183308425223 17.500000000000377
    vertex 89.26417124958603 450.0932561594013 17.500000000000377
  endloop
endfacet
facet normal 0.0 0.0 -1.0
  outer loop
    vertex 89.08328553341234 448.7192927368459 17.500000000000377
    vertex 89.26417124958603 450.0932561594013 17.500000000000377
    vertex 89.26417124958603 448.6443674199676 17.500000000000377
  endloop
endfacet
facet normal 0.0 0.0 -1.0
  outer loop
    vertex 89.26417124958603 448.6443674199676 17.500000000000377
    vertex 89.26417124958603 450.0932561594013 17.500000000000377
    vertex 89.45828553341296 450.1188117896846 17.500000000000377
  endloop
endfacet
facet normal 0.0 0.0 -1.0
  outer loop
    vertex 89.26417124958603 448.6443674199676 17.500000000000377
    vertex 89.45828553341296 450.1188117896846 17.500000000000377
    vertex 89.45828553341296 448.61881178968497 17.500000000000377
  endloop
endfacet
facet normal 0.0 0.0 -1.0
  outer loop
    vertex 89.45828553341296 448.61881178968497 17.500000000000377
    vertex 89.45828553341296 450.1188117896846 17.500000000000377
    vertex 89.65239981723991 450.0932561594013 17.500000000000377
  endloop
endfacet
facet normal 0.0 0.0 -1.0
  outer loop
    vertex 89.45828553341296 448.61881178968497 17.500000000000377
    vertex 89.65239981723991 450.0932561594013 17.500000000000377
    vertex 89.65239981723991 448.6443674199676 17.500000000000377
  endloop
endfacet
facet normal 0.0 0.0 -1.0
  outer loop
    vertex 89.65239981723991 448.6443674199676 17.500000000000377
    vertex 89.65239981723991 450.0932561594013 17.500000000000377
    vertex 89.83328553341217 450.0183308425223 17.500000000000377
  endloop
endfacet
facet normal 0.0 0.0 -1.0
  outer loop
    vertex 89.65239981723991 448.6443674199676 17.500000000000377
    vertex 89.83328553341217 450.0183308425223 17.500000000000377
    vertex 89.83328553341217 448.7192927368459 17.500000000000377
  endloop
endfacet
facet normal 0.0 0.0 -1.0
  outer loop
    vertex 89.83328553341217 448.7192927368459 17.500000000000377
    vertex 89.83328553341217 450.0183308425223 17.500000000000377
    vertex 89.98861561930323 449.89914187557434 17.500000000000377
  endloop
endfacet
facet normal 0.0 0.0 -1.0
  outer loop
    vertex 89.83328553341217 448.7192927368459 17.500000000000377
    vertex 89.98861561930323 449.89914187557434 17.500000000000377
    vertex 89.98861561930323 448.8384817037945 17.500000000000377
  endloop
endfacet
facet normal 0.0 0.0 -1.0
  outer loop
    vertex 89.98861561930323 448.8384817037945 17.500000000000377
    vertex 89.98861561930323 449.89914187557434 17.500000000000377
    vertex 90.10780458625045 449.743811789684 17.500000000000377
  endloop
endfacet
facet normal 0.0 0.0 -1.0
  outer loop
    vertex 89.98861561930323 448.8384817037945 17.500000000000377
    vertex 90.10780458625045 449.743811789684 17.500000000000377
    vertex 90.10780458625045 448.9938117896842 17.500000000000377
  endloop
endfacet
facet normal 0.0 0.0 -1.0
  outer loop
    vertex 90.10780458625045 448.9938117896842 17.500000000000377
    vertex 90.10780458625045 449.743811789684 17.500000000000377
    vertex 90.18272990312873 449.56292607351173 17.500000000000377
  endloop
endfacet
facet normal 0.0 0.0 -1.0
  outer loop
    vertex 90.10780458625045 448.9938117896842 17.500000000000377
    vertex 90.18272990312873 449.56292607351173 17.500000000000377
    vertex 90.18272990312873 449.17469750585786 17.500000000000377
  endloop
endfacet
facet normal 0.0 0.0 -1.0
  outer loop
    vertex 90.18272990312873 449.17469750585786 17.500000000000377
    vertex 90.18272990312873 449.56292607351173 17.500000000000377
    vertex 90.20828553341279 449.3688117896848 17.500000000000377
  endloop
endfacet
facet normal 0.0 -1.0 0.0
  outer loop
    vertex 63.86088104400987 443.7137735983982 21.50000000000037
    vertex 61.25440757518433 443.7137735983982 19.500000000000284
    vertex 63.86088104400987 443.7137735983982 19.500000000000284
  endloop
endfacet
facet normal 0.0 -1.0 0.0
  outer loop
    vertex 61.25440757518433 443.7137735983982 19.500000000000284
    vertex 63.86088104400987 443.7137735983982 21.50000000000037
    vertex 61.25440757518433 443.7137735983982 21.50000000000037
  endloop
endfacet
facet normal -0.38268343236514024 -0.9238795325112659 0.0
  outer loop
    vertex 81.8294789852546 453.71377359839795 21.50000000000037
    vertex 80.52580690892604 454.25377225330044 19.500000000000284
    vertex 81.8294789852546 453.71377359839795 19.500000000000284
  endloop
endfacet
facet normal -0.38268343236514024 -0.9238795325112659 0.0
  outer loop
    vertex 80.52580690892604 454.25377225330044 19.500000000000284
    vertex 81.8294789852546 453.71377359839795 21.50000000000037
    vertex 80.52580690892604 454.25377225330044 21.50000000000037
  endloop
endfacet
facet normal -0.7933533402900951 0.6087614290102064 0.0
  outer loop
    vertex 79.54797471099674 456.412989250033 19.500000000000284
    vertex 79.42878574404808 456.2576591641434 17.500000000000377
    vertex 79.42878574404808 456.2576591641434 19.500000000000284
  endloop
endfacet
facet normal -0.7933533402900951 0.6087614290102064 0.0
  outer loop
    vertex 79.42878574404808 456.2576591641434 17.500000000000377
    vertex 79.54797471099674 456.412989250033 19.500000000000284
    vertex 79.54797471099674 456.412989250033 17.500000000000377
  endloop
endfacet
facet normal 0.13052619222074446 0.9914448613737192 0.0
  outer loop
    vertex 89.45828553341296 450.1188117896846 19.500000000000284
    vertex 89.65239981723991 450.0932561594013 17.500000000000377
    vertex 89.45828553341296 450.1188117896846 17.500000000000377
  endloop
endfacet
facet normal 0.13052619222074446 0.9914448613737192 0.0
  outer loop
    vertex 89.65239981723991 450.0932561594013 17.500000000000377
    vertex 89.45828553341296 450.1188117896846 19.500000000000284
    vertex 89.65239981723991 450.0932561594013 19.500000000000284
  endloop
endfacet
facet normal 0.9914448613741964 -0.1305261922171201 0.0
  outer loop
    vertex 80.82830479688539 455.8826591641427 17.500000000000377
    vertex 80.80274916660277 455.68854488031576 19.500000000000284
    vertex 80.80274916660277 455.68854488031576 17.500000000000377
  endloop
endfacet
facet normal 0.9914448613741964 -0.1305261922171201 0.0
  outer loop
    vertex 80.80274916660277 455.68854488031576 19.500000000000284
    vertex 80.82830479688539 455.8826591641427 17.500000000000377
    vertex 80.82830479688539 455.8826591641427 19.500000000000284
  endloop
endfacet
facet normal 0.0 0.0 -1.0
  outer loop
    vertex 72.69653079457497 457.39303118873977 19.500000000000284
    vertex 72.23401886009178 456.7179702214183 19.500000000000284
    vertex 72.23401886009178 457.20145247271824 19.500000000000284
  endloop
endfacet
facet normal 0.0 0.0 -1.0
  outer loop
    vertex 72.23401886009178 456.7179702214183 19.500000000000284
    vertex 72.69653079457497 457.39303118873977 19.500000000000284
    vertex 72.73401886009167 456.7179702214183 19.500000000000284
  endloop
endfacet
facet normal 0.6087614290102064 -0.7933533402900951 0.0
  outer loop
    vertex 80.60863488277582 455.35232907825247 19.500000000000284
    vertex 80.4533047968862 455.2331401113038 17.500000000000377
    vertex 80.60863488277582 455.35232907825247 17.500000000000377
  endloop
endfacet
facet normal 0.6087614290102064 -0.7933533402900951 0.0
  outer loop
    vertex 80.4533047968862 455.2331401113038 17.500000000000377
    vertex 80.60863488277582 455.35232907825247 19.500000000000284
    vertex 80.4533047968862 455.2331401113038 19.500000000000284
  endloop
endfacet
facet normal 0.13052619222022063 0.9914448613737883 0.0
  outer loop
    vertex 77.03174980004246 457.96377359839846 21.50000000000037
    vertex 81.3669688055085 457.39303118873977 19.500000000000284
    vertex 77.03174980004246 457.96377359839846 19.500000000000284
  endloop
endfacet
facet normal 0.13052619222022063 0.9914448613737883 0.0
  outer loop
    vertex 81.3669688055085 457.39303118873977 19.500000000000284
    vertex 77.03174980004246 457.96377359839846 21.50000000000037
    vertex 81.3669688055085 457.39303118873977 21.50000000000037
  endloop
endfacet
facet normal 0.0 0.0 -1.0
  outer loop
    vertex 77.03174980004246 457.96377359839846 19.500000000000284
    vertex 72.73401886009167 456.7179702214183 19.500000000000284
    vertex 72.69653079457497 457.39303118873977 19.500000000000284
  endloop
endfacet
facet normal 0.0 0.0 -1.0
  outer loop
    vertex 72.73401886009167 456.7179702214183 19.500000000000284
    vertex 77.03174980004246 457.96377359839846 19.500000000000284
    vertex 72.88585665299388 453.9837729258499 19.500000000000284
  endloop
endfacet
facet normal 0.0 0.0 -1.0
  outer loop
    vertex 72.88585665299388 453.9837729258499 19.500000000000284
    vertex 77.03174980004246 457.96377359839846 19.500000000000284
    vertex 73.53769269115743 454.25377225330044 19.500000000000284
  endloop
endfacet
facet normal 0.0 0.0 -1.0
  outer loop
    vertex 73.53769269115743 454.25377225330044 19.500000000000284
    vertex 77.03174980004246 457.96377359839846 19.500000000000284
    vertex 75.51770803200075 454.5144462181835 19.500000000000284
  endloop
endfacet
facet normal 0.0 0.0 -1.0
  outer loop
    vertex 75.51770803200075 454.5144462181835 19.500000000000284
    vertex 77.03174980004246 457.96377359839846 19.500000000000284
    vertex 77.03174980004246 454.7137735983977 19.500000000000284
  endloop
endfacet
facet normal 0.0 0.0 -1.0
  outer loop
    vertex 77.03174980004246 454.7137735983977 19.500000000000284
    vertex 77.03174980004246 457.96377359839846 19.500000000000284
    vertex 79.70330479688637 456.53217821698166 19.500000000000284
  endloop
endfacet
facet normal 0.0 0.0 -1.0
  outer loop
    vertex 79.70330479688637 456.53217821698166 19.500000000000284
    vertex 77.03174980004246 457.96377359839846 19.500000000000284
    vertex 81.3669688055085 457.39303118873977 19.500000000000284
  endloop
endfacet
facet normal 0.0 0.0 -1.0
  outer loop
    vertex 77.03174980004246 454.7137735983977 19.500000000000284
    vertex 79.70330479688637 456.53217821698166 19.500000000000284
    vertex 79.54797471099674 456.412989250033 19.500000000000284
  endloop
endfacet
facet normal 0.0 0.0 -1.0
  outer loop
    vertex 77.03174980004246 454.7137735983977 19.500000000000284
    vertex 79.54797471099674 456.412989250033 19.500000000000284
    vertex 79.42878574404808 456.2576591641434 19.500000000000284
  endloop
endfacet
facet normal 0.0 0.0 -1.0
  outer loop
    vertex 77.03174980004246 454.7137735983977 19.500000000000284
    vertex 79.42878574404808 456.2576591641434 19.500000000000284
    vertex 79.35386042716979 456.0767734479697 19.500000000000284
  endloop
endfacet
facet normal 0.0 0.0 -1.0
  outer loop
    vertex 77.03174980004246 454.7137735983977 19.500000000000284
    vertex 79.35386042716979 456.0767734479697 19.500000000000284
    vertex 79.32830479688573 455.8826591641427 19.500000000000284
  endloop
endfacet
facet normal 0.0 0.0 -1.0
  outer loop
    vertex 79.70330479688637 456.53217821698166 19.500000000000284
    vertex 81.3669688055085 457.39303118873977 19.500000000000284
    vertex 79.88419051305861 456.6071035338599 19.500000000000284
  endloop
endfacet
facet normal 0.0 0.0 -1.0
  outer loop
    vertex 79.88419051305861 456.6071035338599 19.500000000000284
    vertex 81.3669688055085 457.39303118873977 19.500000000000284
    vertex 80.07830479688556 456.6326591641425 19.500000000000284
  endloop
endfacet
facet normal 0.0 0.0 -1.0
  outer loop
    vertex 80.07830479688556 456.6326591641425 19.500000000000284
    vertex 81.3669688055085 457.39303118873977 19.500000000000284
    vertex 80.27241908071251 456.6071035338599 19.500000000000284
  endloop
endfacet
facet normal 0.0 0.0 -1.0
  outer loop
    vertex 80.27241908071251 456.6071035338599 19.500000000000284
    vertex 81.3669688055085 457.39303118873977 19.500000000000284
    vertex 80.4533047968862 456.5321782169809 19.500000000000284
  endloop
endfacet
facet normal 0.0 0.0 -1.0
  outer loop
    vertex 80.4533047968862 456.5321782169809 19.500000000000284
    vertex 81.3669688055085 457.39303118873977 19.500000000000284
    vertex 80.60863488277582 456.412989250033 19.500000000000284
  endloop
endfacet
facet normal 0.0 0.0 -1.0
  outer loop
    vertex 80.60863488277582 456.412989250033 19.500000000000284
    vertex 81.3669688055085 457.39303118873977 19.500000000000284
    vertex 80.72782384972449 456.25765916414264 19.500000000000284
  endloop
endfacet
facet normal 0.0 0.0 -1.0
  outer loop
    vertex 80.72782384972449 456.25765916414264 19.500000000000284
    vertex 81.3669688055085 457.39303118873977 19.500000000000284
    vertex 80.80274916660277 456.0767734479697 19.500000000000284
  endloop
endfacet
facet normal 0.0 0.0 -1.0
  outer loop
    vertex 80.80274916660277 456.0767734479697 19.500000000000284
    vertex 81.3669688055085 457.39303118873977 19.500000000000284
    vertex 80.82830479688539 455.8826591641427 19.500000000000284
  endloop
endfacet
facet normal 0.0 0.0 -1.0
  outer loop
    vertex 77.03174980004246 454.7137735983977 19.500000000000284
    vertex 79.54797471099529 455.35232907825247 19.500000000000284
    vertex 80.52580690892604 454.25377225330044 19.500000000000284
  endloop
endfacet
facet normal 0.0 0.0 -1.0
  outer loop
    vertex 79.54797471099529 455.35232907825247 19.500000000000284
    vertex 77.03174980004246 454.7137735983977 19.500000000000284
    vertex 79.42878574404808 455.5076591641428 19.500000000000284
  endloop
endfacet
facet normal 0.0 0.0 -1.0
  outer loop
    vertex 79.42878574404808 455.5076591641428 19.500000000000284
    vertex 77.03174980004246 454.7137735983977 19.500000000000284
    vertex 79.35386042716836 455.68854488031576 19.500000000000284
  endloop
endfacet
facet normal 0.0 0.0 -1.0
  outer loop
    vertex 79.35386042716836 455.68854488031576 19.500000000000284
    vertex 77.03174980004246 454.7137735983977 19.500000000000284
    vertex 79.32830479688573 455.8826591641427 19.500000000000284
  endloop
endfacet
facet normal 0.0 0.0 -1.0
  outer loop
    vertex 80.52580690892604 454.25377225330044 19.500000000000284
    vertex 79.54797471099529 455.35232907825247 19.500000000000284
    vertex 79.70330479688637 455.2331401113045 19.500000000000284
  endloop
endfacet
facet normal 0.0 0.0 -1.0
  outer loop
    vertex 80.52580690892604 454.25377225330044 19.500000000000284
    vertex 79.70330479688637 455.2331401113045 19.500000000000284
    vertex 79.88419051305861 455.15821479442553 19.500000000000284
  endloop
endfacet
facet normal 0.0 0.0 -1.0
  outer loop
    vertex 80.52580690892604 454.25377225330044 19.500000000000284
    vertex 79.88419051305861 455.15821479442553 19.500000000000284
    vertex 80.07830479688556 455.13265916414286 19.500000000000284
  endloop
endfacet
facet normal 0.0 0.0 -1.0
  outer loop
    vertex 80.52580690892604 454.25377225330044 19.500000000000284
    vertex 80.07830479688556 455.13265916414286 19.500000000000284
    vertex 80.27241908071251 455.15821479442553 19.500000000000284
  endloop
endfacet
facet normal 0.0 0.0 -1.0
  outer loop
    vertex 80.52580690892604 454.25377225330044 19.500000000000284
    vertex 80.27241908071251 455.15821479442553 19.500000000000284
    vertex 80.4533047968862 455.2331401113038 19.500000000000284
  endloop
endfacet
facet normal 0.0 0.0 -1.0
  outer loop
    vertex 80.52580690892604 454.25377225330044 19.500000000000284
    vertex 80.4533047968862 455.2331401113038 19.500000000000284
    vertex 80.60863488277582 455.35232907825247 19.500000000000284
  endloop
endfacet
facet normal 0.0 0.0 -1.0
  outer loop
    vertex 80.52580690892604 454.25377225330044 19.500000000000284
    vertex 80.60863488277582 455.35232907825247 19.500000000000284
    vertex 81.8294789852546 453.71377359839795 19.500000000000284
  endloop
endfacet
facet normal 0.0 0.0 -1.0
  outer loop
    vertex 81.8294789852546 453.71377359839795 19.500000000000284
    vertex 80.60863488277582 455.35232907825247 19.500000000000284
    vertex 80.72782384972449 455.50765916414207 19.500000000000284
  endloop
endfacet
facet normal 0.0 0.0 -1.0
  outer loop
    vertex 81.8294789852546 453.71377359839795 19.500000000000284
    vertex 80.72782384972449 455.50765916414207 19.500000000000284
    vertex 80.80274916660277 455.68854488031576 19.500000000000284
  endloop
endfacet
facet normal 0.0 0.0 -1.0
  outer loop
    vertex 81.8294789852546 453.71377359839795 19.500000000000284
    vertex 80.80274916660277 455.68854488031576 19.500000000000284
    vertex 80.82830479688539 455.8826591641427 19.500000000000284
  endloop
endfacet
facet normal 0.0 0.0 -1.0
  outer loop
    vertex 81.8294789852546 453.71377359839795 19.500000000000284
    vertex 80.82830479688539 455.8826591641427 19.500000000000284
    vertex 81.3669688055085 457.39303118873977 19.500000000000284
  endloop
endfacet
facet normal 0.0 0.0 -1.0
  outer loop
    vertex 81.8294789852546 453.71377359839795 19.500000000000284
    vertex 81.3669688055085 457.39303118873977 19.500000000000284
    vertex 85.40674980004128 455.71969911178707 19.500000000000284
  endloop
endfacet
facet normal 0.0 0.0 -1.0
  outer loop
    vertex 81.8294789852546 453.71377359839795 19.500000000000284
    vertex 85.40674980004128 455.71969911178707 19.500000000000284
    vertex 83.78174980004236 452.9051165494884 19.500000000000284
  endloop
endfacet
facet normal 0.0 0.0 -1.0
  outer loop
    vertex 83.78174980004236 452.9051165494884 19.500000000000284
    vertex 85.40674980004128 455.71969911178707 19.500000000000284
    vertex 86.57769134605995 450.75971514441693 19.500000000000284
  endloop
endfacet
facet normal 0.0 0.0 -1.0
  outer loop
    vertex 86.57769134605995 450.75971514441693 19.500000000000284
    vertex 85.40674980004128 455.71969911178707 19.500000000000284
    vertex 88.87578838491679 453.05781218327223 19.500000000000284
  endloop
endfacet
facet normal 0.0 0.0 -1.0
  outer loop
    vertex 86.57769134605995 450.75971514441693 19.500000000000284
    vertex 88.87578838491679 453.05781218327223 19.500000000000284
    vertex 88.70828553341313 449.3688117896848 19.500000000000284
  endloop
endfacet
facet normal 0.0 0.0 -1.0
  outer loop
    vertex 88.70828553341313 449.3688117896848 19.500000000000284
    vertex 88.87578838491679 453.05781218327223 19.500000000000284
    vertex 88.73384116369576 449.56292607351173 19.500000000000284
  endloop
endfacet
facet normal 0.0 0.0 -1.0
  outer loop
    vertex 88.73384116369576 449.56292607351173 19.500000000000284
    vertex 88.87578838491679 453.05781218327223 19.500000000000284
    vertex 88.80876648057405 449.743811789684 19.500000000000284
  endloop
endfacet
facet normal 0.0 0.0 -1.0
  outer loop
    vertex 88.80876648057405 449.743811789684 19.500000000000284
    vertex 88.87578838491679 453.05781218327223 19.500000000000284
    vertex 88.9279554475227 449.89914187557434 19.500000000000284
  endloop
endfacet
facet normal 0.0 0.0 -1.0
  outer loop
    vertex 88.9279554475227 449.89914187557434 19.500000000000284
    vertex 88.87578838491679 453.05781218327223 19.500000000000284
    vertex 89.08328553341234 450.0183308425223 19.500000000000284
  endloop
endfacet
facet normal 0.0 0.0 -1.0
  outer loop
    vertex 89.08328553341234 450.0183308425223 19.500000000000284
    vertex 88.87578838491679 453.05781218327223 19.500000000000284
    vertex 89.26417124958603 450.0932561594013 19.500000000000284
  endloop
endfacet
facet normal 0.0 0.0 -1.0
  outer loop
    vertex 89.26417124958603 450.0932561594013 19.500000000000284
    vertex 88.87578838491679 453.05781218327223 19.500000000000284
    vertex 89.45828553341296 450.1188117896846 19.500000000000284
  endloop
endfacet
facet normal 0.0 0.0 -1.0
  outer loop
    vertex 89.45828553341296 450.1188117896846 19.500000000000284
    vertex 88.87578838491679 453.05781218327223 19.500000000000284
    vertex 89.65239981723991 450.0932561594013 19.500000000000284
  endloop
endfacet
facet normal 0.0 0.0 -1.0
  outer loop
    vertex 89.65239981723991 450.0932561594013 19.500000000000284
    vertex 88.87578838491679 453.05781218327223 19.500000000000284
    vertex 91.53767531343159 449.5887735983983 19.500000000000284
  endloop
endfacet
facet normal 0.0 0.0 -1.0
  outer loop
    vertex 89.65239981723991 450.0932561594013 19.500000000000284
    vertex 91.53767531343159 449.5887735983983 19.500000000000284
    vertex 89.83328553341217 450.0183308425223 19.500000000000284
  endloop
endfacet
facet normal 0.0 0.0 -1.0
  outer loop
    vertex 89.83328553341217 450.0183308425223 19.500000000000284
    vertex 91.53767531343159 449.5887735983983 19.500000000000284
    vertex 89.98861561930323 449.89914187557434 19.500000000000284
  endloop
endfacet
facet normal 0.0 0.0 -1.0
  outer loop
    vertex 89.98861561930323 449.89914187557434 19.500000000000284
    vertex 91.53767531343159 449.5887735983983 19.500000000000284
    vertex 90.10780458625045 449.743811789684 19.500000000000284
  endloop
endfacet
facet normal 0.0 0.0 -1.0
  outer loop
    vertex 90.10780458625045 449.743811789684 19.500000000000284
    vertex 91.53767531343159 449.5887735983983 19.500000000000284
    vertex 90.18272990312873 449.56292607351173 19.500000000000284
  endloop
endfacet
facet normal 0.0 0.0 -1.0
  outer loop
    vertex 90.18272990312873 449.56292607351173 19.500000000000284
    vertex 91.53767531343159 449.5887735983983 19.500000000000284
    vertex 90.20828553341279 449.3688117896848 19.500000000000284
  endloop
endfacet
facet normal 0.0 0.0 -1.0
  outer loop
    vertex 88.70828553341313 449.3688117896848 19.500000000000284
    vertex 88.72309275113152 447.96377359839795 19.500000000000284
    vertex 86.57769134605995 450.75971514441693 19.500000000000284
  endloop
endfacet
facet normal 0.0 0.0 -1.0
  outer loop
    vertex 88.72309275113152 447.96377359839795 19.500000000000284
    vertex 88.70828553341313 449.3688117896848 19.500000000000284
    vertex 88.73384116369576 449.17469750585786 19.500000000000284
  endloop
endfacet
facet normal 0.0 0.0 -1.0
  outer loop
    vertex 88.72309275113152 447.96377359839795 19.500000000000284
    vertex 88.73384116369576 449.17469750585786 19.500000000000284
    vertex 89.5317498000425 446.0115027836102 19.500000000000284
  endloop
endfacet
facet normal 0.0 0.0 -1.0
  outer loop
    vertex 89.5317498000425 446.0115027836102 19.500000000000284
    vertex 88.73384116369576 449.17469750585786 19.500000000000284
    vertex 88.80876648057405 448.9938117896842 19.500000000000284
  endloop
endfacet
facet normal 0.0 0.0 -1.0
  outer loop
    vertex 89.5317498000425 446.0115027836102 19.500000000000284
    vertex 88.80876648057405 448.9938117896842 19.500000000000284
    vertex 88.9279554475227 448.8384817037945 19.500000000000284
  endloop
endfacet
facet normal 0.0 0.0 -1.0
  outer loop
    vertex 89.5317498000425 446.0115027836102 19.500000000000284
    vertex 88.9279554475227 448.8384817037945 19.500000000000284
    vertex 89.08328553341234 448.7192927368459 19.500000000000284
  endloop
endfacet
facet normal 0.0 0.0 -1.0
  outer loop
    vertex 89.5317498000425 446.0115027836102 19.500000000000284
    vertex 89.08328553341234 448.7192927368459 19.500000000000284
    vertex 89.26417124958603 448.6443674199676 19.500000000000284
  endloop
endfacet
facet normal 0.0 0.0 -1.0
  outer loop
    vertex 89.5317498000425 446.0115027836102 19.500000000000284
    vertex 89.26417124958603 448.6443674199676 19.500000000000284
    vertex 89.45828553341296 448.61881178968497 19.500000000000284
  endloop
endfacet
facet normal 0.0 0.0 -1.0
  outer loop
    vertex 89.5317498000425 446.0115027836102 19.500000000000284
    vertex 89.45828553341296 448.61881178968497 19.500000000000284
    vertex 89.65239981723991 448.6443674199676 19.500000000000284
  endloop
endfacet
facet normal 0.0 0.0 -1.0
  outer loop
    vertex 89.5317498000425 446.0115027836102 19.500000000000284
    vertex 89.65239981723991 448.6443674199676 19.500000000000284
    vertex 90.07174845494353 444.7078307072816 19.500000000000284
  endloop
endfacet
facet normal 0.0 0.0 -1.0
  outer loop
    vertex 90.07174845494353 444.7078307072816 19.500000000000284
    vertex 89.65239981723991 448.6443674199676 19.500000000000284
    vertex 89.83328553341217 448.7192927368459 19.500000000000284
  endloop
endfacet
facet normal 0.0 0.0 -1.0
  outer loop
    vertex 90.07174845494353 444.7078307072816 19.500000000000284
    vertex 89.83328553341217 448.7192927368459 19.500000000000284
    vertex 89.98861561930323 448.8384817037945 19.500000000000284
  endloop
endfacet
facet normal 0.0 0.0 -1.0
  outer loop
    vertex 90.07174845494353 444.7078307072816 19.500000000000284
    vertex 89.98861561930323 448.8384817037945 19.500000000000284
    vertex 90.10780458625045 448.9938117896842 19.500000000000284
  endloop
endfacet
facet normal 0.0 0.0 -1.0
  outer loop
    vertex 90.07174845494353 444.7078307072816 19.500000000000284
    vertex 90.10780458625045 448.9938117896842 19.500000000000284
    vertex 90.2026185560736 443.7137735983982 19.500000000000284
  endloop
endfacet
facet normal 0.0 0.0 -1.0
  outer loop
    vertex 90.2026185560736 443.7137735983982 19.500000000000284
    vertex 90.10780458625045 448.9938117896842 19.500000000000284
    vertex 90.18272990312873 449.17469750585786 19.500000000000284
  endloop
endfacet
facet normal 0.0 0.0 -1.0
  outer loop
    vertex 90.2026185560736 443.7137735983982 19.500000000000284
    vertex 90.18272990312873 449.17469750585786 19.500000000000284
    vertex 90.20828553341279 449.3688117896848 19.500000000000284
  endloop
endfacet
facet normal 0.0 0.0 -1.0
  outer loop
    vertex 90.2026185560736 443.7137735983982 19.500000000000284
    vertex 90.20828553341279 449.3688117896848 19.500000000000284
    vertex 92.80909202489914 443.7137735983982 19.500000000000284
  endloop
endfacet
facet normal 0.0 0.0 -1.0
  outer loop
    vertex 92.80909202489914 443.7137735983982 19.500000000000284
    vertex 90.20828553341279 449.3688117896848 19.500000000000284
    vertex 91.53767531343159 449.5887735983983 19.500000000000284
  endloop
endfacet
facet normal 0.0 0.0 -1.0
  outer loop
    vertex 92.80909202489914 443.7137735983982 19.500000000000284
    vertex 91.53767531343159 449.5887735983983 19.500000000000284
    vertex 93.21100739038428 445.5489926038655 19.500000000000284
  endloop
endfacet
facet normal 0.0 0.0 -1.0
  outer loop
    vertex 92.80909202489914 443.7137735983982 19.500000000000284
    vertex 93.21100739038428 445.5489926038655 19.500000000000284
    vertex 93.45261855607286 443.7137735983982 19.500000000000284
  endloop
endfacet
facet normal 0.9238795325112659 -0.38268343236514024 0.0
  outer loop
    vertex 64.53174980004242 446.0115027836102 19.500000000000284
    vertex 63.99175114513994 444.7078307072816 21.50000000000037
    vertex 63.99175114513994 444.7078307072816 19.500000000000284
  endloop
endfacet
facet normal 0.9238795325112659 -0.38268343236514024 0.0
  outer loop
    vertex 63.99175114513994 444.7078307072816 21.50000000000037
    vertex 64.53174980004242 446.0115027836102 19.500000000000284
    vertex 64.53174980004242 446.0115027836102 21.50000000000037
  endloop
endfacet
facet normal 0.7933533402936567 -0.6087614290055648 0.0
  outer loop
    vertex 90.10780458625045 448.9938117896842 17.500000000000377
    vertex 89.98861561930323 448.8384817037945 19.500000000000284
    vertex 89.98861561930323 448.8384817037945 17.500000000000377
  endloop
endfacet
facet normal 0.7933533402936567 -0.6087614290055648 0.0
  outer loop
    vertex 89.98861561930323 448.8384817037945 19.500000000000284
    vertex 90.10780458625045 448.9938117896842 17.500000000000377
    vertex 90.10780458625045 448.9938117896842 19.500000000000284
  endloop
endfacet
facet normal 0.0 0.0 -1.0
  outer loop
    vertex 72.73401886009167 456.7179702214183 19.500000000000284
    vertex 72.23401886009178 456.51086344023065 19.500000000000284
    vertex 72.23401886009178 456.7179702214183 19.500000000000284
  endloop
endfacet
facet normal 0.3826834323689748 0.9238795325096775 0.0
  outer loop
    vertex 89.65239981723991 450.0932561594013 19.500000000000284
    vertex 89.83328553341217 450.0183308425223 17.500000000000377
    vertex 89.65239981723991 450.0932561594013 17.500000000000377
  endloop
endfacet
facet normal 0.3826834323689748 0.9238795325096775 0.0
  outer loop
    vertex 89.83328553341217 450.0183308425223 17.500000000000377
    vertex 89.65239981723991 450.0932561594013 19.500000000000284
    vertex 89.83328553341217 450.0183308425223 19.500000000000284
  endloop
endfacet
facet normal -0.6087614290102064 -0.7933533402900951 0.0
  outer loop
    vertex 89.08328553341234 448.7192927368459 19.500000000000284
    vertex 88.9279554475227 448.8384817037945 17.500000000000377
    vertex 89.08328553341234 448.7192927368459 17.500000000000377
  endloop
endfacet
facet normal -0.6087614290102064 -0.7933533402900951 0.0
  outer loop
    vertex 88.9279554475227 448.8384817037945 17.500000000000377
    vertex 89.08328553341234 448.7192927368459 19.500000000000284
    vertex 88.9279554475227 448.8384817037945 19.500000000000284
  endloop
endfacet
facet normal -0.9914448613737826 0.1305261922202623 0.0
  outer loop
    vertex 60.85249220970064 445.5489926038655 21.50000000000037
    vertex 60.610881044010576 443.7137735983982 -2.9999999999998197
    vertex 60.61088104401061 443.7137735983982 21.50000000000037
  endloop
endfacet
facet normal -0.9914448613737826 0.1305261922202623 0.0
  outer loop
    vertex 60.610881044010576 443.7137735983982 -2.9999999999998197
    vertex 60.85249220970064 445.5489926038655 21.50000000000037
    vertex 60.85249220970061 445.5489926038655 -2.9999999999998197
  endloop
endfacet
facet normal 0.6087614290078857 0.7933533402918759 0.0
  outer loop
    vertex 80.4533047968862 456.5321782169809 19.500000000000284
    vertex 80.60863488277582 456.412989250033 17.500000000000377
    vertex 80.4533047968862 456.5321782169809 17.500000000000377
  endloop
endfacet
facet normal 0.6087614290078857 0.7933533402918759 0.0
  outer loop
    vertex 80.60863488277582 456.412989250033 17.500000000000377
    vertex 80.4533047968862 456.5321782169809 19.500000000000284
    vertex 80.60863488277582 456.412989250033 19.500000000000284
  endloop
endfacet
facet normal 0.0 0.0 -1.0
  outer loop
    vertex 72.23401886009178 457.20145247271824 19.500000000000284
    vertex 71.75729175092498 456.31339660606307 19.500000000000284
    vertex 71.75729175092498 457.00398563855026 19.500000000000284
  endloop
endfacet
facet normal 0.0 0.0 -1.0
  outer loop
    vertex 71.75729175092498 456.31339660606307 19.500000000000284
    vertex 72.23401886009178 457.20145247271824 19.500000000000284
    vertex 72.23401886009178 456.51086344023065 19.500000000000284
  endloop
endfacet
facet normal 0.0 0.0 -1.0
  outer loop
    vertex 72.23401886009178 456.51086344023065 19.500000000000284
    vertex 72.23401886009178 457.20145247271824 19.500000000000284
    vertex 72.23401886009178 456.7179702214183 19.500000000000284
  endloop
endfacet
facet normal -1.1999859379278107e-14 1.128869756442044e-14 -1.0
  outer loop
    vertex 60.85249220970061 445.5489926038655 -2.9999999999998197
    vertex 61.2544075751843 443.7137735983982 -2.9999999999998197
    vertex 60.610881044010576 443.7137735983982 -2.9999999999998197
  endloop
endfacet
facet normal -1.1999859379278107e-14 1.128869756442044e-14 -1.0
  outer loop
    vertex 61.2544075751843 443.7137735983982 -2.9999999999998197
    vertex 60.85249220970061 445.5489926038655 -2.9999999999998197
    vertex 61.47409110606359 445.38243568156935 -2.9999999999998197
  endloop
endfacet
facet normal -1.1999859379278107e-14 1.128869756442044e-14 -1.0
  outer loop
    vertex 61.47409110606359 445.38243568156935 -2.9999999999998197
    vertex 60.85249220970061 445.5489926038655 -2.9999999999998197
    vertex 62.52582428665184 449.5887735983983 -2.9999999999998197
  endloop
endfacet
facet normal -1.1999859379278107e-14 1.128869756442044e-14 -1.0
  outer loop
    vertex 61.47409110606359 445.38243568156935 -2.9999999999998197
    vertex 62.52582428665184 449.5887735983983 -2.9999999999998197
    vertex 63.08313461065871 449.2670103328107 -2.9999999999998197
  endloop
endfacet
facet normal -1.1999859379278107e-14 1.128869756442044e-14 -1.0
  outer loop
    vertex 63.08313461065871 449.2670103328107 -2.9999999999998197
    vertex 62.52582428665184 449.5887735983983 -2.9999999999998197
    vertex 65.18771121516666 453.05781218327223 -2.9999999999998197
  endloop
endfacet
facet normal -1.1999859379278107e-14 1.128869756442044e-14 -1.0
  outer loop
    vertex 63.08313461065871 449.2670103328107 -2.9999999999998197
    vertex 65.18771121516666 453.05781218327223 -2.9999999999998197
    vertex 64.53174980004238 451.1548824030975 -2.9999999999996394
  endloop
endfacet
facet normal -1.1999859379278107e-14 1.128869756442044e-14 -1.0
  outer loop
    vertex 64.53174980004238 451.1548824030975 -2.9999999999996394
    vertex 65.18771121516666 453.05781218327223 -2.9999999999998197
    vertex 65.64275318923349 452.6027702092054 -2.9999999999998197
  endloop
endfacet
facet normal -1.1999859379278107e-14 1.128869756442044e-14 -1.0
  outer loop
    vertex 65.64275318923349 452.6027702092054 -2.9999999999998197
    vertex 65.18771121516666 453.05781218327223 -2.9999999999998197
    vertex 68.65674980004216 455.71969911178707 -2.9999999999998197
  endloop
endfacet
facet normal -1.1999859379278107e-14 1.128869756442044e-14 -1.0
  outer loop
    vertex 65.64275318923349 452.6027702092054 -2.9999999999998197
    vertex 68.65674980004216 455.71969911178707 -2.9999999999998197
    vertex 67.09064099534295 453.71377359839795 -2.9999999999996394
  endloop
endfacet
facet normal -1.1999859379278107e-14 1.128869756442044e-14 -1.0
  outer loop
    vertex 67.09064099534295 453.71377359839795 -2.9999999999996394
    vertex 68.65674980004216 455.71969911178707 -2.9999999999998197
    vertex 68.9785130656283 455.16238878778165 -2.9999999999998197
  endloop
endfacet
facet normal -1.1999859379278107e-14 1.128869756442044e-14 -1.0
  outer loop
    vertex 68.9785130656283 455.16238878778165 -2.9999999999998197
    vertex 68.65674980004216 455.71969911178707 -2.9999999999998197
    vertex 71.75729175092495 457.00398563855026 -2.9999999999998197
  endloop
endfacet
facet normal -1.1999859379278107e-14 1.128869756442044e-14 -1.0
  outer loop
    vertex 68.9785130656283 455.16238878778165 -2.9999999999998197
    vertex 71.75729175092495 457.00398563855026 -2.9999999999998197
    vertex 71.75729175092495 456.31339660606307 -2.9999999999998197
  endloop
endfacet
facet normal 0.3826834323663676 0.9238795325107574 0.0
  outer loop
    vertex 80.27241908071251 456.6071035338599 19.500000000000284
    vertex 80.4533047968862 456.5321782169809 17.500000000000377
    vertex 80.27241908071251 456.6071035338599 17.500000000000377
  endloop
endfacet
facet normal 0.3826834323663676 0.9238795325107574 0.0
  outer loop
    vertex 80.4533047968862 456.5321782169809 17.500000000000377
    vertex 80.27241908071251 456.6071035338599 19.500000000000284
    vertex 80.4533047968862 456.5321782169809 19.500000000000284
  endloop
endfacet
facet normal -0.923879532511167 -0.38268343236537905 0.0
  outer loop
    vertex 88.72309275113152 447.96377359839795 21.50000000000037
    vertex 89.5317498000425 446.0115027836102 19.500000000000284
    vertex 89.5317498000425 446.0115027836102 21.50000000000037
  endloop
endfacet
facet normal -0.923879532511167 -0.38268343236537905 0.0
  outer loop
    vertex 89.5317498000425 446.0115027836102 19.500000000000284
    vertex 88.72309275113152 447.96377359839795 21.50000000000037
    vertex 88.72309275113152 447.96377359839795 19.500000000000284
  endloop
endfacet
facet normal -0.7933533402911693 0.6087614290088064 0.0
  outer loop
    vertex 65.18771121516669 453.05781218327223 21.50000000000037
    vertex 62.52582428665184 449.5887735983983 -2.9999999999998197
    vertex 62.525824286651876 449.5887735983983 21.50000000000037
  endloop
endfacet
facet normal -0.7933533402911693 0.6087614290088064 0.0
  outer loop
    vertex 62.52582428665184 449.5887735983983 -2.9999999999998197
    vertex 65.18771121516669 453.05781218327223 21.50000000000037
    vertex 65.18771121516666 453.05781218327223 -2.9999999999998197
  endloop
endfacet
facet normal 0.6087614290092522 -0.7933533402908273 1.232090061840045e-18
  outer loop
    vertex 68.97851306562833 455.16238878778165 19.500000000000284
    vertex 67.09064099534295 453.71377359839795 -2.9999999999996394
    vertex 68.9785130656283 455.16238878778165 -2.9999999999998197
  endloop
endfacet
facet normal 0.6087614290092522 -0.7933533402908273 1.232090061840045e-18
  outer loop
    vertex 67.09064099534295 453.71377359839795 -2.9999999999996394
    vertex 68.97851306562833 455.16238878778165 19.500000000000284
    vertex 67.090640995343 453.71377359839795 19.500000000000284
  endloop
endfacet
facet normal -0.7933533402914615 0.6087614290084256 0.0
  outer loop
    vertex 88.9279554475227 449.89914187557434 19.500000000000284
    vertex 88.80876648057405 449.743811789684 17.500000000000377
    vertex 88.80876648057405 449.743811789684 19.500000000000284
  endloop
endfacet
facet normal -0.7933533402914615 0.6087614290084256 0.0
  outer loop
    vertex 88.80876648057405 449.743811789684 17.500000000000377
    vertex 88.9279554475227 449.89914187557434 19.500000000000284
    vertex 88.9279554475227 449.89914187557434 17.500000000000377
  endloop
endfacet
facet normal 0.9238795325120611 -0.38268343236322044 0.0
  outer loop
    vertex 80.80274916660277 455.68854488031576 17.500000000000377
    vertex 80.72782384972449 455.50765916414207 19.500000000000284
    vertex 80.72782384972449 455.50765916414207 17.500000000000377
  endloop
endfacet
facet normal 0.9238795325120611 -0.38268343236322044 0.0
  outer loop
    vertex 80.72782384972449 455.50765916414207 19.500000000000284
    vertex 80.80274916660277 455.68854488031576 17.500000000000377
    vertex 80.80274916660277 455.68854488031576 19.500000000000284
  endloop
endfacet
facet normal -0.38268343236322044 -0.9238795325120611 0.0
  outer loop
    vertex 89.26417124958603 448.6443674199676 19.500000000000284
    vertex 89.08328553341234 448.7192927368459 17.500000000000377
    vertex 89.26417124958603 448.6443674199676 17.500000000000377
  endloop
endfacet
facet normal -0.38268343236322044 -0.9238795325120611 0.0
  outer loop
    vertex 89.08328553341234 448.7192927368459 17.500000000000377
    vertex 89.26417124958603 448.6443674199676 19.500000000000284
    vertex 89.08328553341234 448.7192927368459 19.500000000000284
  endloop
endfacet
facet normal 0.793353340291296 -0.6087614290086414 0.0
  outer loop
    vertex 67.48580825402352 450.75971514441693 19.500000000000284
    vertex 65.34040684895196 447.96377359839795 21.50000000000037
    vertex 65.34040684895196 447.96377359839795 19.500000000000284
  endloop
endfacet
facet normal 0.793353340291296 -0.6087614290086414 0.0
  outer loop
    vertex 65.34040684895196 447.96377359839795 21.50000000000037
    vertex 67.48580825402352 450.75971514441693 19.500000000000284
    vertex 67.48580825402352 450.75971514441693 21.50000000000037
  endloop
endfacet
facet normal 0.0 0.0 1.0
  outer loop
    vertex 61.25440757518433 443.7137735983982 21.50000000000037
    vertex 60.85249220970064 445.5489926038655 21.50000000000037
    vertex 60.61088104401061 443.7137735983982 21.50000000000037
  endloop
endfacet
facet normal 0.0 0.0 1.0
  outer loop
    vertex 60.85249220970064 445.5489926038655 21.50000000000037
    vertex 61.25440757518433 443.7137735983982 21.50000000000037
    vertex 62.525824286651876 449.5887735983983 21.50000000000037
  endloop
endfacet
facet normal 0.0 0.0 1.0
  outer loop
    vertex 62.525824286651876 449.5887735983983 21.50000000000037
    vertex 61.25440757518433 443.7137735983982 21.50000000000037
    vertex 63.86088104400987 443.7137735983982 21.50000000000037
  endloop
endfacet
facet normal 0.0 0.0 1.0
  outer loop
    vertex 62.525824286651876 449.5887735983983 21.50000000000037
    vertex 63.86088104400987 443.7137735983982 21.50000000000037
    vertex 63.99175114513994 444.7078307072816 21.50000000000037
  endloop
endfacet
facet normal 0.0 0.0 1.0
  outer loop
    vertex 62.525824286651876 449.5887735983983 21.50000000000037
    vertex 63.99175114513994 444.7078307072816 21.50000000000037
    vertex 65.18771121516669 453.05781218327223 21.50000000000037
  endloop
endfacet
facet normal 0.0 0.0 1.0
  outer loop
    vertex 65.18771121516669 453.05781218327223 21.50000000000037
    vertex 63.99175114513994 444.7078307072816 21.50000000000037
    vertex 64.53174980004242 446.0115027836102 21.50000000000037
  endloop
endfacet
facet normal 0.0 0.0 1.0
  outer loop
    vertex 65.18771121516669 453.05781218327223 21.50000000000037
    vertex 64.53174980004242 446.0115027836102 21.50000000000037
    vertex 65.34040684895196 447.96377359839795 21.50000000000037
  endloop
endfacet
facet normal 0.0 0.0 1.0
  outer loop
    vertex 65.18771121516669 453.05781218327223 21.50000000000037
    vertex 65.34040684895196 447.96377359839795 21.50000000000037
    vertex 68.65674980004219 455.71969911178707 21.50000000000037
  endloop
endfacet
facet normal 0.0 0.0 1.0
  outer loop
    vertex 68.65674980004219 455.71969911178707 21.50000000000037
    vertex 65.34040684895196 447.96377359839795 21.50000000000037
    vertex 67.48580825402352 450.75971514441693 21.50000000000037
  endloop
endfacet
facet normal 0.0 0.0 1.0
  outer loop
    vertex 68.65674980004219 455.71969911178707 21.50000000000037
    vertex 67.48580825402352 450.75971514441693 21.50000000000037
    vertex 70.28174980004255 452.9051165494884 21.50000000000037
  endloop
endfacet
facet normal 0.0 0.0 1.0
  outer loop
    vertex 68.65674980004219 455.71969911178707 21.50000000000037
    vertex 70.28174980004255 452.9051165494884 21.50000000000037
    vertex 72.69653079457497 457.39303118873977 21.50000000000037
  endloop
endfacet
facet normal 0.0 0.0 1.0
  outer loop
    vertex 72.69653079457497 457.39303118873977 21.50000000000037
    vertex 70.28174980004255 452.9051165494884 21.50000000000037
    vertex 72.23402061482888 453.71377359839795 21.50000000000037
  endloop
endfacet
facet normal 0.0 0.0 1.0
  outer loop
    vertex 72.69653079457497 457.39303118873977 21.50000000000037
    vertex 72.23402061482888 453.71377359839795 21.50000000000037
    vertex 72.88585665299388 453.9837729258499 21.50000000000037
  endloop
endfacet
facet normal 0.0 0.0 1.0
  outer loop
    vertex 72.69653079457497 457.39303118873977 21.50000000000037
    vertex 72.88585665299388 453.9837729258499 21.50000000000037
    vertex 77.03174980004246 457.96377359839846 21.50000000000037
  endloop
endfacet
facet normal 0.0 0.0 1.0
  outer loop
    vertex 77.03174980004246 457.96377359839846 21.50000000000037
    vertex 72.88585665299388 453.9837729258499 21.50000000000037
    vertex 73.53769269115743 454.25377225330044 21.50000000000037
  endloop
endfacet
facet normal 0.0 0.0 1.0
  outer loop
    vertex 77.03174980004246 457.96377359839846 21.50000000000037
    vertex 73.53769269115743 454.25377225330044 21.50000000000037
    vertex 75.51770803200075 454.5144462181835 21.50000000000037
  endloop
endfacet
facet normal 0.0 0.0 1.0
  outer loop
    vertex 77.03174980004246 457.96377359839846 21.50000000000037
    vertex 75.51770803200075 454.5144462181835 21.50000000000037
    vertex 77.03174980004246 454.7137735983977 21.50000000000037
  endloop
endfacet
facet normal 0.0 0.0 1.0
  outer loop
    vertex 77.03174980004246 457.96377359839846 21.50000000000037
    vertex 77.03174980004246 454.7137735983977 21.50000000000037
    vertex 80.52580690892604 454.25377225330044 21.50000000000037
  endloop
endfacet
facet normal 0.0 0.0 1.0
  outer loop
    vertex 77.03174980004246 457.96377359839846 21.50000000000037
    vertex 80.52580690892604 454.25377225330044 21.50000000000037
    vertex 81.3669688055085 457.39303118873977 21.50000000000037
  endloop
endfacet
facet normal 0.0 0.0 1.0
  outer loop
    vertex 81.3669688055085 457.39303118873977 21.50000000000037
    vertex 80.52580690892604 454.25377225330044 21.50000000000037
    vertex 81.8294789852546 453.71377359839795 21.50000000000037
  endloop
endfacet
facet normal 0.0 0.0 1.0
  outer loop
    vertex 81.3669688055085 457.39303118873977 21.50000000000037
    vertex 81.8294789852546 453.71377359839795 21.50000000000037
    vertex 85.40674980004128 455.71969911178707 21.50000000000037
  endloop
endfacet
facet normal 0.0 0.0 1.0
  outer loop
    vertex 85.40674980004128 455.71969911178707 21.50000000000037
    vertex 81.8294789852546 453.71377359839795 21.50000000000037
    vertex 83.78174980004236 452.9051165494884 21.50000000000037
  endloop
endfacet
facet normal 0.0 0.0 1.0
  outer loop
    vertex 85.40674980004128 455.71969911178707 21.50000000000037
    vertex 83.78174980004236 452.9051165494884 21.50000000000037
    vertex 86.57769134605995 450.75971514441693 21.50000000000037
  endloop
endfacet
facet normal 0.0 0.0 1.0
  outer loop
    vertex 85.40674980004128 455.71969911178707 21.50000000000037
    vertex 86.57769134605995 450.75971514441693 21.50000000000037
    vertex 88.87578838491679 453.05781218327223 21.50000000000037
  endloop
endfacet
facet normal 0.0 0.0 1.0
  outer loop
    vertex 88.87578838491679 453.05781218327223 21.50000000000037
    vertex 86.57769134605995 450.75971514441693 21.50000000000037
    vertex 88.72309275113152 447.96377359839795 21.50000000000037
  endloop
endfacet
facet normal 0.0 0.0 1.0
  outer loop
    vertex 88.87578838491679 453.05781218327223 21.50000000000037
    vertex 88.72309275113152 447.96377359839795 21.50000000000037
    vertex 89.5317498000425 446.0115027836102 21.50000000000037
  endloop
endfacet
facet normal 0.0 0.0 1.0
  outer loop
    vertex 88.87578838491679 453.05781218327223 21.50000000000037
    vertex 89.5317498000425 446.0115027836102 21.50000000000037
    vertex 91.53767531343159 449.5887735983983 21.50000000000037
  endloop
endfacet
facet normal 0.0 0.0 1.0
  outer loop
    vertex 91.53767531343159 449.5887735983983 21.50000000000037
    vertex 89.5317498000425 446.0115027836102 21.50000000000037
    vertex 90.07174845494353 444.7078307072816 21.50000000000037
  endloop
endfacet
facet normal 0.0 0.0 1.0
  outer loop
    vertex 91.53767531343159 449.5887735983983 21.50000000000037
    vertex 90.07174845494353 444.7078307072816 21.50000000000037
    vertex 90.2026185560736 443.7137735983982 21.50000000000037
  endloop
endfacet
facet normal 0.0 0.0 1.0
  outer loop
    vertex 91.53767531343159 449.5887735983983 21.50000000000037
    vertex 90.2026185560736 443.7137735983982 21.50000000000037
    vertex 92.80909202489914 443.7137735983982 21.50000000000037
  endloop
endfacet
facet normal 0.0 0.0 1.0
  outer loop
    vertex 91.53767531343159 449.5887735983983 21.50000000000037
    vertex 92.80909202489914 443.7137735983982 21.50000000000037
    vertex 93.21100739038428 445.5489926038655 21.50000000000037
  endloop
endfacet
facet normal 0.0 0.0 1.0
  outer loop
    vertex 93.21100739038428 445.5489926038655 21.50000000000037
    vertex 92.80909202489914 443.7137735983982 21.50000000000037
    vertex 93.45261855607286 443.7137735983982 21.50000000000037
  endloop
endfacet
facet normal -0.38268343236582764 0.9238795325109812 0.0
  outer loop
    vertex 79.70330479688637 456.53217821698166 19.500000000000284
    vertex 79.88419051305861 456.6071035338599 17.500000000000377
    vertex 79.70330479688637 456.53217821698166 17.500000000000377
  endloop
endfacet
facet normal -0.38268343236582764 0.9238795325109812 0.0
  outer loop
    vertex 79.88419051305861 456.6071035338599 17.500000000000377
    vertex 79.70330479688637 456.53217821698166 19.500000000000284
    vertex 79.88419051305861 456.6071035338599 19.500000000000284
  endloop
endfacet
facet normal -0.9238795325116277 -0.38268343236426683 0.0
  outer loop
    vertex 89.5317498000425 446.0115027836102 21.50000000000037
    vertex 90.07174845494353 444.7078307072816 19.500000000000284
    vertex 90.07174845494353 444.7078307072816 21.50000000000037
  endloop
endfacet
facet normal -0.9238795325116277 -0.38268343236426683 0.0
  outer loop
    vertex 90.07174845494353 444.7078307072816 19.500000000000284
    vertex 89.5317498000425 446.0115027836102 21.50000000000037
    vertex 89.5317498000425 446.0115027836102 19.500000000000284
  endloop
endfacet
facet normal -0.1305261922207445 0.9914448613737192 0.0
  outer loop
    vertex 89.26417124958603 450.0932561594013 19.500000000000284
    vertex 89.45828553341296 450.1188117896846 17.500000000000377
    vertex 89.26417124958603 450.0932561594013 17.500000000000377
  endloop
endfacet
facet normal -0.1305261922207445 0.9914448613737192 0.0
  outer loop
    vertex 89.45828553341296 450.1188117896846 17.500000000000377
    vertex 89.26417124958603 450.0932561594013 19.500000000000284
    vertex 89.45828553341296 450.1188117896846 19.500000000000284
  endloop
endfacet
facet normal 0.3826834323651402 -0.9238795325112659 0.0
  outer loop
    vertex 73.53769269115743 454.25377225330044 21.50000000000037
    vertex 72.88585665299388 453.9837729258499 19.500000000000284
    vertex 73.53769269115743 454.25377225330044 19.500000000000284
  endloop
endfacet
facet normal 0.3826834323651402 -0.9238795325112659 0.0
  outer loop
    vertex 72.88585665299388 453.9837729258499 19.500000000000284
    vertex 73.53769269115743 454.25377225330044 21.50000000000037
    vertex 72.23402061482888 453.71377359839795 19.500000000000284
  endloop
endfacet
facet normal 0.3826834323651402 -0.9238795325112659 0.0
  outer loop
    vertex 72.23402061482888 453.71377359839795 19.500000000000284
    vertex 73.53769269115743 454.25377225330044 21.50000000000037
    vertex 72.23402061482888 453.71377359839795 21.50000000000037
  endloop
endfacet
facet normal 0.3826834323651402 -0.9238795325112659 0.0
  outer loop
    vertex 72.23402061482888 453.71377359839795 21.50000000000037
    vertex 73.53769269115743 454.25377225330044 21.50000000000037
    vertex 72.88585665299388 453.9837729258499 21.50000000000037
  endloop
endfacet
facet normal -0.6087614290102064 0.7933533402900951 0.0
  outer loop
    vertex 79.54797471099674 456.412989250033 19.500000000000284
    vertex 79.70330479688637 456.53217821698166 17.500000000000377
    vertex 79.54797471099674 456.412989250033 17.500000000000377
  endloop
endfacet
facet normal -0.6087614290102064 0.7933533402900951 0.0
  outer loop
    vertex 79.70330479688637 456.53217821698166 17.500000000000377
    vertex 79.54797471099674 456.412989250033 19.500000000000284
    vertex 79.70330479688637 456.53217821698166 19.500000000000284
  endloop
endfacet
facet normal 0.9238795325112675 -0.38268343236513636 0.0
  outer loop
    vertex 63.08313461065871 449.2670103328107 -2.9999999999998197
    vertex 61.47409110606362 445.38243568156935 19.500000000000284
    vertex 61.47409110606359 445.38243568156935 -2.9999999999998197
  endloop
endfacet
facet normal 0.9238795325112675 -0.38268343236513636 0.0
  outer loop
    vertex 61.47409110606362 445.38243568156935 19.500000000000284
    vertex 63.08313461065871 449.2670103328107 -2.9999999999998197
    vertex 63.083134610658746 449.2670103328107 19.500000000000284
  endloop
endfacet
facet normal -0.9238795325120611 0.38268343236322044 0.0
  outer loop
    vertex 79.42878574404808 456.2576591641434 19.500000000000284
    vertex 79.35386042716979 456.0767734479697 17.500000000000377
    vertex 79.35386042716979 456.0767734479697 19.500000000000284
  endloop
endfacet
facet normal -0.9238795325120611 0.38268343236322044 0.0
  outer loop
    vertex 79.35386042716979 456.0767734479697 17.500000000000377
    vertex 79.42878574404808 456.2576591641434 19.500000000000284
    vertex 79.42878574404808 456.2576591641434 17.500000000000377
  endloop
endfacet
facet normal 0.9914448613738837 0.1305261922194956 0.0
  outer loop
    vertex 93.21100739038428 445.5489926038655 19.500000000000284
    vertex 93.45261855607286 443.7137735983982 21.50000000000037
    vertex 93.45261855607286 443.7137735983982 19.500000000000284
  endloop
endfacet
facet normal 0.9914448613738837 0.1305261922194956 0.0
  outer loop
    vertex 93.45261855607286 443.7137735983982 21.50000000000037
    vertex 93.21100739038428 445.5489926038655 19.500000000000284
    vertex 93.21100739038428 445.5489926038655 21.50000000000037
  endloop
endfacet
facet normal 0.1305261922171201 -0.9914448613741964 0.0
  outer loop
    vertex 89.65239981723991 448.6443674199676 19.500000000000284
    vertex 89.45828553341296 448.61881178968497 17.500000000000377
    vertex 89.65239981723991 448.6443674199676 17.500000000000377
  endloop
endfacet
facet normal 0.1305261922171201 -0.9914448613741964 0.0
  outer loop
    vertex 89.45828553341296 448.61881178968497 17.500000000000377
    vertex 89.65239981723991 448.6443674199676 19.500000000000284
    vertex 89.45828553341296 448.61881178968497 19.500000000000284
  endloop
endfacet
facet normal 0.608761429008647 0.7933533402912917 0.0
  outer loop
    vertex 85.40674980004128 455.71969911178707 21.50000000000037
    vertex 88.87578838491679 453.05781218327223 19.500000000000284
    vertex 85.40674980004128 455.71969911178707 19.500000000000284
  endloop
endfacet
facet normal 0.608761429008647 0.7933533402912917 0.0
  outer loop
    vertex 88.87578838491679 453.05781218327223 19.500000000000284
    vertex 85.40674980004128 455.71969911178707 21.50000000000037
    vertex 88.87578838491679 453.05781218327223 21.50000000000037
  endloop
endfacet
facet normal 0.0 0.0 -1.0
  outer loop
    vertex 79.35386042716979 456.0767734479697 17.500000000000377
    vertex 79.35386042716836 455.68854488031576 17.500000000000377
    vertex 79.32830479688573 455.8826591641427 17.500000000000377
  endloop
endfacet
facet normal 0.0 0.0 -1.0
  outer loop
    vertex 79.35386042716836 455.68854488031576 17.500000000000377
    vertex 79.35386042716979 456.0767734479697 17.500000000000377
    vertex 79.42878574404808 455.5076591641428 17.500000000000377
  endloop
endfacet
facet normal 0.0 0.0 -1.0
  outer loop
    vertex 79.42878574404808 455.5076591641428 17.500000000000377
    vertex 79.35386042716979 456.0767734479697 17.500000000000377
    vertex 79.42878574404808 456.2576591641434 17.500000000000377
  endloop
endfacet
facet normal 0.0 0.0 -1.0
  outer loop
    vertex 79.42878574404808 455.5076591641428 17.500000000000377
    vertex 79.42878574404808 456.2576591641434 17.500000000000377
    vertex 79.54797471099674 456.412989250033 17.500000000000377
  endloop
endfacet
facet normal 0.0 0.0 -1.0
  outer loop
    vertex 79.42878574404808 455.5076591641428 17.500000000000377
    vertex 79.54797471099674 456.412989250033 17.500000000000377
    vertex 79.54797471099529 455.35232907825247 17.500000000000377
  endloop
endfacet
facet normal 0.0 0.0 -1.0
  outer loop
    vertex 79.54797471099529 455.35232907825247 17.500000000000377
    vertex 79.54797471099674 456.412989250033 17.500000000000377
    vertex 79.70330479688637 455.2331401113045 17.500000000000377
  endloop
endfacet
facet normal 0.0 0.0 -1.0
  outer loop
    vertex 79.70330479688637 455.2331401113045 17.500000000000377
    vertex 79.54797471099674 456.412989250033 17.500000000000377
    vertex 79.70330479688637 456.53217821698166 17.500000000000377
  endloop
endfacet
facet normal 0.0 0.0 -1.0
  outer loop
    vertex 79.70330479688637 455.2331401113045 17.500000000000377
    vertex 79.70330479688637 456.53217821698166 17.500000000000377
    vertex 79.88419051305861 456.6071035338599 17.500000000000377
  endloop
endfacet
facet normal 0.0 0.0 -1.0
  outer loop
    vertex 79.70330479688637 455.2331401113045 17.500000000000377
    vertex 79.88419051305861 456.6071035338599 17.500000000000377
    vertex 79.88419051305861 455.15821479442553 17.500000000000377
  endloop
endfacet
facet normal 0.0 0.0 -1.0
  outer loop
    vertex 79.88419051305861 455.15821479442553 17.500000000000377
    vertex 79.88419051305861 456.6071035338599 17.500000000000377
    vertex 80.07830479688556 456.6326591641425 17.500000000000377
  endloop
endfacet
facet normal 0.0 0.0 -1.0
  outer loop
    vertex 79.88419051305861 455.15821479442553 17.500000000000377
    vertex 80.07830479688556 456.6326591641425 17.500000000000377
    vertex 80.07830479688556 455.13265916414286 17.500000000000377
  endloop
endfacet
facet normal 0.0 0.0 -1.0
  outer loop
    vertex 80.07830479688556 455.13265916414286 17.500000000000377
    vertex 80.07830479688556 456.6326591641425 17.500000000000377
    vertex 80.27241908071251 456.6071035338599 17.500000000000377
  endloop
endfacet
facet normal 0.0 0.0 -1.0
  outer loop
    vertex 80.07830479688556 455.13265916414286 17.500000000000377
    vertex 80.27241908071251 456.6071035338599 17.500000000000377
    vertex 80.27241908071251 455.15821479442553 17.500000000000377
  endloop
endfacet
facet normal 0.0 0.0 -1.0
  outer loop
    vertex 80.27241908071251 455.15821479442553 17.500000000000377
    vertex 80.27241908071251 456.6071035338599 17.500000000000377
    vertex 80.4533047968862 456.5321782169809 17.500000000000377
  endloop
endfacet
facet normal 0.0 0.0 -1.0
  outer loop
    vertex 80.27241908071251 455.15821479442553 17.500000000000377
    vertex 80.4533047968862 456.5321782169809 17.500000000000377
    vertex 80.4533047968862 455.2331401113038 17.500000000000377
  endloop
endfacet
facet normal 0.0 0.0 -1.0
  outer loop
    vertex 80.4533047968862 455.2331401113038 17.500000000000377
    vertex 80.4533047968862 456.5321782169809 17.500000000000377
    vertex 80.60863488277582 456.412989250033 17.500000000000377
  endloop
endfacet
facet normal 0.0 0.0 -1.0
  outer loop
    vertex 80.4533047968862 455.2331401113038 17.500000000000377
    vertex 80.60863488277582 456.412989250033 17.500000000000377
    vertex 80.60863488277582 455.35232907825247 17.500000000000377
  endloop
endfacet
facet normal 0.0 0.0 -1.0
  outer loop
    vertex 80.60863488277582 455.35232907825247 17.500000000000377
    vertex 80.60863488277582 456.412989250033 17.500000000000377
    vertex 80.72782384972449 456.25765916414264 17.500000000000377
  endloop
endfacet
facet normal 0.0 0.0 -1.0
  outer loop
    vertex 80.60863488277582 455.35232907825247 17.500000000000377
    vertex 80.72782384972449 456.25765916414264 17.500000000000377
    vertex 80.72782384972449 455.50765916414207 17.500000000000377
  endloop
endfacet
facet normal 0.0 0.0 -1.0
  outer loop
    vertex 80.72782384972449 455.50765916414207 17.500000000000377
    vertex 80.72782384972449 456.25765916414264 17.500000000000377
    vertex 80.80274916660277 456.0767734479697 17.500000000000377
  endloop
endfacet
facet normal 0.0 0.0 -1.0
  outer loop
    vertex 80.72782384972449 455.50765916414207 17.500000000000377
    vertex 80.80274916660277 456.0767734479697 17.500000000000377
    vertex 80.80274916660277 455.68854488031576 17.500000000000377
  endloop
endfacet
facet normal 0.0 0.0 -1.0
  outer loop
    vertex 80.80274916660277 455.68854488031576 17.500000000000377
    vertex 80.80274916660277 456.0767734479697 17.500000000000377
    vertex 80.82830479688539 455.8826591641427 17.500000000000377
  endloop
endfacet
facet normal -0.7933533402900951 -0.6087614290102064 0.0
  outer loop
    vertex 88.80876648057405 448.9938117896842 19.500000000000284
    vertex 88.9279554475227 448.8384817037945 17.500000000000377
    vertex 88.9279554475227 448.8384817037945 19.500000000000284
  endloop
endfacet
facet normal -0.7933533402900951 -0.6087614290102064 0.0
  outer loop
    vertex 88.9279554475227 448.8384817037945 17.500000000000377
    vertex 88.80876648057405 448.9938117896842 19.500000000000284
    vertex 88.80876648057405 448.9938117896842 17.500000000000377
  endloop
endfacet
facet normal 0.1305261922171201 -0.9914448613741964 0.0
  outer loop
    vertex 80.27241908071251 455.15821479442553 19.500000000000284
    vertex 80.07830479688556 455.13265916414286 17.500000000000377
    vertex 80.27241908071251 455.15821479442553 17.500000000000377
  endloop
endfacet
facet normal 0.1305261922171201 -0.9914448613741964 0.0
  outer loop
    vertex 80.07830479688556 455.13265916414286 17.500000000000377
    vertex 80.27241908071251 455.15821479442553 19.500000000000284
    vertex 80.07830479688556 455.13265916414286 19.500000000000284
  endloop
endfacet
facet normal -0.6087614290043241 -0.7933533402946087 0.0
  outer loop
    vertex 79.70330479688637 455.2331401113045 19.500000000000284
    vertex 79.54797471099529 455.35232907825247 17.500000000000377
    vertex 79.70330479688637 455.2331401113045 17.500000000000377
  endloop
endfacet
facet normal -0.6087614290043241 -0.7933533402946087 0.0
  outer loop
    vertex 79.54797471099529 455.35232907825247 17.500000000000377
    vertex 79.70330479688637 455.2331401113045 19.500000000000284
    vertex 79.54797471099529 455.35232907825247 19.500000000000284
  endloop
endfacet
facet normal 0.3826834323650374 -0.9238795325113085 0.0
  outer loop
    vertex 72.23402061482888 453.71377359839795 21.50000000000037
    vertex 70.28174980004255 452.9051165494884 19.500000000000284
    vertex 72.23402061482888 453.71377359839795 19.500000000000284
  endloop
endfacet
facet normal 0.3826834323650374 -0.9238795325113085 0.0
  outer loop
    vertex 70.28174980004255 452.9051165494884 19.500000000000284
    vertex 72.23402061482888 453.71377359839795 21.50000000000037
    vertex 70.28174980004255 452.9051165494884 21.50000000000037
  endloop
endfacet
facet normal 0.0 -1.0 0.0
  outer loop
    vertex 92.80909202489914 443.7137735983982 21.50000000000037
    vertex 90.2026185560736 443.7137735983982 19.500000000000284
    vertex 92.80909202489914 443.7137735983982 19.500000000000284
  endloop
endfacet
facet normal 0.0 -1.0 0.0
  outer loop
    vertex 90.2026185560736 443.7137735983982 19.500000000000284
    vertex 92.80909202489914 443.7137735983982 21.50000000000037
    vertex 90.2026185560736 443.7137735983982 21.50000000000037
  endloop
endfacet
facet normal -0.6087614290088392 -0.7933533402911441 0.0
  outer loop
    vertex 86.57769134605995 450.75971514441693 21.50000000000037
    vertex 83.78174980004236 452.9051165494884 19.500000000000284
    vertex 86.57769134605995 450.75971514441693 19.500000000000284
  endloop
endfacet
facet normal -0.6087614290088392 -0.7933533402911441 0.0
  outer loop
    vertex 83.78174980004236 452.9051165494884 19.500000000000284
    vertex 86.57769134605995 450.75971514441693 21.50000000000037
    vertex 83.78174980004236 452.9051165494884 21.50000000000037
  endloop
endfacet
facet normal 0.38268343236582764 -0.9238795325109812 0.0
  outer loop
    vertex 89.83328553341217 448.7192927368459 19.500000000000284
    vertex 89.65239981723991 448.6443674199676 17.500000000000377
    vertex 89.83328553341217 448.7192927368459 17.500000000000377
  endloop
endfacet
facet normal 0.38268343236582764 -0.9238795325109812 0.0
  outer loop
    vertex 89.65239981723991 448.6443674199676 17.500000000000377
    vertex 89.83328553341217 448.7192927368459 19.500000000000284
    vertex 89.65239981723991 448.6443674199676 19.500000000000284
  endloop
endfacet
facet normal 0.9238795325114085 -0.38268343236479585 0.0
  outer loop
    vertex 65.34040684895196 447.96377359839795 19.500000000000284
    vertex 64.53174980004242 446.0115027836102 21.50000000000037
    vertex 64.53174980004242 446.0115027836102 19.500000000000284
  endloop
endfacet
facet normal 0.9238795325114085 -0.38268343236479585 0.0
  outer loop
    vertex 64.53174980004242 446.0115027836102 21.50000000000037
    vertex 65.34040684895196 447.96377359839795 19.500000000000284
    vertex 65.34040684895196 447.96377359839795 21.50000000000037
  endloop
endfacet
facet normal -0.608761429008647 0.7933533402912918 0.0
  outer loop
    vertex 65.18771121516669 453.05781218327223 21.50000000000037
    vertex 68.65674980004216 455.71969911178707 -2.9999999999998197
    vertex 65.18771121516666 453.05781218327223 -2.9999999999998197
  endloop
endfacet
facet normal -0.608761429008647 0.7933533402912918 0.0
  outer loop
    vertex 68.65674980004216 455.71969911178707 -2.9999999999998197
    vertex 65.18771121516669 453.05781218327223 21.50000000000037
    vertex 68.65674980004219 455.71969911178707 21.50000000000037
  endloop
endfacet
facet normal 0.7933533402910522 -0.6087614290089591 1.2320900615644872e-18
  outer loop
    vertex 64.53174980004238 451.1548824030975 -2.9999999999996394
    vertex 63.083134610658746 449.2670103328107 19.500000000000284
    vertex 63.08313461065871 449.2670103328107 -2.9999999999998197
  endloop
endfacet
facet normal 0.7933533402910522 -0.6087614290089591 1.2320900615644872e-18
  outer loop
    vertex 63.083134610658746 449.2670103328107 19.500000000000284
    vertex 64.53174980004238 451.1548824030975 -2.9999999999996394
    vertex 64.53174980004242 451.1548824030975 19.500000000000284
  endloop
endfacet
facet normal 0.7933533402915626 -0.6087614290082939 -8.518241532397888e-19
  outer loop
    vertex 65.64275318923349 452.6027702092054 -2.9999999999998197
    vertex 64.53174980004242 451.1548824030975 19.500000000000284
    vertex 64.53174980004238 451.1548824030975 -2.9999999999996394
  endloop
endfacet
facet normal 0.7933533402915626 -0.6087614290082939 -8.518241532397888e-19
  outer loop
    vertex 64.53174980004242 451.1548824030975 19.500000000000284
    vertex 65.64275318923349 452.6027702092054 -2.9999999999998197
    vertex 65.64275318923352 452.6027702092054 19.500000000000284
  endloop
endfacet
facet normal 0.13052619221999723 -0.9914448613738177 0.0
  outer loop
    vertex 77.03174980004246 454.7137735983977 21.50000000000037
    vertex 75.51770803200075 454.5144462181835 19.500000000000284
    vertex 77.03174980004246 454.7137735983977 19.500000000000284
  endloop
endfacet
facet normal 0.13052619221999723 -0.9914448613738177 0.0
  outer loop
    vertex 75.51770803200075 454.5144462181835 19.500000000000284
    vertex 77.03174980004246 454.7137735983977 21.50000000000037
    vertex 75.51770803200075 454.5144462181835 21.50000000000037
  endloop
endfacet
facet normal -0.13052619221999207 -0.9914448613738184 0.0
  outer loop
    vertex 80.52580690892604 454.25377225330044 21.50000000000037
    vertex 77.03174980004246 454.7137735983977 19.500000000000284
    vertex 80.52580690892604 454.25377225330044 19.500000000000284
  endloop
endfacet
facet normal -0.13052619221999207 -0.9914448613738184 0.0
  outer loop
    vertex 77.03174980004246 454.7137735983977 19.500000000000284
    vertex 80.52580690892604 454.25377225330044 21.50000000000037
    vertex 77.03174980004246 454.7137735983977 21.50000000000037
  endloop
endfacet
facet normal 0.1305261922171201 0.9914448613741964 0.0
  outer loop
    vertex 80.07830479688556 456.6326591641425 19.500000000000284
    vertex 80.27241908071251 456.6071035338599 17.500000000000377
    vertex 80.07830479688556 456.6326591641425 17.500000000000377
  endloop
endfacet
facet normal 0.1305261922171201 0.9914448613741964 0.0
  outer loop
    vertex 80.27241908071251 456.6071035338599 17.500000000000377
    vertex 80.07830479688556 456.6326591641425 19.500000000000284
    vertex 80.27241908071251 456.6071035338599 19.500000000000284
  endloop
endfacet
endsolid v10
