solid v10
facet normal 0.847571529079971 -0.5306811689640398 0.0
  outer loop
    vertex 144.5140756464795 410.57857912670806 14.000000000000014
    vertex 143.9865800941816 409.7360954698698 28.00000000000002
    vertex 143.9865800941816 409.7360954698698 14.000000000000014
  endloop
endfacet
facet normal 0.847571529079971 -0.5306811689640398 0.0
  outer loop
    vertex 143.9865800941816 409.7360954698698 28.00000000000002
    vertex 144.5140756464795 410.57857912670806 14.000000000000014
    vertex 144.5140756464795 410.57857912670806 28.00000000000002
  endloop
endfacet
facet normal -0.672798177608403 0.7398260688883651 0.0
  outer loop
    vertex 118.7030963129765 417.15548407860445 28.00000000000002
    vertex 119.56884312698914 417.9427946414955 14.000000000000014
    vertex 118.7030963129765 417.15548407860445 14.000000000000014
  endloop
endfacet
facet normal -0.672798177608403 0.7398260688883651 0.0
  outer loop
    vertex 119.56884312698914 417.9427946414955 14.000000000000014
    vertex 118.7030963129765 417.15548407860445 28.00000000000002
    vertex 119.56884312698914 417.9427946414955 28.00000000000002
  endloop
endfacet
facet normal 0.8475715290797635 -0.5306811689643713 0.0
  outer loop
    vertex 145.08905979885537 411.4969086731981 14.000000000000014
    vertex 144.5140756464795 410.57857912670806 28.00000000000002
    vertex 144.5140756464795 410.57857912670806 14.000000000000014
  endloop
endfacet
facet normal 0.8475715290797635 -0.5306811689643713 0.0
  outer loop
    vertex 144.5140756464795 410.57857912670806 28.00000000000002
    vertex 145.08905979885537 411.4969086731981 14.000000000000014
    vertex 145.08905979885537 411.4969086731981 28.00000000000002
  endloop
endfacet
facet normal -0.3864418071956786 -0.922313791315807 0.0
  outer loop
    vertex 121.24308577006576 409.56839142116405 28.00000000000002
    vertex 120.25672614366815 409.9816679005564 14.000000000000014
    vertex 121.24308577006576 409.56839142116405 14.000000000000014
  endloop
endfacet
facet normal -0.3864418071956786 -0.922313791315807 0.0
  outer loop
    vertex 120.25672614366815 409.9816679005564 14.000000000000014
    vertex 121.24308577006576 409.56839142116405 28.00000000000002
    vertex 120.25672614366815 409.9816679005564 28.00000000000002
  endloop
endfacet
facet normal -0.9396526952132968 -0.3421298180199842 0.0
  outer loop
    vertex 117.70810074855513 413.27573287040417 28.00000000000002
    vertex 118.07398819668768 412.2708303197519 14.000000000000014
    vertex 118.07398819668768 412.2708303197519 28.00000000000002
  endloop
endfacet
facet normal -0.9396526952132968 -0.3421298180199842 0.0
  outer loop
    vertex 118.07398819668768 412.2708303197519 14.000000000000014
    vertex 117.70810074855513 413.27573287040417 28.00000000000002
    vertex 117.70810074855513 413.27573287040417 14.000000000000014
  endloop
endfacet
facet normal 0.728495208930649 -0.6850508963318639 0.0
  outer loop
    vertex 150.4768900136471 412.8100142994973 14.000000000000014
    vertex 148.3342456053296 410.5314884348363 28.00000000000002
    vertex 148.3342456053296 410.5314884348363 14.000000000000014
  endloop
endfacet
facet normal 0.728495208930649 -0.6850508963318639 0.0
  outer loop
    vertex 148.3342456053296 410.5314884348363 28.00000000000002
    vertex 150.4768900136471 412.8100142994973 14.000000000000014
    vertex 150.4768900136471 412.8100142994973 28.00000000000002
  endloop
endfacet
facet normal -1.045563788861693e-15 -6.691414890524051e-15 1.0
  outer loop
    vertex 133.50813319020395 420.42431313914085 25.0
    vertex 120.8899514089857 421.70441513914074 25.0
    vertex 120.8899514089857 420.42431313914085 25.0
  endloop
endfacet
facet normal -1.045563788861693e-15 -6.691414890524051e-15 1.0
  outer loop
    vertex 120.8899514089857 421.70441513914074 25.0
    vertex 133.50813319020395 420.42431313914085 25.0
    vertex 132.202165936627 421.01033278966617 25.00000000000002
  endloop
endfacet
facet normal -1.0 0.0 0.0
  outer loop
    vertex 120.8899514089857 420.42431313914085 28.00000000000002
    vertex 120.8899514089857 419.14421113914096 14.000000000000014
    vertex 120.8899514089857 419.14421113914096 28.00000000000002
  endloop
endfacet
facet normal -1.0 0.0 0.0
  outer loop
    vertex 120.8899514089857 419.14421113914096 14.000000000000014
    vertex 120.8899514089857 420.42431313914085 28.00000000000002
    vertex 120.8899514089857 420.42431313914085 25.0
  endloop
endfacet
facet normal -1.0 0.0 0.0
  outer loop
    vertex 120.8899514089857 419.14421113914096 14.000000000000014
    vertex 120.8899514089857 420.42431313914085 25.0
    vertex 120.8899514089857 421.70441513914074 14.000000000000014
  endloop
endfacet
facet normal -1.0 0.0 0.0
  outer loop
    vertex 120.8899514089857 421.70441513914074 14.000000000000014
    vertex 120.8899514089857 420.42431313914085 25.0
    vertex 120.8899514089857 421.70441513914074 25.0
  endloop
endfacet
facet normal -0.9999500309107184 -0.009996783565394083 4.1625207306666395e-20
  outer loop
    vertex 120.8459460376591 426.1061481696104 25.00000000000002
    vertex 120.8899514089857 421.70441513914074 14.000000000000014
    vertex 120.8899514089857 421.70441513914074 25.0
  endloop
endfacet
facet normal -0.9999500309107184 -0.009996783565394083 4.1625207306666395e-20
  outer loop
    vertex 120.8899514089857 421.70441513914074 14.000000000000014
    vertex 120.8459460376591 426.1061481696104 25.00000000000002
    vertex 120.8459460376591 426.1061481696104 14.000000000000014
  endloop
endfacet
facet normal 0.8475715290802446 -0.5306811689636031 0.0
  outer loop
    vertex 145.91122100275203 412.8100142994973 14.000000000000014
    vertex 145.08905979885537 411.4969086731981 28.00000000000002
    vertex 145.08905979885537 411.4969086731981 14.000000000000014
  endloop
endfacet
facet normal 0.8475715290802446 -0.5306811689636031 0.0
  outer loop
    vertex 145.08905979885537 411.4969086731981 28.00000000000002
    vertex 145.91122100275203 412.8100142994973 14.000000000000014
    vertex 145.91122100275203 412.8100142994973 28.00000000000002
  endloop
endfacet
facet normal -0.5671005841143931 -0.8236485461027138 0.0
  outer loop
    vertex 120.25672614366815 409.9816679005564 28.00000000000002
    vertex 119.37588311620028 410.58814817391294 14.000000000000014
    vertex 120.25672614366815 409.9816679005564 14.000000000000014
  endloop
endfacet
facet normal -0.5671005841143931 -0.8236485461027138 0.0
  outer loop
    vertex 119.37588311620028 410.58814817391294 14.000000000000014
    vertex 120.25672614366815 409.9816679005564 28.00000000000002
    vertex 119.37588311620028 410.58814817391294 28.00000000000002
  endloop
endfacet
facet normal -0.8496930929666627 -0.5272775813219698 0.0
  outer loop
    vertex 118.07398819668768 412.2708303197519 28.00000000000002
    vertex 118.63788014216023 411.3621342017674 14.000000000000014
    vertex 118.63788014216023 411.3621342017674 28.00000000000002
  endloop
endfacet
facet normal -0.8496930929666627 -0.5272775813219698 0.0
  outer loop
    vertex 118.63788014216023 411.3621342017674 14.000000000000014
    vertex 118.07398819668768 412.2708303197519 28.00000000000002
    vertex 118.07398819668768 412.2708303197519 14.000000000000014
  endloop
endfacet
facet normal -2.3101637582900116e-15 -5.1482884849048115e-15 1.0
  outer loop
    vertex 132.202165936627 421.01033278966617 25.00000000000002
    vertex 120.8459460376591 426.1061481696104 25.00000000000002
    vertex 120.8899514089857 421.70441513914074 25.0
  endloop
endfacet
facet normal -0.6727981776089828 0.7398260688878378 0.0
  outer loop
    vertex 120.43592774735018 418.7313218061131 28.00000000000002
    vertex 120.8899514089857 419.14421113914096 14.000000000000014
    vertex 120.43592774735018 418.7313218061131 14.000000000000014
  endloop
endfacet
facet normal -0.6727981776089828 0.7398260688878378 0.0
  outer loop
    vertex 120.8899514089857 419.14421113914096 14.000000000000014
    vertex 120.43592774735018 418.7313218061131 28.00000000000002
    vertex 120.8899514089857 419.14421113914096 28.00000000000002
  endloop
endfacet
facet normal -0.9980010786461196 0.06319689091388885 0.0
  outer loop
    vertex 117.62330664401205 415.4015643654226 28.00000000000002
    vertex 117.55572133595496 414.3342616964747 14.000000000000014
    vertex 117.55572133595496 414.3342616964747 28.00000000000002
  endloop
endfacet
facet normal -0.9980010786461196 0.06319689091388885 0.0
  outer loop
    vertex 117.55572133595496 414.3342616964747 14.000000000000014
    vertex 117.62330664401205 415.4015643654226 28.00000000000002
    vertex 117.62330664401205 415.4015643654226 14.000000000000014
  endloop
endfacet
facet normal -0.9897969347707357 -0.1424851849086638 0.0
  outer loop
    vertex 117.55572133595496 414.3342616964747 28.00000000000002
    vertex 117.70810074855513 413.27573287040417 14.000000000000014
    vertex 117.70810074855513 413.27573287040417 28.00000000000002
  endloop
endfacet
facet normal -0.9897969347707357 -0.1424851849086638 0.0
  outer loop
    vertex 117.70810074855513 413.27573287040417 14.000000000000014
    vertex 117.55572133595496 414.3342616964747 28.00000000000002
    vertex 117.55572133595496 414.3342616964747 14.000000000000014
  endloop
endfacet
facet normal -0.672798177608121 0.7398260688886216 0.0
  outer loop
    vertex 119.56884312698914 417.9427946414955 28.00000000000002
    vertex 120.43592774735018 418.7313218061131 14.000000000000014
    vertex 119.56884312698914 417.9427946414955 14.000000000000014
  endloop
endfacet
facet normal -0.672798177608121 0.7398260688886216 0.0
  outer loop
    vertex 120.43592774735018 418.7313218061131 14.000000000000014
    vertex 119.56884312698914 417.9427946414955 28.00000000000002
    vertex 120.43592774735018 418.7313218061131 28.00000000000002
  endloop
endfacet
facet normal -0.6727981776081283 0.7398260688886149 0.0
  outer loop
    vertex 117.90799291937661 416.4324166757111 28.00000000000002
    vertex 118.7030963129765 417.15548407860445 14.000000000000014
    vertex 117.90799291937661 416.4324166757111 14.000000000000014
  endloop
endfacet
facet normal -0.6727981776081283 0.7398260688886149 0.0
  outer loop
    vertex 118.7030963129765 417.15548407860445 14.000000000000014
    vertex 117.90799291937661 416.4324166757111 28.00000000000002
    vertex 118.7030963129765 417.15548407860445 28.00000000000002
  endloop
endfacet
facet normal -0.1894085540563151 -0.9818983652345572 0.0
  outer loop
    vertex 122.29316754680362 409.3658302620717 28.00000000000002
    vertex 121.24308577006576 409.56839142116405 14.000000000000014
    vertex 122.29316754680362 409.3658302620717 14.000000000000014
  endloop
endfacet
facet normal -0.1894085540563151 -0.9818983652345572 0.0
  outer loop
    vertex 121.24308577006576 409.56839142116405 14.000000000000014
    vertex 122.29316754680362 409.3658302620717 28.00000000000002
    vertex 121.24308577006576 409.56839142116405 28.00000000000002
  endloop
endfacet
facet normal -0.9639174973740892 0.2662011612598127 0.0
  outer loop
    vertex 117.90799291937661 416.4324166757111 28.00000000000002
    vertex 117.62330664401205 415.4015643654226 14.000000000000014
    vertex 117.62330664401205 415.4015643654226 28.00000000000002
  endloop
endfacet
facet normal -0.9639174973740892 0.2662011612598127 0.0
  outer loop
    vertex 117.62330664401205 415.4015643654226 14.000000000000014
    vertex 117.90799291937661 416.4324166757111 28.00000000000002
    vertex 117.90799291937661 416.4324166757111 14.000000000000014
  endloop
endfacet
facet normal 0.0 1.0 0.0
  outer loop
    vertex 120.8899514089857 420.42431313914085 28.00000000000002
    vertex 133.50813319020395 420.42431313914085 25.0
    vertex 120.8899514089857 420.42431313914085 25.0
  endloop
endfacet
facet normal 0.0 1.0 0.0
  outer loop
    vertex 133.50813319020395 420.42431313914085 25.0
    vertex 120.8899514089857 420.42431313914085 28.00000000000002
    vertex 133.50813319020395 420.42431313914085 28.00000000000002
  endloop
endfacet
facet normal 0.0 -1.0 0.0
  outer loop
    vertex 143.75474978068078 409.3658302620717 28.00000000000002
    vertex 122.29316754680362 409.3658302620717 14.000000000000014
    vertex 143.75474978068078 409.3658302620717 14.000000000000014
  endloop
endfacet
facet normal 0.0 -1.0 0.0
  outer loop
    vertex 122.29316754680362 409.3658302620717 14.000000000000014
    vertex 143.75474978068078 409.3658302620717 28.00000000000002
    vertex 122.29316754680362 409.3658302620717 28.00000000000002
  endloop
endfacet
facet normal 0.0 0.0 -1.0
  outer loop
    vertex 150.4768900136471 412.8100142994973 14.000000000000014
    vertex 120.8899514089857 421.70441513914074 14.000000000000014
    vertex 120.8459460376591 426.1061481696104 14.000000000000014
  endloop
endfacet
facet normal 0.0 0.0 -1.0
  outer loop
    vertex 120.8899514089857 421.70441513914074 14.000000000000014
    vertex 150.4768900136471 412.8100142994973 14.000000000000014
    vertex 120.8899514089857 419.14421113914096 14.000000000000014
  endloop
endfacet
facet normal 0.0 0.0 -1.0
  outer loop
    vertex 120.8899514089857 419.14421113914096 14.000000000000014
    vertex 150.4768900136471 412.8100142994973 14.000000000000014
    vertex 145.91122100275203 412.8100142994973 14.000000000000014
  endloop
endfacet
facet normal 0.0 0.0 -1.0
  outer loop
    vertex 120.8899514089857 419.14421113914096 14.000000000000014
    vertex 145.91122100275203 412.8100142994973 14.000000000000014
    vertex 121.24308577006576 409.56839142116405 14.000000000000014
  endloop
endfacet
facet normal 0.0 0.0 -1.0
  outer loop
    vertex 121.24308577006576 409.56839142116405 14.000000000000014
    vertex 145.91122100275203 412.8100142994973 14.000000000000014
    vertex 122.29316754680362 409.3658302620717 14.000000000000014
  endloop
endfacet
facet normal 0.0 0.0 -1.0
  outer loop
    vertex 122.29316754680362 409.3658302620717 14.000000000000014
    vertex 145.91122100275203 412.8100142994973 14.000000000000014
    vertex 143.75474978068078 409.3658302620717 14.000000000000014
  endloop
endfacet
facet normal 0.0 0.0 -1.0
  outer loop
    vertex 143.75474978068078 409.3658302620717 14.000000000000014
    vertex 145.91122100275203 412.8100142994973 14.000000000000014
    vertex 143.9865800941816 409.7360954698698 14.000000000000014
  endloop
endfacet
facet normal 0.0 0.0 -1.0
  outer loop
    vertex 143.9865800941816 409.7360954698698 14.000000000000014
    vertex 145.91122100275203 412.8100142994973 14.000000000000014
    vertex 144.5140756464795 410.57857912670806 14.000000000000014
  endloop
endfacet
facet normal 0.0 0.0 -1.0
  outer loop
    vertex 144.5140756464795 410.57857912670806 14.000000000000014
    vertex 145.91122100275203 412.8100142994973 14.000000000000014
    vertex 145.08905979885537 411.4969086731981 14.000000000000014
  endloop
endfacet
facet normal 0.0 0.0 -1.0
  outer loop
    vertex 145.91122100275203 412.8100142994973 14.000000000000014
    vertex 150.4768900136471 412.8100142994973 14.000000000000014
    vertex 148.3342456053296 410.5314884348363 14.000000000000014
  endloop
endfacet
facet normal 0.0 0.0 -1.0
  outer loop
    vertex 117.62330664401205 415.4015643654226 14.000000000000014
    vertex 117.70810074855513 413.27573287040417 14.000000000000014
    vertex 117.55572133595496 414.3342616964747 14.000000000000014
  endloop
endfacet
facet normal 0.0 0.0 -1.0
  outer loop
    vertex 117.70810074855513 413.27573287040417 14.000000000000014
    vertex 117.62330664401205 415.4015643654226 14.000000000000014
    vertex 117.90799291937661 416.4324166757111 14.000000000000014
  endloop
endfacet
facet normal 0.0 0.0 -1.0
  outer loop
    vertex 117.70810074855513 413.27573287040417 14.000000000000014
    vertex 117.90799291937661 416.4324166757111 14.000000000000014
    vertex 118.07398819668768 412.2708303197519 14.000000000000014
  endloop
endfacet
facet normal 0.0 0.0 -1.0
  outer loop
    vertex 118.07398819668768 412.2708303197519 14.000000000000014
    vertex 117.90799291937661 416.4324166757111 14.000000000000014
    vertex 118.7030963129765 417.15548407860445 14.000000000000014
  endloop
endfacet
facet normal 0.0 0.0 -1.0
  outer loop
    vertex 118.07398819668768 412.2708303197519 14.000000000000014
    vertex 118.7030963129765 417.15548407860445 14.000000000000014
    vertex 118.63788014216023 411.3621342017674 14.000000000000014
  endloop
endfacet
facet normal 0.0 0.0 -1.0
  outer loop
    vertex 118.63788014216023 411.3621342017674 14.000000000000014
    vertex 118.7030963129765 417.15548407860445 14.000000000000014
    vertex 119.37588311620028 410.58814817391294 14.000000000000014
  endloop
endfacet
facet normal 0.0 0.0 -1.0
  outer loop
    vertex 119.37588311620028 410.58814817391294 14.000000000000014
    vertex 118.7030963129765 417.15548407860445 14.000000000000014
    vertex 119.56884312698914 417.9427946414955 14.000000000000014
  endloop
endfacet
facet normal 0.0 0.0 -1.0
  outer loop
    vertex 119.37588311620028 410.58814817391294 14.000000000000014
    vertex 119.56884312698914 417.9427946414955 14.000000000000014
    vertex 120.25672614366815 409.9816679005564 14.000000000000014
  endloop
endfacet
facet normal 0.0 0.0 -1.0
  outer loop
    vertex 120.25672614366815 409.9816679005564 14.000000000000014
    vertex 119.56884312698914 417.9427946414955 14.000000000000014
    vertex 120.43592774735018 418.7313218061131 14.000000000000014
  endloop
endfacet
facet normal 0.0 0.0 -1.0
  outer loop
    vertex 120.25672614366815 409.9816679005564 14.000000000000014
    vertex 120.43592774735018 418.7313218061131 14.000000000000014
    vertex 121.24308577006576 409.56839142116405 14.000000000000014
  endloop
endfacet
facet normal 0.0 0.0 -1.0
  outer loop
    vertex 121.24308577006576 409.56839142116405 14.000000000000014
    vertex 120.43592774735018 418.7313218061131 14.000000000000014
    vertex 120.8899514089857 419.14421113914096 14.000000000000014
  endloop
endfacet
facet normal -0.6850508963319016 -0.7284952089306136 0.0
  outer loop
    vertex 148.3342456053296 410.5314884348363 28.00000000000002
    vertex 145.91122100275203 412.8100142994973 14.000000000000014
    vertex 148.3342456053296 410.5314884348363 14.000000000000014
  endloop
endfacet
facet normal -0.6850508963319016 -0.7284952089306136 0.0
  outer loop
    vertex 145.91122100275203 412.8100142994973 14.000000000000014
    vertex 148.3342456053296 410.5314884348363 28.00000000000002
    vertex 145.91122100275203 412.8100142994973 28.00000000000002
  endloop
endfacet
facet normal 0.0 0.0 1.0
  outer loop
    vertex 117.70810074855513 413.27573287040417 28.00000000000002
    vertex 117.62330664401205 415.4015643654226 28.00000000000002
    vertex 117.55572133595496 414.3342616964747 28.00000000000002
  endloop
endfacet
facet normal 0.0 0.0 1.0
  outer loop
    vertex 117.62330664401205 415.4015643654226 28.00000000000002
    vertex 117.70810074855513 413.27573287040417 28.00000000000002
    vertex 117.90799291937661 416.4324166757111 28.00000000000002
  endloop
endfacet
facet normal 0.0 0.0 1.0
  outer loop
    vertex 117.90799291937661 416.4324166757111 28.00000000000002
    vertex 117.70810074855513 413.27573287040417 28.00000000000002
    vertex 118.07398819668768 412.2708303197519 28.00000000000002
  endloop
endfacet
facet normal 0.0 0.0 1.0
  outer loop
    vertex 117.90799291937661 416.4324166757111 28.00000000000002
    vertex 118.07398819668768 412.2708303197519 28.00000000000002
    vertex 118.7030963129765 417.15548407860445 28.00000000000002
  endloop
endfacet
facet normal 0.0 0.0 1.0
  outer loop
    vertex 118.7030963129765 417.15548407860445 28.00000000000002
    vertex 118.07398819668768 412.2708303197519 28.00000000000002
    vertex 118.63788014216023 411.3621342017674 28.00000000000002
  endloop
endfacet
facet normal 0.0 0.0 1.0
  outer loop
    vertex 118.7030963129765 417.15548407860445 28.00000000000002
    vertex 118.63788014216023 411.3621342017674 28.00000000000002
    vertex 119.37588311620028 410.58814817391294 28.00000000000002
  endloop
endfacet
facet normal 0.0 0.0 1.0
  outer loop
    vertex 118.7030963129765 417.15548407860445 28.00000000000002
    vertex 119.37588311620028 410.58814817391294 28.00000000000002
    vertex 119.56884312698914 417.9427946414955 28.00000000000002
  endloop
endfacet
facet normal 0.0 0.0 1.0
  outer loop
    vertex 119.56884312698914 417.9427946414955 28.00000000000002
    vertex 119.37588311620028 410.58814817391294 28.00000000000002
    vertex 120.25672614366815 409.9816679005564 28.00000000000002
  endloop
endfacet
facet normal 0.0 0.0 1.0
  outer loop
    vertex 119.56884312698914 417.9427946414955 28.00000000000002
    vertex 120.25672614366815 409.9816679005564 28.00000000000002
    vertex 120.43592774735018 418.7313218061131 28.00000000000002
  endloop
endfacet
facet normal 0.0 0.0 1.0
  outer loop
    vertex 120.43592774735018 418.7313218061131 28.00000000000002
    vertex 120.25672614366815 409.9816679005564 28.00000000000002
    vertex 121.24308577006576 409.56839142116405 28.00000000000002
  endloop
endfacet
facet normal 0.0 0.0 1.0
  outer loop
    vertex 120.43592774735018 418.7313218061131 28.00000000000002
    vertex 121.24308577006576 409.56839142116405 28.00000000000002
    vertex 120.8899514089857 419.14421113914096 28.00000000000002
  endloop
endfacet
facet normal 0.0 0.0 1.0
  outer loop
    vertex 120.8899514089857 419.14421113914096 28.00000000000002
    vertex 121.24308577006576 409.56839142116405 28.00000000000002
    vertex 120.8899514089857 420.42431313914085 28.00000000000002
  endloop
endfacet
facet normal 0.0 0.0 1.0
  outer loop
    vertex 120.8899514089857 420.42431313914085 28.00000000000002
    vertex 121.24308577006576 409.56839142116405 28.00000000000002
    vertex 133.50813319020395 420.42431313914085 28.00000000000002
  endloop
endfacet
facet normal 0.0 0.0 1.0
  outer loop
    vertex 133.50813319020395 420.42431313914085 28.00000000000002
    vertex 121.24308577006576 409.56839142116405 28.00000000000002
    vertex 122.29316754680362 409.3658302620717 28.00000000000002
  endloop
endfacet
facet normal 0.0 0.0 1.0
  outer loop
    vertex 133.50813319020395 420.42431313914085 28.00000000000002
    vertex 122.29316754680362 409.3658302620717 28.00000000000002
    vertex 143.75474978068078 409.3658302620717 28.00000000000002
  endloop
endfacet
facet normal 0.0 0.0 1.0
  outer loop
    vertex 133.50813319020395 420.42431313914085 28.00000000000002
    vertex 143.75474978068078 409.3658302620717 28.00000000000002
    vertex 145.91122100275203 412.8100142994973 28.00000000000002
  endloop
endfacet
facet normal 0.0 0.0 1.0
  outer loop
    vertex 133.50813319020395 420.42431313914085 28.00000000000002
    vertex 145.91122100275203 412.8100142994973 28.00000000000002
    vertex 150.4768900136471 412.8100142994973 28.00000000000002
  endloop
endfacet
facet normal 0.0 0.0 1.0
  outer loop
    vertex 145.91122100275203 412.8100142994973 28.00000000000002
    vertex 143.75474978068078 409.3658302620717 28.00000000000002
    vertex 143.9865800941816 409.7360954698698 28.00000000000002
  endloop
endfacet
facet normal 0.0 0.0 1.0
  outer loop
    vertex 145.91122100275203 412.8100142994973 28.00000000000002
    vertex 143.9865800941816 409.7360954698698 28.00000000000002
    vertex 144.5140756464795 410.57857912670806 28.00000000000002
  endloop
endfacet
facet normal 0.0 0.0 1.0
  outer loop
    vertex 145.91122100275203 412.8100142994973 28.00000000000002
    vertex 144.5140756464795 410.57857912670806 28.00000000000002
    vertex 145.08905979885537 411.4969086731981 28.00000000000002
  endloop
endfacet
facet normal 0.0 0.0 1.0
  outer loop
    vertex 150.4768900136471 412.8100142994973 28.00000000000002
    vertex 145.91122100275203 412.8100142994973 28.00000000000002
    vertex 148.3342456053296 410.5314884348363 28.00000000000002
  endloop
endfacet
facet normal 0.8475715290800055 -0.5306811689639849 0.0
  outer loop
    vertex 143.9865800941816 409.7360954698698 14.000000000000014
    vertex 143.75474978068078 409.3658302620717 28.00000000000002
    vertex 143.75474978068078 409.3658302620717 14.000000000000014
  endloop
endfacet
facet normal 0.8475715290800055 -0.5306811689639849 0.0
  outer loop
    vertex 143.75474978068078 409.3658302620717 28.00000000000002
    vertex 143.9865800941816 409.7360954698698 14.000000000000014
    vertex 143.9865800941816 409.7360954698698 28.00000000000002
  endloop
endfacet
facet normal 0.4093967893439572 0.9123564374052827 -2.4466925294742018e-14
  outer loop
    vertex 120.8459460376591 426.1061481696104 25.00000000000002
    vertex 150.4768900136471 412.8100142994973 14.000000000000014
    vertex 120.8459460376591 426.1061481696104 14.000000000000014
  endloop
endfacet
facet normal 0.4093967893439572 0.9123564374052827 -2.4466925294742018e-14
  outer loop
    vertex 150.4768900136471 412.8100142994973 14.000000000000014
    vertex 120.8459460376591 426.1061481696104 25.00000000000002
    vertex 133.50813319020395 420.42431313914085 25.0
  endloop
endfacet
facet normal 0.4093967893439572 0.9123564374052827 -2.4466925294742018e-14
  outer loop
    vertex 133.50813319020395 420.42431313914085 25.0
    vertex 120.8459460376591 426.1061481696104 25.00000000000002
    vertex 132.202165936627 421.01033278966617 25.00000000000002
  endloop
endfacet
facet normal 0.4093967893439572 0.9123564374052827 -2.4466925294742018e-14
  outer loop
    vertex 133.50813319020395 420.42431313914085 25.0
    vertex 150.4768900136471 412.8100142994973 28.00000000000002
    vertex 150.4768900136471 412.8100142994973 14.000000000000014
  endloop
endfacet
facet normal 0.4093967893439572 0.9123564374052827 -2.4466925294742018e-14
  outer loop
    vertex 150.4768900136471 412.8100142994973 28.00000000000002
    vertex 133.50813319020395 420.42431313914085 25.0
    vertex 133.50813319020395 420.42431313914085 28.00000000000002
  endloop
endfacet
facet normal -0.7237299344693702 -0.6900833152257496 0.0
  outer loop
    vertex 118.63788014216023 411.3621342017674 28.00000000000002
    vertex 119.37588311620028 410.58814817391294 14.000000000000014
    vertex 119.37588311620028 410.58814817391294 28.00000000000002
  endloop
endfacet
facet normal -0.7237299344693702 -0.6900833152257496 0.0
  outer loop
    vertex 119.37588311620028 410.58814817391294 14.000000000000014
    vertex 118.63788014216023 411.3621342017674 28.00000000000002
    vertex 118.63788014216023 411.3621342017674 14.000000000000014
  endloop
endfacet
endsolid v10
