solid v10
facet normal 0.4093967893439539 -0.9123564374052842 -5.938498221690383e-16
  outer loop
    vertex 140.72329123701948 475.88758502842876 28.0
    vertex 111.09234726103149 462.5914511583157 14.000000000000014
    vertex 140.72329123701948 475.88758502842876 14.000000000000014
  endloop
endfacet
facet normal 0.4093967893439539 -0.9123564374052842 -5.938498221690383e-16
  outer loop
    vertex 111.09234726103149 462.5914511583157 14.000000000000014
    vertex 140.72329123701948 475.88758502842876 28.0
    vertex 126.6072907874285 469.55338818878585 25.0
  endloop
endfacet
facet normal 0.4093967893439539 -0.9123564374052842 -5.938498221690383e-16
  outer loop
    vertex 126.6072907874285 469.55338818878585 25.0
    vertex 140.72329123701948 475.88758502842876 28.0
    vertex 126.6072907874285 469.55338818878585 28.0
  endloop
endfacet
facet normal 0.4093967893439539 -0.9123564374052842 -5.938498221690383e-16
  outer loop
    vertex 126.6072907874285 469.55338818878585 25.0
    vertex 111.09234726103149 462.5914511583157 25.0
    vertex 111.09234726103149 462.5914511583157 14.000000000000014
  endloop
endfacet
facet normal 0.4093967893439539 -0.9123564374052842 -5.938498221690383e-16
  outer loop
    vertex 111.09234726103149 462.5914511583157 25.0
    vertex 126.6072907874285 469.55338818878585 25.0
    vertex 122.44856715999939 467.68726653826064 25.0
  endloop
endfacet
facet normal 0.8475715290800055 0.5306811689639849 0.0
  outer loop
    vertex 134.00115100405316 479.33176906585436 14.000000000000014
    vertex 134.23298131755396 478.9615038580563 28.0
    vertex 134.23298131755396 478.9615038580563 14.000000000000014
  endloop
endfacet
facet normal 0.8475715290800055 0.5306811689639849 0.0
  outer loop
    vertex 134.23298131755396 478.9615038580563 28.0
    vertex 134.00115100405316 479.33176906585436 14.000000000000014
    vertex 134.00115100405316 479.33176906585436 28.0
  endloop
endfacet
facet normal -0.6727981776081283 -0.7398260688886149 0.0
  outer loop
    vertex 108.94949753634889 471.54211524932236 28.0
    vertex 108.154394142749 472.2651826522157 14.000000000000014
    vertex 108.94949753634889 471.54211524932236 14.000000000000014
  endloop
endfacet
facet normal -0.6727981776081283 -0.7398260688886149 0.0
  outer loop
    vertex 108.154394142749 472.2651826522157 14.000000000000014
    vertex 108.94949753634889 471.54211524932236 28.0
    vertex 108.154394142749 472.2651826522157 28.0
  endloop
endfacet
facet normal 0.0 -1.0 0.0
  outer loop
    vertex 126.6072907874285 469.55338818878585 28.0
    vertex 111.13635263235807 469.55338818878585 25.0
    vertex 126.6072907874285 469.55338818878585 25.0
  endloop
endfacet
facet normal 0.0 -1.0 0.0
  outer loop
    vertex 111.13635263235807 469.55338818878585 25.0
    vertex 126.6072907874285 469.55338818878585 28.0
    vertex 111.13635263235807 469.55338818878585 28.0
  endloop
endfacet
facet normal -0.6850508963319016 0.7284952089306136 0.0
  outer loop
    vertex 136.15762222612443 475.88758502842876 28.0
    vertex 138.580646828702 478.16611089308975 14.000000000000014
    vertex 136.15762222612443 475.88758502842876 14.000000000000014
  endloop
endfacet
facet normal -0.6850508963319016 0.7284952089306136 0.0
  outer loop
    vertex 138.580646828702 478.16611089308975 14.000000000000014
    vertex 136.15762222612443 475.88758502842876 28.0
    vertex 138.580646828702 478.16611089308975 28.0
  endloop
endfacet
facet normal 0.0 0.0 1.0
  outer loop
    vertex 122.44856715999939 467.68726653826064 25.0
    vertex 111.13635263235807 469.55338818878585 25.0
    vertex 111.13635263235807 466.99318418878534 25.0
  endloop
endfacet
facet normal 0.0 0.0 1.0
  outer loop
    vertex 111.13635263235807 469.55338818878585 25.0
    vertex 122.44856715999939 467.68726653826064 25.0
    vertex 126.6072907874285 469.55338818878585 25.0
  endloop
endfacet
facet normal 0.0 0.0 -1.0
  outer loop
    vertex 107.9545019719275 475.42186645752264 14.000000000000014
    vertex 107.86970786738442 473.2960349625035 14.000000000000014
    vertex 107.80212255932734 474.3633376314514 14.000000000000014
  endloop
endfacet
facet normal 0.0 0.0 -1.0
  outer loop
    vertex 107.86970786738442 473.2960349625035 14.000000000000014
    vertex 107.9545019719275 475.42186645752264 14.000000000000014
    vertex 108.154394142749 472.2651826522157 14.000000000000014
  endloop
endfacet
facet normal 0.0 0.0 -1.0
  outer loop
    vertex 108.154394142749 472.2651826522157 14.000000000000014
    vertex 107.9545019719275 475.42186645752264 14.000000000000014
    vertex 108.32038942006007 476.4267690081742 14.000000000000014
  endloop
endfacet
facet normal 0.0 0.0 -1.0
  outer loop
    vertex 108.154394142749 472.2651826522157 14.000000000000014
    vertex 108.32038942006007 476.4267690081742 14.000000000000014
    vertex 108.94949753634889 471.54211524932236 14.000000000000014
  endloop
endfacet
facet normal 0.0 0.0 -1.0
  outer loop
    vertex 108.94949753634889 471.54211524932236 14.000000000000014
    vertex 108.32038942006007 476.4267690081742 14.000000000000014
    vertex 108.8842813655326 477.3354651261587 14.000000000000014
  endloop
endfacet
facet normal 0.0 0.0 -1.0
  outer loop
    vertex 108.94949753634889 471.54211524932236 14.000000000000014
    vertex 108.8842813655326 477.3354651261587 14.000000000000014
    vertex 109.62228433957266 478.10945115401387 14.000000000000014
  endloop
endfacet
facet normal 0.0 0.0 -1.0
  outer loop
    vertex 108.94949753634889 471.54211524932236 14.000000000000014
    vertex 109.62228433957266 478.10945115401387 14.000000000000014
    vertex 109.81524435036151 470.7548046864306 14.000000000000014
  endloop
endfacet
facet normal 0.0 0.0 -1.0
  outer loop
    vertex 109.81524435036151 470.7548046864306 14.000000000000014
    vertex 109.62228433957266 478.10945115401387 14.000000000000014
    vertex 110.50312736704052 478.71593142737044 14.000000000000014
  endloop
endfacet
facet normal 0.0 0.0 -1.0
  outer loop
    vertex 109.81524435036151 470.7548046864306 14.000000000000014
    vertex 110.50312736704052 478.71593142737044 14.000000000000014
    vertex 110.68232897072255 469.9662775218137 14.000000000000014
  endloop
endfacet
facet normal 0.0 0.0 -1.0
  outer loop
    vertex 110.68232897072255 469.9662775218137 14.000000000000014
    vertex 110.50312736704052 478.71593142737044 14.000000000000014
    vertex 111.48948699343813 479.129207906762 14.000000000000014
  endloop
endfacet
facet normal 0.0 0.0 -1.0
  outer loop
    vertex 110.68232897072255 469.9662775218137 14.000000000000014
    vertex 111.48948699343813 479.129207906762 14.000000000000014
    vertex 111.13635263235807 469.55338818878585 14.000000000000014
  endloop
endfacet
facet normal 0.0 0.0 -1.0
  outer loop
    vertex 111.13635263235807 469.55338818878585 14.000000000000014
    vertex 111.48948699343813 479.129207906762 14.000000000000014
    vertex 111.13635263235807 466.99318418878534 14.000000000000014
  endloop
endfacet
facet normal 0.0 0.0 -1.0
  outer loop
    vertex 111.13635263235807 466.99318418878534 14.000000000000014
    vertex 140.72329123701948 475.88758502842876 14.000000000000014
    vertex 111.09234726103149 462.5914511583157 14.000000000000014
  endloop
endfacet
facet normal 0.0 0.0 -1.0
  outer loop
    vertex 140.72329123701948 475.88758502842876 14.000000000000014
    vertex 111.13635263235807 466.99318418878534 14.000000000000014
    vertex 136.15762222612443 475.88758502842876 14.000000000000014
  endloop
endfacet
facet normal 0.0 0.0 -1.0
  outer loop
    vertex 136.15762222612443 475.88758502842876 14.000000000000014
    vertex 111.13635263235807 466.99318418878534 14.000000000000014
    vertex 111.48948699343813 479.129207906762 14.000000000000014
  endloop
endfacet
facet normal 0.0 0.0 -1.0
  outer loop
    vertex 136.15762222612443 475.88758502842876 14.000000000000014
    vertex 111.48948699343813 479.129207906762 14.000000000000014
    vertex 112.53956877017599 479.33176906585436 14.000000000000014
  endloop
endfacet
facet normal 0.0 0.0 -1.0
  outer loop
    vertex 136.15762222612443 475.88758502842876 14.000000000000014
    vertex 112.53956877017599 479.33176906585436 14.000000000000014
    vertex 134.00115100405316 479.33176906585436 14.000000000000014
  endloop
endfacet
facet normal 0.0 0.0 -1.0
  outer loop
    vertex 136.15762222612443 475.88758502842876 14.000000000000014
    vertex 134.00115100405316 479.33176906585436 14.000000000000014
    vertex 134.23298131755396 478.9615038580563 14.000000000000014
  endloop
endfacet
facet normal 0.0 0.0 -1.0
  outer loop
    vertex 136.15762222612443 475.88758502842876 14.000000000000014
    vertex 134.23298131755396 478.9615038580563 14.000000000000014
    vertex 134.76047686985189 478.119020201218 14.000000000000014
  endloop
endfacet
facet normal 0.0 0.0 -1.0
  outer loop
    vertex 136.15762222612443 475.88758502842876 14.000000000000014
    vertex 134.76047686985189 478.119020201218 14.000000000000014
    vertex 135.33546102222778 477.20069065472796 14.000000000000014
  endloop
endfacet
facet normal 0.0 0.0 -1.0
  outer loop
    vertex 140.72329123701948 475.88758502842876 14.000000000000014
    vertex 136.15762222612443 475.88758502842876 14.000000000000014
    vertex 138.580646828702 478.16611089308975 14.000000000000014
  endloop
endfacet
facet normal 0.0 0.0 1.0
  outer loop
    vertex 107.86970786738442 473.2960349625035 28.0
    vertex 107.9545019719275 475.42186645752264 28.0
    vertex 107.80212255932734 474.3633376314514 28.0
  endloop
endfacet
facet normal 0.0 0.0 1.0
  outer loop
    vertex 107.9545019719275 475.42186645752264 28.0
    vertex 107.86970786738442 473.2960349625035 28.0
    vertex 108.154394142749 472.2651826522157 28.0
  endloop
endfacet
facet normal 0.0 0.0 1.0
  outer loop
    vertex 107.9545019719275 475.42186645752264 28.0
    vertex 108.154394142749 472.2651826522157 28.0
    vertex 108.32038942006007 476.4267690081742 28.0
  endloop
endfacet
facet normal 0.0 0.0 1.0
  outer loop
    vertex 108.32038942006007 476.4267690081742 28.0
    vertex 108.154394142749 472.2651826522157 28.0
    vertex 108.94949753634889 471.54211524932236 28.0
  endloop
endfacet
facet normal 0.0 0.0 1.0
  outer loop
    vertex 108.32038942006007 476.4267690081742 28.0
    vertex 108.94949753634889 471.54211524932236 28.0
    vertex 108.8842813655326 477.3354651261587 28.0
  endloop
endfacet
facet normal 0.0 0.0 1.0
  outer loop
    vertex 108.8842813655326 477.3354651261587 28.0
    vertex 108.94949753634889 471.54211524932236 28.0
    vertex 109.62228433957266 478.10945115401387 28.0
  endloop
endfacet
facet normal 0.0 0.0 1.0
  outer loop
    vertex 109.62228433957266 478.10945115401387 28.0
    vertex 108.94949753634889 471.54211524932236 28.0
    vertex 109.81524435036151 470.7548046864306 28.0
  endloop
endfacet
facet normal 0.0 0.0 1.0
  outer loop
    vertex 109.62228433957266 478.10945115401387 28.0
    vertex 109.81524435036151 470.7548046864306 28.0
    vertex 110.50312736704052 478.71593142737044 28.0
  endloop
endfacet
facet normal 0.0 0.0 1.0
  outer loop
    vertex 110.50312736704052 478.71593142737044 28.0
    vertex 109.81524435036151 470.7548046864306 28.0
    vertex 110.68232897072255 469.9662775218137 28.0
  endloop
endfacet
facet normal 0.0 0.0 1.0
  outer loop
    vertex 110.50312736704052 478.71593142737044 28.0
    vertex 110.68232897072255 469.9662775218137 28.0
    vertex 111.48948699343813 479.129207906762 28.0
  endloop
endfacet
facet normal 0.0 0.0 1.0
  outer loop
    vertex 111.48948699343813 479.129207906762 28.0
    vertex 110.68232897072255 469.9662775218137 28.0
    vertex 111.13635263235807 469.55338818878585 28.0
  endloop
endfacet
facet normal 0.0 0.0 1.0
  outer loop
    vertex 111.48948699343813 479.129207906762 28.0
    vertex 111.13635263235807 469.55338818878585 28.0
    vertex 126.6072907874285 469.55338818878585 28.0
  endloop
endfacet
facet normal 0.0 0.0 1.0
  outer loop
    vertex 111.48948699343813 479.129207906762 28.0
    vertex 126.6072907874285 469.55338818878585 28.0
    vertex 112.53956877017599 479.33176906585436 28.0
  endloop
endfacet
facet normal 0.0 0.0 1.0
  outer loop
    vertex 112.53956877017599 479.33176906585436 28.0
    vertex 126.6072907874285 469.55338818878585 28.0
    vertex 134.00115100405316 479.33176906585436 28.0
  endloop
endfacet
facet normal 0.0 0.0 1.0
  outer loop
    vertex 134.00115100405316 479.33176906585436 28.0
    vertex 126.6072907874285 469.55338818878585 28.0
    vertex 136.15762222612443 475.88758502842876 28.0
  endloop
endfacet
facet normal 0.0 0.0 1.0
  outer loop
    vertex 136.15762222612443 475.88758502842876 28.0
    vertex 126.6072907874285 469.55338818878585 28.0
    vertex 140.72329123701948 475.88758502842876 28.0
  endloop
endfacet
facet normal 0.0 0.0 1.0
  outer loop
    vertex 134.00115100405316 479.33176906585436 28.0
    vertex 136.15762222612443 475.88758502842876 28.0
    vertex 134.23298131755396 478.9615038580563 28.0
  endloop
endfacet
facet normal 0.0 0.0 1.0
  outer loop
    vertex 134.23298131755396 478.9615038580563 28.0
    vertex 136.15762222612443 475.88758502842876 28.0
    vertex 134.76047686985189 478.119020201218 28.0
  endloop
endfacet
facet normal 0.0 0.0 1.0
  outer loop
    vertex 134.76047686985189 478.119020201218 28.0
    vertex 136.15762222612443 475.88758502842876 28.0
    vertex 135.33546102222778 477.20069065472796 28.0
  endloop
endfacet
facet normal 0.0 0.0 1.0
  outer loop
    vertex 136.15762222612443 475.88758502842876 28.0
    vertex 140.72329123701948 475.88758502842876 28.0
    vertex 138.580646828702 478.16611089308975 28.0
  endloop
endfacet
facet normal -0.9980010786461196 -0.06319689091388886 0.0
  outer loop
    vertex 107.80212255932734 474.3633376314514 28.0
    vertex 107.86970786738442 473.2960349625035 14.000000000000014
    vertex 107.86970786738442 473.2960349625035 28.0
  endloop
endfacet
facet normal -0.9980010786461196 -0.06319689091388886 0.0
  outer loop
    vertex 107.86970786738442 473.2960349625035 14.000000000000014
    vertex 107.80212255932734 474.3633376314514 28.0
    vertex 107.80212255932734 474.3633376314514 14.000000000000014
  endloop
endfacet
facet normal -0.9897969347707494 0.1424851849085686 0.0
  outer loop
    vertex 107.9545019719275 475.42186645752264 28.0
    vertex 107.80212255932734 474.3633376314514 14.000000000000014
    vertex 107.80212255932734 474.3633376314514 28.0
  endloop
endfacet
facet normal -0.9897969347707494 0.1424851849085686 0.0
  outer loop
    vertex 107.80212255932734 474.3633376314514 14.000000000000014
    vertex 107.9545019719275 475.42186645752264 28.0
    vertex 107.9545019719275 475.42186645752264 14.000000000000014
  endloop
endfacet
facet normal 0.8475715290799712 0.5306811689640398 0.0
  outer loop
    vertex 134.23298131755396 478.9615038580563 14.000000000000014
    vertex 134.76047686985189 478.119020201218 28.0
    vertex 134.76047686985189 478.119020201218 14.000000000000014
  endloop
endfacet
facet normal 0.8475715290799712 0.5306811689640398 0.0
  outer loop
    vertex 134.76047686985189 478.119020201218 28.0
    vertex 134.23298131755396 478.9615038580563 14.000000000000014
    vertex 134.23298131755396 478.9615038580563 28.0
  endloop
endfacet
facet normal 0.0 1.0 0.0
  outer loop
    vertex 112.53956877017599 479.33176906585436 28.0
    vertex 134.00115100405316 479.33176906585436 14.000000000000014
    vertex 112.53956877017599 479.33176906585436 14.000000000000014
  endloop
endfacet
facet normal 0.0 1.0 0.0
  outer loop
    vertex 134.00115100405316 479.33176906585436 14.000000000000014
    vertex 112.53956877017599 479.33176906585436 28.0
    vertex 134.00115100405316 479.33176906585436 28.0
  endloop
endfacet
facet normal 0.0 0.0 1.0
  outer loop
    vertex 122.44856715999939 467.68726653826064 25.0
    vertex 111.13635263235807 466.99318418878534 25.0
    vertex 111.09234726103149 462.5914511583157 25.0
  endloop
endfacet
facet normal -0.5671005841143931 0.8236485461027138 0.0
  outer loop
    vertex 109.62228433957266 478.10945115401387 28.0
    vertex 110.50312736704052 478.71593142737044 14.000000000000014
    vertex 109.62228433957266 478.10945115401387 14.000000000000014
  endloop
endfacet
facet normal -0.5671005841143931 0.8236485461027138 0.0
  outer loop
    vertex 110.50312736704052 478.71593142737044 14.000000000000014
    vertex 109.62228433957266 478.10945115401387 28.0
    vertex 110.50312736704052 478.71593142737044 28.0
  endloop
endfacet
facet normal 0.8475715290802446 0.5306811689636031 0.0
  outer loop
    vertex 135.33546102222778 477.20069065472796 14.000000000000014
    vertex 136.15762222612443 475.88758502842876 28.0
    vertex 136.15762222612443 475.88758502842876 14.000000000000014
  endloop
endfacet
facet normal 0.8475715290802446 0.5306811689636031 0.0
  outer loop
    vertex 136.15762222612443 475.88758502842876 28.0
    vertex 135.33546102222778 477.20069065472796 14.000000000000014
    vertex 135.33546102222778 477.20069065472796 28.0
  endloop
endfacet
facet normal -0.6727981776089828 -0.7398260688878378 0.0
  outer loop
    vertex 111.13635263235807 469.55338818878585 25.0
    vertex 110.68232897072255 469.9662775218137 14.000000000000014
    vertex 111.13635263235807 469.55338818878585 14.000000000000014
  endloop
endfacet
facet normal -0.6727981776089828 -0.7398260688878378 0.0
  outer loop
    vertex 110.68232897072255 469.9662775218137 14.000000000000014
    vertex 111.13635263235807 469.55338818878585 25.0
    vertex 110.68232897072255 469.9662775218137 28.0
  endloop
endfacet
facet normal -0.6727981776089828 -0.7398260688878378 0.0
  outer loop
    vertex 110.68232897072255 469.9662775218137 28.0
    vertex 111.13635263235807 469.55338818878585 25.0
    vertex 111.13635263235807 469.55338818878585 28.0
  endloop
endfacet
facet normal 0.7284952089306489 0.6850508963318639 0.0
  outer loop
    vertex 138.580646828702 478.16611089308975 14.000000000000014
    vertex 140.72329123701948 475.88758502842876 28.0
    vertex 140.72329123701948 475.88758502842876 14.000000000000014
  endloop
endfacet
facet normal 0.7284952089306489 0.6850508963318639 0.0
  outer loop
    vertex 140.72329123701948 475.88758502842876 28.0
    vertex 138.580646828702 478.16611089308975 14.000000000000014
    vertex 138.580646828702 478.16611089308975 28.0
  endloop
endfacet
facet normal -0.6727981776077837 -0.7398260688889282 0.0
  outer loop
    vertex 110.68232897072255 469.9662775218137 28.0
    vertex 109.81524435036151 470.7548046864306 14.000000000000014
    vertex 110.68232897072255 469.9662775218137 14.000000000000014
  endloop
endfacet
facet normal -0.6727981776077837 -0.7398260688889282 0.0
  outer loop
    vertex 109.81524435036151 470.7548046864306 14.000000000000014
    vertex 110.68232897072255 469.9662775218137 28.0
    vertex 109.81524435036151 470.7548046864306 28.0
  endloop
endfacet
facet normal -0.6727981776087407 -0.739826068888058 0.0
  outer loop
    vertex 109.81524435036151 470.7548046864306 28.0
    vertex 108.94949753634889 471.54211524932236 14.000000000000014
    vertex 109.81524435036151 470.7548046864306 14.000000000000014
  endloop
endfacet
facet normal -0.6727981776087407 -0.739826068888058 0.0
  outer loop
    vertex 108.94949753634889 471.54211524932236 14.000000000000014
    vertex 109.81524435036151 470.7548046864306 28.0
    vertex 108.94949753634889 471.54211524932236 28.0
  endloop
endfacet
facet normal 0.8475715290797635 0.5306811689643713 0.0
  outer loop
    vertex 134.76047686985189 478.119020201218 14.000000000000014
    vertex 135.33546102222778 477.20069065472796 28.0
    vertex 135.33546102222778 477.20069065472796 14.000000000000014
  endloop
endfacet
facet normal 0.8475715290797635 0.5306811689643713 0.0
  outer loop
    vertex 135.33546102222778 477.20069065472796 28.0
    vertex 134.76047686985189 478.119020201218 14.000000000000014
    vertex 134.76047686985189 478.119020201218 28.0
  endloop
endfacet
facet normal -0.38644180719510446 0.9223137913160477 0.0
  outer loop
    vertex 110.50312736704052 478.71593142737044 28.0
    vertex 111.48948699343813 479.129207906762 14.000000000000014
    vertex 110.50312736704052 478.71593142737044 14.000000000000014
  endloop
endfacet
facet normal -0.38644180719510446 0.9223137913160477 0.0
  outer loop
    vertex 111.48948699343813 479.129207906762 14.000000000000014
    vertex 110.50312736704052 478.71593142737044 28.0
    vertex 111.48948699343813 479.129207906762 28.0
  endloop
endfacet
facet normal -1.0 0.0 0.0
  outer loop
    vertex 111.13635263235807 469.55338818878585 25.0
    vertex 111.13635263235807 466.99318418878534 14.000000000000014
    vertex 111.13635263235807 466.99318418878534 25.0
  endloop
endfacet
facet normal -1.0 0.0 0.0
  outer loop
    vertex 111.13635263235807 466.99318418878534 14.000000000000014
    vertex 111.13635263235807 469.55338818878585 25.0
    vertex 111.13635263235807 469.55338818878585 14.000000000000014
  endloop
endfacet
facet normal -0.9999500309107184 0.009996783565394083 0.0
  outer loop
    vertex 111.13635263235807 466.99318418878534 25.0
    vertex 111.09234726103149 462.5914511583157 14.000000000000014
    vertex 111.09234726103149 462.5914511583157 25.0
  endloop
endfacet
facet normal -0.9999500309107184 0.009996783565394083 0.0
  outer loop
    vertex 111.09234726103149 462.5914511583157 14.000000000000014
    vertex 111.13635263235807 466.99318418878534 25.0
    vertex 111.13635263235807 466.99318418878534 14.000000000000014
  endloop
endfacet
facet normal -0.8496930929666627 0.5272775813219698 0.0
  outer loop
    vertex 108.8842813655326 477.3354651261587 28.0
    vertex 108.32038942006007 476.4267690081742 14.000000000000014
    vertex 108.32038942006007 476.4267690081742 28.0
  endloop
endfacet
facet normal -0.8496930929666627 0.5272775813219698 0.0
  outer loop
    vertex 108.32038942006007 476.4267690081742 14.000000000000014
    vertex 108.8842813655326 477.3354651261587 28.0
    vertex 108.8842813655326 477.3354651261587 14.000000000000014
  endloop
endfacet
facet normal -0.9639174973740413 -0.2662011612599859 0.0
  outer loop
    vertex 107.86970786738442 473.2960349625035 28.0
    vertex 108.154394142749 472.2651826522157 14.000000000000014
    vertex 108.154394142749 472.2651826522157 28.0
  endloop
endfacet
facet normal -0.9639174973740413 -0.2662011612599859 0.0
  outer loop
    vertex 108.154394142749 472.2651826522157 14.000000000000014
    vertex 107.86970786738442 473.2960349625035 28.0
    vertex 107.86970786738442 473.2960349625035 14.000000000000014
  endloop
endfacet
facet normal -0.7237299344696917 0.6900833152254124 0.0
  outer loop
    vertex 109.62228433957266 478.10945115401387 28.0
    vertex 108.8842813655326 477.3354651261587 14.000000000000014
    vertex 108.8842813655326 477.3354651261587 28.0
  endloop
endfacet
facet normal -0.7237299344696917 0.6900833152254124 0.0
  outer loop
    vertex 108.8842813655326 477.3354651261587 14.000000000000014
    vertex 109.62228433957266 478.10945115401387 28.0
    vertex 109.62228433957266 478.10945115401387 14.000000000000014
  endloop
endfacet
facet normal -0.9396526952132177 0.34212981802020115 0.0
  outer loop
    vertex 108.32038942006007 476.4267690081742 28.0
    vertex 107.9545019719275 475.42186645752264 14.000000000000014
    vertex 107.9545019719275 475.42186645752264 28.0
  endloop
endfacet
facet normal -0.9396526952132177 0.34212981802020115 0.0
  outer loop
    vertex 107.9545019719275 475.42186645752264 14.000000000000014
    vertex 108.32038942006007 476.4267690081742 28.0
    vertex 108.32038942006007 476.4267690081742 14.000000000000014
  endloop
endfacet
facet normal -0.18940855405631507 0.9818983652345572 0.0
  outer loop
    vertex 111.48948699343813 479.129207906762 28.0
    vertex 112.53956877017599 479.33176906585436 14.000000000000014
    vertex 111.48948699343813 479.129207906762 14.000000000000014
  endloop
endfacet
facet normal -0.18940855405631507 0.9818983652345572 0.0
  outer loop
    vertex 112.53956877017599 479.33176906585436 14.000000000000014
    vertex 111.48948699343813 479.129207906762 28.0
    vertex 112.53956877017599 479.33176906585436 28.0
  endloop
endfacet
endsolid v10
