solid v10
facet normal 0.5986322176676808 0.801024012105926 0.0
  outer loop
    vertex 201.3728956389651 425.23316897184355 13.000000000000021
    vertex 202.46651750078104 424.41586852824315 -0.9999999999999558
    vertex 201.3728956389651 425.23316897184355 -0.9999999999999558
  endloop
endfacet
facet normal 0.5986322176676808 0.801024012105926 0.0
  outer loop
    vertex 202.46651750078104 424.41586852824315 -0.9999999999999558
    vertex 201.3728956389651 425.23316897184355 13.000000000000021
    vertex 202.46651750078104 424.41586852824315 13.000000000000021
  endloop
endfacet
facet normal -0.46574026344453795 0.8849214694008799 0.0
  outer loop
    vertex 173.10813048063255 420.9912489512712 13.000000000000021
    vertex 175.70169195016868 422.35625821350453 -1.0000000000000009
    vertex 173.10813048063255 420.9912489512712 -1.0000000000000009
  endloop
endfacet
facet normal -0.46574026344453795 0.8849214694008799 0.0
  outer loop
    vertex 175.70169195016868 422.35625821350453 -1.0000000000000009
    vertex 173.10813048063255 420.9912489512712 13.000000000000021
    vertex 175.70169195016868 422.35625821350453 13.000000000000021
  endloop
endfacet
facet normal -0.4657402634445205 0.8849214694008892 0.0
  outer loop
    vertex 168.28679046747365 418.4537444997129 13.000000000000021
    vertex 173.10813048063255 420.9912489512712 -1.0000000000000009
    vertex 168.28679046747365 418.4537444997129 -1.0000000000000009
  endloop
endfacet
facet normal -0.4657402634445205 0.8849214694008892 0.0
  outer loop
    vertex 173.10813048063255 420.9912489512712 -1.0000000000000009
    vertex 168.28679046747365 418.4537444997129 13.000000000000021
    vertex 173.10813048063255 420.9912489512712 13.000000000000021
  endloop
endfacet
facet normal 0.9684432941572312 -0.24923399848714595 0.0
  outer loop
    vertex 203.0069187913245 421.3979656018728 -0.9999999999999558
    vertex 202.7368205418133 420.3484505273225 13.000000000000021
    vertex 202.7368205418133 420.3484505273225 -0.9999999999999558
  endloop
endfacet
facet normal 0.9684432941572312 -0.24923399848714595 0.0
  outer loop
    vertex 202.7368205418133 420.3484505273225 13.000000000000021
    vertex 203.0069187913245 421.3979656018728 -0.9999999999999558
    vertex 203.0069187913245 421.3979656018728 13.000000000000021
  endloop
endfacet
facet normal 0.5916229387764715 0.8062147966351718 0.0
  outer loop
    vertex 199.82824462373807 426.3666770354854 13.000000000000021
    vertex 200.48857945961285 425.88210488696217 -0.9999999999999558
    vertex 199.82824462373807 426.3666770354854 -0.9999999999999558
  endloop
endfacet
facet normal 0.5916229387764715 0.8062147966351718 0.0
  outer loop
    vertex 200.48857945961285 425.88210488696217 -0.9999999999999558
    vertex 199.82824462373807 426.3666770354854 13.000000000000021
    vertex 200.48857945961285 425.88210488696217 13.000000000000021
  endloop
endfacet
facet normal -0.8849505413566977 -0.4656850216106245 8.86265812113621e-19
  outer loop
    vertex 168.28679046747365 418.4537444997129 13.000000000000021
    vertex 169.1607142416444 416.79300970866876 -0.999999999999953
    vertex 169.1607142416444 416.79300970866876 13.000000000000021
  endloop
endfacet
facet normal -0.8849505413566977 -0.4656850216106245 8.86265812113621e-19
  outer loop
    vertex 169.1607142416444 416.79300970866876 -0.999999999999953
    vertex 168.28679046747365 418.4537444997129 13.000000000000021
    vertex 168.28679046747365 418.4537444997129 -1.0000000000000009
  endloop
endfacet
facet normal -0.8731031001235753 -0.4875356156780779 0.0
  outer loop
    vertex 175.37043012248702 416.73595348179884 13.000000000000021
    vertex 175.86439582200308 415.8513350667886 -0.9999999999999558
    vertex 175.86439582200308 415.8513350667886 13.000000000000021
  endloop
endfacet
facet normal -0.8731031001235753 -0.4875356156780779 0.0
  outer loop
    vertex 175.86439582200308 415.8513350667886 -0.9999999999999558
    vertex 175.37043012248702 416.73595348179884 13.000000000000021
    vertex 175.37043012248702 416.73595348179884 -0.9999999999999558
  endloop
endfacet
facet normal 1.0 0.0 0.0
  outer loop
    vertex 199.82824462373807 435.0542290354852 -0.9999999999999558
    vertex 199.82824462373807 429.07279303548455 13.000000000000021
    vertex 199.82824462373807 429.07279303548455 -0.9999999999999558
  endloop
endfacet
facet normal 1.0 0.0 0.0
  outer loop
    vertex 199.82824462373807 429.07279303548455 13.000000000000021
    vertex 199.82824462373807 435.0542290354852 -0.9999999999999558
    vertex 199.82824462373807 435.0542290354852 13.000000000000021
  endloop
endfacet
facet normal -0.8731031001234808 -0.4875356156782466 0.0
  outer loop
    vertex 174.85182589843313 417.6646957955858 13.000000000000021
    vertex 175.37043012248702 416.73595348179884 -0.9999999999999558
    vertex 175.37043012248702 416.73595348179884 13.000000000000021
  endloop
endfacet
facet normal -0.8731031001234808 -0.4875356156782466 0.0
  outer loop
    vertex 175.37043012248702 416.73595348179884 -0.9999999999999558
    vertex 174.85182589843313 417.6646957955858 13.000000000000021
    vertex 174.85182589843313 417.6646957955858 -0.9999999999999558
  endloop
endfacet
facet normal 0.9953259115531323 -0.09657292473010366 0.0
  outer loop
    vertex 203.11157617385706 422.4766137318856 -0.9999999999999558
    vertex 203.0069187913245 421.3979656018728 13.000000000000021
    vertex 203.0069187913245 421.3979656018728 -0.9999999999999558
  endloop
endfacet
facet normal 0.9953259115531323 -0.09657292473010366 0.0
  outer loop
    vertex 203.0069187913245 421.3979656018728 13.000000000000021
    vertex 203.11157617385706 422.4766137318856 -0.9999999999999558
    vertex 203.11157617385706 422.4766137318856 13.000000000000021
  endloop
endfacet
facet normal 0.5167747777630844 -0.8561213868768348 0.0
  outer loop
    vertex 200.18753490922154 416.9230860317562 13.000000000000021
    vertex 199.25974460224825 416.3630502272006 -0.9999999999999558
    vertex 200.18753490922154 416.9230860317562 -0.9999999999999558
  endloop
endfacet
facet normal 0.5167747777630844 -0.8561213868768348 0.0
  outer loop
    vertex 199.25974460224825 416.3630502272006 -0.9999999999999558
    vertex 200.18753490922154 416.9230860317562 13.000000000000021
    vertex 199.25974460224825 416.3630502272006 13.000000000000021
  endloop
endfacet
facet normal 0.23065260038199828 -0.9730361647631718 0.0
  outer loop
    vertex 198.25655082408434 415.9531268202679 13.000000000000021
    vertex 197.20205839364058 415.70316548278345 -0.9999999999999558
    vertex 198.25655082408434 415.9531268202679 -0.9999999999999558
  endloop
endfacet
facet normal 0.23065260038199828 -0.9730361647631718 0.0
  outer loop
    vertex 197.20205839364058 415.70316548278345 -0.9999999999999558
    vertex 198.25655082408434 415.9531268202679 13.000000000000021
    vertex 197.20205839364058 415.70316548278345 13.000000000000021
  endloop
endfacet
facet normal 0.9982927597546135 0.058408610850778676 0.0
  outer loop
    vertex 203.04827797359968 423.5584770753553 -0.9999999999999558
    vertex 203.11157617385706 422.4766137318856 13.000000000000021
    vertex 203.11157617385706 422.4766137318856 -0.9999999999999558
  endloop
endfacet
facet normal 0.9982927597546135 0.058408610850778676 0.0
  outer loop
    vertex 203.11157617385706 422.4766137318856 13.000000000000021
    vertex 203.04827797359968 423.5584770753553 -0.9999999999999558
    vertex 203.04827797359968 423.5584770753553 13.000000000000021
  endloop
endfacet
facet normal -0.8731031001237324 -0.48753561567779646 0.0
  outer loop
    vertex 173.93552857192893 419.3056467552274 13.000000000000021
    vertex 174.85182589843313 417.6646957955858 -0.9999999999999558
    vertex 174.85182589843313 417.6646957955858 13.000000000000021
  endloop
endfacet
facet normal -0.8731031001237324 -0.48753561567779646 0.0
  outer loop
    vertex 174.85182589843313 417.6646957955858 -0.9999999999999558
    vertex 173.93552857192893 419.3056467552274 13.000000000000021
    vertex 173.93552857192893 419.3056467552274 -0.9999999999999558
  endloop
endfacet
facet normal -0.8731031001252737 -0.48753561567503617 0.0
  outer loop
    vertex 175.86439582200308 415.8513350667886 13.000000000000021
    vertex 175.99403413710442 415.6191723054008 -0.9999999999999558
    vertex 175.99403413710442 415.6191723054008 13.000000000000021
  endloop
endfacet
facet normal -0.8731031001252737 -0.48753561567503617 0.0
  outer loop
    vertex 175.99403413710442 415.6191723054008 -0.9999999999999558
    vertex 175.86439582200308 415.8513350667886 13.000000000000021
    vertex 175.86439582200308 415.8513350667886 -0.9999999999999558
  endloop
endfacet
facet normal 0.8460736316922006 -0.533066046334946 0.0
  outer loop
    vertex 202.30777136728028 419.3532863388938 -0.9999999999999558
    vertex 201.73008049499543 418.4363849198858 13.000000000000021
    vertex 201.73008049499543 418.4363849198858 -0.9999999999999558
  endloop
endfacet
facet normal 0.8460736316922006 -0.533066046334946 0.0
  outer loop
    vertex 201.73008049499543 418.4363849198858 13.000000000000021
    vertex 202.30777136728028 419.3532863388938 -0.9999999999999558
    vertex 202.30777136728028 419.3532863388938 13.000000000000021
  endloop
endfacet
facet normal -0.46574026344453534 0.8849214694008813 6.8570452161779034e-18
  outer loop
    vertex 175.70169195016868 422.35625821350453 13.000000000000021
    vertex 199.82824462373807 435.0542290354852 -0.9999999999999558
    vertex 175.70169195016868 422.35625821350453 -1.0000000000000009
  endloop
endfacet
facet normal -0.46574026344453534 0.8849214694008813 6.8570452161779034e-18
  outer loop
    vertex 199.82824462373807 435.0542290354852 -0.9999999999999558
    vertex 175.70169195016868 422.35625821350453 13.000000000000021
    vertex 199.82824462373807 435.0542290354852 13.000000000000021
  endloop
endfacet
facet normal 0.9772725510997444 0.2119866997408033 0.0
  outer loop
    vertex 202.93341154914066 424.08801880511487 -0.9999999999999558
    vertex 203.04827797359968 423.5584770753553 13.000000000000021
    vertex 203.04827797359968 423.5584770753553 -0.9999999999999558
  endloop
endfacet
facet normal 0.9772725510997444 0.2119866997408033 0.0
  outer loop
    vertex 203.04827797359968 423.5584770753553 13.000000000000021
    vertex 202.93341154914066 424.08801880511487 -0.9999999999999558
    vertex 202.93341154914066 424.08801880511487 13.000000000000021
  endloop
endfacet
facet normal 0.5916229387769446 0.8062147966348246 0.0
  outer loop
    vertex 200.48857945961285 425.88210488696217 13.000000000000021
    vertex 201.3728956389651 425.23316897184355 -0.9999999999999558
    vertex 200.48857945961285 425.88210488696217 -0.9999999999999558
  endloop
endfacet
facet normal 0.5916229387769446 0.8062147966348246 0.0
  outer loop
    vertex 201.3728956389651 425.23316897184355 -0.9999999999999558
    vertex 200.48857945961285 425.88210488696217 13.000000000000021
    vertex 201.3728956389651 425.23316897184355 13.000000000000021
  endloop
endfacet
facet normal 0.6428743538636237 -0.7659716477418916 0.0
  outer loop
    vertex 201.0176287266227 417.61977764962637 13.000000000000021
    vertex 200.18753490922154 416.9230860317562 -0.9999999999999558
    vertex 201.0176287266227 417.61977764962637 -0.9999999999999558
  endloop
endfacet
facet normal 0.6428743538636237 -0.7659716477418916 0.0
  outer loop
    vertex 200.18753490922154 416.9230860317562 -0.9999999999999558
    vertex 201.0176287266227 417.61977764962637 13.000000000000021
    vertex 200.18753490922154 416.9230860317562 13.000000000000021
  endloop
endfacet
facet normal 0.46568502161057 -0.8849505413567264 4.2935131206261884e-19
  outer loop
    vertex 173.93552857192893 419.3056467552274 13.000000000000021
    vertex 169.1607142416444 416.79300970866876 -0.999999999999953
    vertex 173.93552857192893 419.3056467552274 -0.9999999999999558
  endloop
endfacet
facet normal 0.46568502161057 -0.8849505413567264 4.2935131206261884e-19
  outer loop
    vertex 169.1607142416444 416.79300970866876 -0.999999999999953
    vertex 173.93552857192893 419.3056467552274 13.000000000000021
    vertex 169.1607142416444 416.79300970866876 13.000000000000021
  endloop
endfacet
facet normal 0.3782580967042925 -0.9257001740723861 0.0
  outer loop
    vertex 199.25974460224825 416.3630502272006 13.000000000000021
    vertex 198.25655082408434 415.9531268202679 -0.9999999999999558
    vertex 199.25974460224825 416.3630502272006 -0.9999999999999558
  endloop
endfacet
facet normal 0.3782580967042925 -0.9257001740723861 0.0
  outer loop
    vertex 198.25655082408434 415.9531268202679 -0.9999999999999558
    vertex 199.25974460224825 416.3630502272006 13.000000000000021
    vertex 198.25655082408434 415.9531268202679 13.000000000000021
  endloop
endfacet
facet normal 0.0 -1.0 0.0
  outer loop
    vertex 196.12160473787822 415.6191723054008 13.000000000000021
    vertex 175.99403413710442 415.6191723054008 -0.9999999999999558
    vertex 196.12160473787822 415.6191723054008 -0.9999999999999558
  endloop
endfacet
facet normal 0.0 -1.0 0.0
  outer loop
    vertex 175.99403413710442 415.6191723054008 -0.9999999999999558
    vertex 196.12160473787822 415.6191723054008 13.000000000000021
    vertex 175.99403413710442 415.6191723054008 13.000000000000021
  endloop
endfacet
facet normal 0.5746662266766162 0.8183878835352221 0.0
  outer loop
    vertex 202.46651750078104 424.41586852824315 13.000000000000021
    vertex 202.93341154914066 424.08801880511487 -0.9999999999999558
    vertex 202.46651750078104 424.41586852824315 -0.9999999999999558
  endloop
endfacet
facet normal 0.5746662266766162 0.8183878835352221 0.0
  outer loop
    vertex 202.93341154914066 424.08801880511487 -0.9999999999999558
    vertex 202.46651750078104 424.41586852824315 13.000000000000021
    vertex 202.93341154914066 424.08801880511487 13.000000000000021
  endloop
endfacet
facet normal 0.0 0.0 1.0
  outer loop
    vertex 200.18753490922154 416.9230860317562 13.000000000000021
    vertex 199.82824462373807 426.3666770354854 13.000000000000021
    vertex 199.25974460224825 416.3630502272006 13.000000000000021
  endloop
endfacet
facet normal 0.0 0.0 1.0
  outer loop
    vertex 199.82824462373807 426.3666770354854 13.000000000000021
    vertex 200.18753490922154 416.9230860317562 13.000000000000021
    vertex 200.48857945961285 425.88210488696217 13.000000000000021
  endloop
endfacet
facet normal 0.0 0.0 1.0
  outer loop
    vertex 200.48857945961285 425.88210488696217 13.000000000000021
    vertex 200.18753490922154 416.9230860317562 13.000000000000021
    vertex 201.0176287266227 417.61977764962637 13.000000000000021
  endloop
endfacet
facet normal 0.0 0.0 1.0
  outer loop
    vertex 200.48857945961285 425.88210488696217 13.000000000000021
    vertex 201.0176287266227 417.61977764962637 13.000000000000021
    vertex 201.3728956389651 425.23316897184355 13.000000000000021
  endloop
endfacet
facet normal 0.0 0.0 1.0
  outer loop
    vertex 201.3728956389651 425.23316897184355 13.000000000000021
    vertex 201.0176287266227 417.61977764962637 13.000000000000021
    vertex 201.73008049499543 418.4363849198858 13.000000000000021
  endloop
endfacet
facet normal 0.0 0.0 1.0
  outer loop
    vertex 201.3728956389651 425.23316897184355 13.000000000000021
    vertex 201.73008049499543 418.4363849198858 13.000000000000021
    vertex 202.46651750078104 424.41586852824315 13.000000000000021
  endloop
endfacet
facet normal 0.0 0.0 1.0
  outer loop
    vertex 202.46651750078104 424.41586852824315 13.000000000000021
    vertex 201.73008049499543 418.4363849198858 13.000000000000021
    vertex 202.30777136728028 419.3532863388938 13.000000000000021
  endloop
endfacet
facet normal 0.0 0.0 1.0
  outer loop
    vertex 202.46651750078104 424.41586852824315 13.000000000000021
    vertex 202.30777136728028 419.3532863388938 13.000000000000021
    vertex 202.63073363375872 420.1023857449537 13.000000000000021
  endloop
endfacet
facet normal 0.0 0.0 1.0
  outer loop
    vertex 202.46651750078104 424.41586852824315 13.000000000000021
    vertex 202.63073363375872 420.1023857449537 13.000000000000021
    vertex 202.93341154914066 424.08801880511487 13.000000000000021
  endloop
endfacet
facet normal 0.0 0.0 1.0
  outer loop
    vertex 202.93341154914066 424.08801880511487 13.000000000000021
    vertex 202.63073363375872 420.1023857449537 13.000000000000021
    vertex 202.7368205418133 420.3484505273225 13.000000000000021
  endloop
endfacet
facet normal 0.0 0.0 1.0
  outer loop
    vertex 202.93341154914066 424.08801880511487 13.000000000000021
    vertex 202.7368205418133 420.3484505273225 13.000000000000021
    vertex 203.0069187913245 421.3979656018728 13.000000000000021
  endloop
endfacet
facet normal 0.0 0.0 1.0
  outer loop
    vertex 202.93341154914066 424.08801880511487 13.000000000000021
    vertex 203.0069187913245 421.3979656018728 13.000000000000021
    vertex 203.04827797359968 423.5584770753553 13.000000000000021
  endloop
endfacet
facet normal 0.0 0.0 1.0
  outer loop
    vertex 203.04827797359968 423.5584770753553 13.000000000000021
    vertex 203.0069187913245 421.3979656018728 13.000000000000021
    vertex 203.11157617385706 422.4766137318856 13.000000000000021
  endloop
endfacet
facet normal 0.0 0.0 1.0
  outer loop
    vertex 169.1607142416444 416.79300970866876 13.000000000000021
    vertex 173.10813048063255 420.9912489512712 13.000000000000021
    vertex 168.28679046747365 418.4537444997129 13.000000000000021
  endloop
endfacet
facet normal 0.0 0.0 1.0
  outer loop
    vertex 173.10813048063255 420.9912489512712 13.000000000000021
    vertex 169.1607142416444 416.79300970866876 13.000000000000021
    vertex 173.93552857192893 419.3056467552274 13.000000000000021
  endloop
endfacet
facet normal 0.0 0.0 1.0
  outer loop
    vertex 173.10813048063255 420.9912489512712 13.000000000000021
    vertex 173.93552857192893 419.3056467552274 13.000000000000021
    vertex 175.70169195016868 422.35625821350453 13.000000000000021
  endloop
endfacet
facet normal 0.0 0.0 1.0
  outer loop
    vertex 175.70169195016868 422.35625821350453 13.000000000000021
    vertex 173.93552857192893 419.3056467552274 13.000000000000021
    vertex 174.85182589843313 417.6646957955858 13.000000000000021
  endloop
endfacet
facet normal 0.0 0.0 1.0
  outer loop
    vertex 175.70169195016868 422.35625821350453 13.000000000000021
    vertex 174.85182589843313 417.6646957955858 13.000000000000021
    vertex 175.37043012248702 416.73595348179884 13.000000000000021
  endloop
endfacet
facet normal 0.0 0.0 1.0
  outer loop
    vertex 175.70169195016868 422.35625821350453 13.000000000000021
    vertex 175.37043012248702 416.73595348179884 13.000000000000021
    vertex 175.86439582200308 415.8513350667886 13.000000000000021
  endloop
endfacet
facet normal 0.0 0.0 1.0
  outer loop
    vertex 175.70169195016868 422.35625821350453 13.000000000000021
    vertex 175.86439582200308 415.8513350667886 13.000000000000021
    vertex 199.82824462373807 435.0542290354852 13.000000000000021
  endloop
endfacet
facet normal 0.0 0.0 1.0
  outer loop
    vertex 199.82824462373807 435.0542290354852 13.000000000000021
    vertex 175.86439582200308 415.8513350667886 13.000000000000021
    vertex 175.99403413710442 415.6191723054008 13.000000000000021
  endloop
endfacet
facet normal 0.0 0.0 1.0
  outer loop
    vertex 199.82824462373807 435.0542290354852 13.000000000000021
    vertex 175.99403413710442 415.6191723054008 13.000000000000021
    vertex 196.12160473787822 415.6191723054008 13.000000000000021
  endloop
endfacet
facet normal 0.0 0.0 1.0
  outer loop
    vertex 199.82824462373807 435.0542290354852 13.000000000000021
    vertex 196.12160473787822 415.6191723054008 13.000000000000021
    vertex 197.20205839364058 415.70316548278345 13.000000000000021
  endloop
endfacet
facet normal 0.0 0.0 1.0
  outer loop
    vertex 199.82824462373807 435.0542290354852 13.000000000000021
    vertex 197.20205839364058 415.70316548278345 13.000000000000021
    vertex 198.25655082408434 415.9531268202679 13.000000000000021
  endloop
endfacet
facet normal 0.0 0.0 1.0
  outer loop
    vertex 199.82824462373807 435.0542290354852 13.000000000000021
    vertex 198.25655082408434 415.9531268202679 13.000000000000021
    vertex 199.25974460224825 416.3630502272006 13.000000000000021
  endloop
endfacet
facet normal 0.0 0.0 1.0
  outer loop
    vertex 199.82824462373807 435.0542290354852 13.000000000000021
    vertex 199.25974460224825 416.3630502272006 13.000000000000021
    vertex 199.82824462373807 426.3666770354854 13.000000000000021
  endloop
endfacet
facet normal 0.0 0.0 1.0
  outer loop
    vertex 199.82824462373807 435.0542290354852 13.000000000000021
    vertex 199.82824462373807 426.3666770354854 13.000000000000021
    vertex 199.82824462373807 429.07279303548455 13.000000000000021
  endloop
endfacet
facet normal 0.7535268944864313 -0.6574170816807506 0.0
  outer loop
    vertex 201.73008049499543 418.4363849198858 -0.9999999999999558
    vertex 201.0176287266227 417.61977764962637 13.000000000000021
    vertex 201.0176287266227 417.61977764962637 -0.9999999999999558
  endloop
endfacet
facet normal 0.7535268944864313 -0.6574170816807506 0.0
  outer loop
    vertex 201.0176287266227 417.61977764962637 13.000000000000021
    vertex 201.73008049499543 418.4363849198858 -0.9999999999999558
    vertex 201.73008049499543 418.4363849198858 13.000000000000021
  endloop
endfacet
facet normal 7.63860035567591e-16 -5.789483760859031e-16 -1.0
  outer loop
    vertex 173.10813048063255 420.9912489512712 -1.0000000000000009
    vertex 169.1607142416444 416.79300970866876 -0.999999999999953
    vertex 168.28679046747365 418.4537444997129 -1.0000000000000009
  endloop
endfacet
facet normal 7.63860035567591e-16 -5.789483760859031e-16 -1.0
  outer loop
    vertex 169.1607142416444 416.79300970866876 -0.999999999999953
    vertex 173.10813048063255 420.9912489512712 -1.0000000000000009
    vertex 173.93552857192893 419.3056467552274 -0.9999999999999558
  endloop
endfacet
facet normal 7.63860035567591e-16 -5.789483760859031e-16 -1.0
  outer loop
    vertex 173.93552857192893 419.3056467552274 -0.9999999999999558
    vertex 173.10813048063255 420.9912489512712 -1.0000000000000009
    vertex 175.70169195016868 422.35625821350453 -1.0000000000000009
  endloop
endfacet
facet normal 7.63860035567591e-16 -5.789483760859031e-16 -1.0
  outer loop
    vertex 173.93552857192893 419.3056467552274 -0.9999999999999558
    vertex 175.70169195016868 422.35625821350453 -1.0000000000000009
    vertex 174.85182589843313 417.6646957955858 -0.9999999999999558
  endloop
endfacet
facet normal 7.63860035567591e-16 -5.789483760859031e-16 -1.0
  outer loop
    vertex 174.85182589843313 417.6646957955858 -0.9999999999999558
    vertex 175.70169195016868 422.35625821350453 -1.0000000000000009
    vertex 175.37043012248702 416.73595348179884 -0.9999999999999558
  endloop
endfacet
facet normal 7.63860035567591e-16 -5.789483760859031e-16 -1.0
  outer loop
    vertex 175.37043012248702 416.73595348179884 -0.9999999999999558
    vertex 175.70169195016868 422.35625821350453 -1.0000000000000009
    vertex 175.86439582200308 415.8513350667886 -0.9999999999999558
  endloop
endfacet
facet normal 7.63860035567591e-16 -5.789483760859031e-16 -1.0
  outer loop
    vertex 175.86439582200308 415.8513350667886 -0.9999999999999558
    vertex 175.70169195016868 422.35625821350453 -1.0000000000000009
    vertex 199.82824462373807 435.0542290354852 -0.9999999999999558
  endloop
endfacet
facet normal 7.63860035567591e-16 -5.789483760859031e-16 -1.0
  outer loop
    vertex 175.86439582200308 415.8513350667886 -0.9999999999999558
    vertex 199.82824462373807 435.0542290354852 -0.9999999999999558
    vertex 175.99403413710442 415.6191723054008 -0.9999999999999558
  endloop
endfacet
facet normal 7.63860035567591e-16 -5.789483760859031e-16 -1.0
  outer loop
    vertex 175.99403413710442 415.6191723054008 -0.9999999999999558
    vertex 199.82824462373807 435.0542290354852 -0.9999999999999558
    vertex 196.12160473787822 415.6191723054008 -0.9999999999999558
  endloop
endfacet
facet normal 7.63860035567591e-16 -5.789483760859031e-16 -1.0
  outer loop
    vertex 196.12160473787822 415.6191723054008 -0.9999999999999558
    vertex 199.82824462373807 435.0542290354852 -0.9999999999999558
    vertex 197.20205839364058 415.70316548278345 -0.9999999999999558
  endloop
endfacet
facet normal 7.63860035567591e-16 -5.789483760859031e-16 -1.0
  outer loop
    vertex 197.20205839364058 415.70316548278345 -0.9999999999999558
    vertex 199.82824462373807 435.0542290354852 -0.9999999999999558
    vertex 198.25655082408434 415.9531268202679 -0.9999999999999558
  endloop
endfacet
facet normal 7.63860035567591e-16 -5.789483760859031e-16 -1.0
  outer loop
    vertex 198.25655082408434 415.9531268202679 -0.9999999999999558
    vertex 199.82824462373807 435.0542290354852 -0.9999999999999558
    vertex 199.25974460224825 416.3630502272006 -0.9999999999999558
  endloop
endfacet
facet normal 7.63860035567591e-16 -5.789483760859031e-16 -1.0
  outer loop
    vertex 199.25974460224825 416.3630502272006 -0.9999999999999558
    vertex 199.82824462373807 435.0542290354852 -0.9999999999999558
    vertex 199.82824462373807 426.3666770354854 -0.9999999999999558
  endloop
endfacet
facet normal 7.63860035567591e-16 -5.789483760859031e-16 -1.0
  outer loop
    vertex 199.25974460224825 416.3630502272006 -0.9999999999999558
    vertex 199.82824462373807 426.3666770354854 -0.9999999999999558
    vertex 200.18753490922154 416.9230860317562 -0.9999999999999558
  endloop
endfacet
facet normal 7.63860035567591e-16 -5.789483760859031e-16 -1.0
  outer loop
    vertex 199.82824462373807 426.3666770354854 -0.9999999999999558
    vertex 199.82824462373807 435.0542290354852 -0.9999999999999558
    vertex 199.82824462373807 429.07279303548455 -0.9999999999999558
  endloop
endfacet
facet normal 7.63860035567591e-16 -5.789483760859031e-16 -1.0
  outer loop
    vertex 200.18753490922154 416.9230860317562 -0.9999999999999558
    vertex 199.82824462373807 426.3666770354854 -0.9999999999999558
    vertex 200.48857945961285 425.88210488696217 -0.9999999999999558
  endloop
endfacet
facet normal 7.63860035567591e-16 -5.789483760859031e-16 -1.0
  outer loop
    vertex 200.18753490922154 416.9230860317562 -0.9999999999999558
    vertex 200.48857945961285 425.88210488696217 -0.9999999999999558
    vertex 201.0176287266227 417.61977764962637 -0.9999999999999558
  endloop
endfacet
facet normal 7.63860035567591e-16 -5.789483760859031e-16 -1.0
  outer loop
    vertex 201.0176287266227 417.61977764962637 -0.9999999999999558
    vertex 200.48857945961285 425.88210488696217 -0.9999999999999558
    vertex 201.3728956389651 425.23316897184355 -0.9999999999999558
  endloop
endfacet
facet normal 7.63860035567591e-16 -5.789483760859031e-16 -1.0
  outer loop
    vertex 201.0176287266227 417.61977764962637 -0.9999999999999558
    vertex 201.3728956389651 425.23316897184355 -0.9999999999999558
    vertex 201.73008049499543 418.4363849198858 -0.9999999999999558
  endloop
endfacet
facet normal 7.63860035567591e-16 -5.789483760859031e-16 -1.0
  outer loop
    vertex 201.73008049499543 418.4363849198858 -0.9999999999999558
    vertex 201.3728956389651 425.23316897184355 -0.9999999999999558
    vertex 202.46651750078104 424.41586852824315 -0.9999999999999558
  endloop
endfacet
facet normal 7.63860035567591e-16 -5.789483760859031e-16 -1.0
  outer loop
    vertex 201.73008049499543 418.4363849198858 -0.9999999999999558
    vertex 202.46651750078104 424.41586852824315 -0.9999999999999558
    vertex 202.30777136728028 419.3532863388938 -0.9999999999999558
  endloop
endfacet
facet normal 7.63860035567591e-16 -5.789483760859031e-16 -1.0
  outer loop
    vertex 202.30777136728028 419.3532863388938 -0.9999999999999558
    vertex 202.46651750078104 424.41586852824315 -0.9999999999999558
    vertex 202.63073363375872 420.1023857449537 -0.9999999999999558
  endloop
endfacet
facet normal 7.63860035567591e-16 -5.789483760859031e-16 -1.0
  outer loop
    vertex 202.63073363375872 420.1023857449537 -0.9999999999999558
    vertex 202.46651750078104 424.41586852824315 -0.9999999999999558
    vertex 202.93341154914066 424.08801880511487 -0.9999999999999558
  endloop
endfacet
facet normal 7.63860035567591e-16 -5.789483760859031e-16 -1.0
  outer loop
    vertex 202.63073363375872 420.1023857449537 -0.9999999999999558
    vertex 202.93341154914066 424.08801880511487 -0.9999999999999558
    vertex 202.7368205418133 420.3484505273225 -0.9999999999999558
  endloop
endfacet
facet normal 7.63860035567591e-16 -5.789483760859031e-16 -1.0
  outer loop
    vertex 202.7368205418133 420.3484505273225 -0.9999999999999558
    vertex 202.93341154914066 424.08801880511487 -0.9999999999999558
    vertex 203.0069187913245 421.3979656018728 -0.9999999999999558
  endloop
endfacet
facet normal 7.63860035567591e-16 -5.789483760859031e-16 -1.0
  outer loop
    vertex 203.0069187913245 421.3979656018728 -0.9999999999999558
    vertex 202.93341154914066 424.08801880511487 -0.9999999999999558
    vertex 203.04827797359968 423.5584770753553 -0.9999999999999558
  endloop
endfacet
facet normal 7.63860035567591e-16 -5.789483760859031e-16 -1.0
  outer loop
    vertex 203.0069187913245 421.3979656018728 -0.9999999999999558
    vertex 203.04827797359968 423.5584770753553 -0.9999999999999558
    vertex 203.11157617385706 422.4766137318856 -0.9999999999999558
  endloop
endfacet
facet normal 0.9182908452092337 -0.3959064581500425 0.0
  outer loop
    vertex 202.7368205418133 420.3484505273225 -0.9999999999999558
    vertex 202.63073363375872 420.1023857449537 13.000000000000021
    vertex 202.63073363375872 420.1023857449537 -0.9999999999999558
  endloop
endfacet
facet normal 0.9182908452092337 -0.3959064581500425 0.0
  outer loop
    vertex 202.63073363375872 420.1023857449537 13.000000000000021
    vertex 202.7368205418133 420.3484505273225 -0.9999999999999558
    vertex 202.7368205418133 420.3484505273225 13.000000000000021
  endloop
endfacet
facet normal 0.0775049652583692 -0.9969919660460155 0.0
  outer loop
    vertex 197.20205839364058 415.70316548278345 13.000000000000021
    vertex 196.12160473787822 415.6191723054008 -0.9999999999999558
    vertex 197.20205839364058 415.70316548278345 -0.9999999999999558
  endloop
endfacet
facet normal 0.0775049652583692 -0.9969919660460155 0.0
  outer loop
    vertex 196.12160473787822 415.6191723054008 -0.9999999999999558
    vertex 197.20205839364058 415.70316548278345 13.000000000000021
    vertex 196.12160473787822 415.6191723054008 13.000000000000021
  endloop
endfacet
facet normal 1.0 0.0 0.0
  outer loop
    vertex 199.82824462373807 429.07279303548455 -0.9999999999999558
    vertex 199.82824462373807 426.3666770354854 13.000000000000021
    vertex 199.82824462373807 426.3666770354854 -0.9999999999999558
  endloop
endfacet
facet normal 1.0 0.0 0.0
  outer loop
    vertex 199.82824462373807 426.3666770354854 13.000000000000021
    vertex 199.82824462373807 429.07279303548455 -0.9999999999999558
    vertex 199.82824462373807 429.07279303548455 13.000000000000021
  endloop
endfacet
facet normal 0.9182908452093815 -0.3959064581496994 0.0
  outer loop
    vertex 202.63073363375872 420.1023857449537 -0.9999999999999558
    vertex 202.30777136728028 419.3532863388938 13.000000000000021
    vertex 202.30777136728028 419.3532863388938 -0.9999999999999558
  endloop
endfacet
facet normal 0.9182908452093815 -0.3959064581496994 0.0
  outer loop
    vertex 202.30777136728028 419.3532863388938 13.000000000000021
    vertex 202.63073363375872 420.1023857449537 -0.9999999999999558
    vertex 202.63073363375872 420.1023857449537 13.000000000000021
  endloop
endfacet
endsolid v10
