solid v10
facet normal 0.5167747777630844 0.8561213868768348 0.0
  outer loop
    vertex 200.0686092178287 488.68229091770246 11.000000000000025
    vertex 200.996399524802 488.1222551131468 -2.999999999999955
    vertex 200.0686092178287 488.68229091770246 -2.999999999999955
  endloop
endfacet
facet normal 0.5167747777630844 0.8561213868768348 0.0
  outer loop
    vertex 200.996399524802 488.1222551131468 -2.999999999999955
    vertex 200.0686092178287 488.68229091770246 11.000000000000025
    vertex 200.996399524802 488.1222551131468 11.000000000000025
  endloop
endfacet
facet normal 0.0 1.0 0.0
  outer loop
    vertex 176.80289875268488 489.42616883950217 11.000000000000025
    vertex 196.9304693534587 489.42616883950217 -2.999999999999955
    vertex 176.80289875268488 489.42616883950217 -2.999999999999955
  endloop
endfacet
facet normal 0.0 1.0 0.0
  outer loop
    vertex 196.9304693534587 489.42616883950217 -2.999999999999955
    vertex 176.80289875268488 489.42616883950217 11.000000000000025
    vertex 196.9304693534587 489.42616883950217 11.000000000000025
  endloop
endfacet
facet normal 1.0 0.0 0.0
  outer loop
    vertex 200.63710923931856 478.67866410941764 -2.999999999999955
    vertex 200.63710923931856 475.9725481094185 11.000000000000025
    vertex 200.63710923931856 475.9725481094185 -2.999999999999955
  endloop
endfacet
facet normal 1.0 0.0 0.0
  outer loop
    vertex 200.63710923931856 475.9725481094185 11.000000000000025
    vertex 200.63710923931856 478.67866410941764 -2.999999999999955
    vertex 200.63710923931856 478.67866410941764 11.000000000000025
  endloop
endfacet
facet normal 0.9684432941572312 0.24923399848714595 0.0
  outer loop
    vertex 203.54568515739376 484.69689061758055 -2.999999999999955
    vertex 203.81578340690496 483.64737554303025 11.000000000000025
    vertex 203.81578340690496 483.64737554303025 -2.999999999999955
  endloop
endfacet
facet normal 0.9684432941572312 0.24923399848714595 0.0
  outer loop
    vertex 203.81578340690496 483.64737554303025 11.000000000000025
    vertex 203.54568515739376 484.69689061758055 -2.999999999999955
    vertex 203.54568515739376 484.69689061758055 11.000000000000025
  endloop
endfacet
facet normal 0.5916229387764715 -0.8062147966351718 0.0
  outer loop
    vertex 201.2974440751933 479.16323625794087 11.000000000000025
    vertex 200.63710923931856 478.67866410941764 -2.999999999999955
    vertex 201.2974440751933 479.16323625794087 -2.999999999999955
  endloop
endfacet
facet normal 0.5916229387764715 -0.8062147966351718 0.0
  outer loop
    vertex 200.63710923931856 478.67866410941764 -2.999999999999955
    vertex 201.2974440751933 479.16323625794087 11.000000000000025
    vertex 200.63710923931856 478.67866410941764 11.000000000000025
  endloop
endfacet
facet normal 0.0775049652583692 0.9969919660460155 0.0
  outer loop
    vertex 196.9304693534587 489.42616883950217 11.000000000000025
    vertex 198.01092300922105 489.3421756621196 -2.999999999999955
    vertex 196.9304693534587 489.42616883950217 -2.999999999999955
  endloop
endfacet
facet normal 0.0775049652583692 0.9969919660460155 0.0
  outer loop
    vertex 198.01092300922105 489.3421756621196 -2.999999999999955
    vertex 196.9304693534587 489.42616883950217 11.000000000000025
    vertex 198.01092300922105 489.3421756621196 11.000000000000025
  endloop
endfacet
facet normal -0.8731031001252737 0.48753561567503617 0.0
  outer loop
    vertex 176.80289875268488 489.42616883950217 11.000000000000025
    vertex 176.67326043758354 489.1940060781144 -2.999999999999955
    vertex 176.67326043758354 489.1940060781144 11.000000000000025
  endloop
endfacet
facet normal -0.8731031001252737 0.48753561567503617 0.0
  outer loop
    vertex 176.67326043758354 489.1940060781144 -2.999999999999955
    vertex 176.80289875268488 489.42616883950217 11.000000000000025
    vertex 176.80289875268488 489.42616883950217 -2.999999999999955
  endloop
endfacet
facet normal 0.9982927597546135 -0.058408610850778676 0.0
  outer loop
    vertex 203.92044078943752 482.5687274130174 -2.999999999999955
    vertex 203.85714258918014 481.4868640695477 11.000000000000025
    vertex 203.85714258918014 481.4868640695477 -2.999999999999955
  endloop
endfacet
facet normal 0.9982927597546135 -0.058408610850778676 0.0
  outer loop
    vertex 203.85714258918014 481.4868640695477 11.000000000000025
    vertex 203.92044078943752 482.5687274130174 -2.999999999999955
    vertex 203.92044078943752 482.5687274130174 11.000000000000025
  endloop
endfacet
facet normal -0.8731031001234808 0.4875356156782466 0.0
  outer loop
    vertex 176.17929473806748 488.3093876631042 11.000000000000025
    vertex 175.6606905140136 487.3806453493172 -2.999999999999955
    vertex 175.6606905140136 487.3806453493172 11.000000000000025
  endloop
endfacet
facet normal -0.8731031001234808 0.4875356156782466 0.0
  outer loop
    vertex 175.6606905140136 487.3806453493172 -2.999999999999955
    vertex 176.17929473806748 488.3093876631042 11.000000000000025
    vertex 176.17929473806748 488.3093876631042 -2.999999999999955
  endloop
endfacet
facet normal 0.46568502161057 0.8849505413567264 4.2935131206261884e-19
  outer loop
    vertex 169.9695788572249 488.2523314362343 11.000000000000025
    vertex 174.7443931875094 485.73969438967566 -2.999999999999955
    vertex 169.9695788572249 488.2523314362343 -2.999999999999955
  endloop
endfacet
facet normal 0.46568502161057 0.8849505413567264 4.2935131206261884e-19
  outer loop
    vertex 174.7443931875094 485.73969438967566 -2.999999999999955
    vertex 169.9695788572249 488.2523314362343 11.000000000000025
    vertex 174.7443931875094 485.73969438967566 11.000000000000025
  endloop
endfacet
facet normal 0.23065260038199828 0.9730361647631718 0.0
  outer loop
    vertex 198.01092300922105 489.3421756621196 11.000000000000025
    vertex 199.0654154396648 489.09221432463505 -2.999999999999955
    vertex 198.01092300922105 489.3421756621196 -2.999999999999955
  endloop
endfacet
facet normal 0.23065260038199828 0.9730361647631718 0.0
  outer loop
    vertex 199.0654154396648 489.09221432463505 -2.999999999999955
    vertex 198.01092300922105 489.3421756621196 11.000000000000025
    vertex 199.0654154396648 489.09221432463505 11.000000000000025
  endloop
endfacet
facet normal -0.8731031001237324 0.48753561567779646 0.0
  outer loop
    vertex 175.6606905140136 487.3806453493172 11.000000000000025
    vertex 174.7443931875094 485.73969438967566 -2.999999999999955
    vertex 174.7443931875094 485.73969438967566 11.000000000000025
  endloop
endfacet
facet normal -0.8731031001237324 0.48753561567779646 0.0
  outer loop
    vertex 174.7443931875094 485.73969438967566 -2.999999999999955
    vertex 175.6606905140136 487.3806453493172 11.000000000000025
    vertex 175.6606905140136 487.3806453493172 -2.999999999999955
  endloop
endfacet
facet normal 0.5916229387769446 -0.8062147966348246 0.0
  outer loop
    vertex 202.1817602545456 479.8121721730595 11.000000000000025
    vertex 201.2974440751933 479.16323625794087 -2.999999999999955
    vertex 202.1817602545456 479.8121721730595 -2.999999999999955
  endloop
endfacet
facet normal 0.5916229387769446 -0.8062147966348246 0.0
  outer loop
    vertex 201.2974440751933 479.16323625794087 -2.999999999999955
    vertex 202.1817602545456 479.8121721730595 11.000000000000025
    vertex 201.2974440751933 479.16323625794087 11.000000000000025
  endloop
endfacet
facet normal -0.8731031001235753 0.4875356156780779 0.0
  outer loop
    vertex 176.67326043758354 489.1940060781144 11.000000000000025
    vertex 176.17929473806748 488.3093876631042 -2.999999999999955
    vertex 176.17929473806748 488.3093876631042 11.000000000000025
  endloop
endfacet
facet normal -0.8731031001235753 0.4875356156780779 0.0
  outer loop
    vertex 176.17929473806748 488.3093876631042 -2.999999999999955
    vertex 176.67326043758354 489.1940060781144 11.000000000000025
    vertex 176.67326043758354 489.1940060781144 -2.999999999999955
  endloop
endfacet
facet normal 0.8460736316922006 0.533066046334946 0.0
  outer loop
    vertex 202.5389451105759 486.6089562250172 -2.999999999999955
    vertex 203.11663598286074 485.6920548060092 11.000000000000025
    vertex 203.11663598286074 485.6920548060092 -2.999999999999955
  endloop
endfacet
facet normal 0.8460736316922006 0.533066046334946 0.0
  outer loop
    vertex 203.11663598286074 485.6920548060092 11.000000000000025
    vertex 202.5389451105759 486.6089562250172 -2.999999999999955
    vertex 202.5389451105759 486.6089562250172 11.000000000000025
  endloop
endfacet
facet normal -0.46574026344453534 -0.8849214694008813 6.8570452161779034e-18
  outer loop
    vertex 200.63710923931856 469.99111210941777 -2.999999999999955
    vertex 176.51055656574914 482.6890829313985 11.000000000000025
    vertex 176.51055656574914 482.6890829313985 -3.0
  endloop
endfacet
facet normal -0.46574026344453534 -0.8849214694008813 6.8570452161779034e-18
  outer loop
    vertex 176.51055656574914 482.6890829313985 11.000000000000025
    vertex 200.63710923931856 469.99111210941777 -2.999999999999955
    vertex 200.63710923931856 469.99111210941777 11.000000000000025
  endloop
endfacet
facet normal 0.5986322176676808 -0.801024012105926 0.0
  outer loop
    vertex 203.27538211636153 480.6294726166598 11.000000000000025
    vertex 202.1817602545456 479.8121721730595 -2.999999999999955
    vertex 203.27538211636153 480.6294726166598 -2.999999999999955
  endloop
endfacet
facet normal 0.5986322176676808 -0.801024012105926 0.0
  outer loop
    vertex 202.1817602545456 479.8121721730595 -2.999999999999955
    vertex 203.27538211636153 480.6294726166598 11.000000000000025
    vertex 202.1817602545456 479.8121721730595 11.000000000000025
  endloop
endfacet
facet normal -0.46574026344453795 -0.8849214694008799 0.0
  outer loop
    vertex 176.51055656574914 482.6890829313985 11.000000000000025
    vertex 173.91699509621301 484.05409219363185 -3.0
    vertex 176.51055656574914 482.6890829313985 -3.0
  endloop
endfacet
facet normal -0.46574026344453795 -0.8849214694008799 0.0
  outer loop
    vertex 173.91699509621301 484.05409219363185 -3.0
    vertex 176.51055656574914 482.6890829313985 11.000000000000025
    vertex 173.91699509621301 484.05409219363185 11.000000000000025
  endloop
endfacet
facet normal 0.6428743538636237 0.7659716477418916 0.0
  outer loop
    vertex 200.996399524802 488.1222551131468 11.000000000000025
    vertex 201.82649334220318 487.42556349527666 -2.999999999999955
    vertex 200.996399524802 488.1222551131468 -2.999999999999955
  endloop
endfacet
facet normal 0.6428743538636237 0.7659716477418916 0.0
  outer loop
    vertex 201.82649334220318 487.42556349527666 -2.999999999999955
    vertex 200.996399524802 488.1222551131468 11.000000000000025
    vertex 201.82649334220318 487.42556349527666 11.000000000000025
  endloop
endfacet
facet normal 0.7535268944864313 0.6574170816807506 0.0
  outer loop
    vertex 201.82649334220318 487.42556349527666 -2.999999999999955
    vertex 202.5389451105759 486.6089562250172 11.000000000000025
    vertex 202.5389451105759 486.6089562250172 -2.999999999999955
  endloop
endfacet
facet normal 0.7535268944864313 0.6574170816807506 0.0
  outer loop
    vertex 202.5389451105759 486.6089562250172 11.000000000000025
    vertex 201.82649334220318 487.42556349527666 -2.999999999999955
    vertex 201.82649334220318 487.42556349527666 11.000000000000025
  endloop
endfacet
facet normal 0.9953259115531323 0.09657292473010366 0.0
  outer loop
    vertex 203.81578340690496 483.64737554303025 -2.999999999999955
    vertex 203.92044078943752 482.5687274130174 11.000000000000025
    vertex 203.92044078943752 482.5687274130174 -2.999999999999955
  endloop
endfacet
facet normal 0.9953259115531323 0.09657292473010366 0.0
  outer loop
    vertex 203.92044078943752 482.5687274130174 11.000000000000025
    vertex 203.81578340690496 483.64737554303025 -2.999999999999955
    vertex 203.81578340690496 483.64737554303025 11.000000000000025
  endloop
endfacet
facet normal 1.0 0.0 0.0
  outer loop
    vertex 200.63710923931856 475.9725481094185 -2.999999999999955
    vertex 200.63710923931856 469.99111210941777 11.000000000000025
    vertex 200.63710923931856 469.99111210941777 -2.999999999999955
  endloop
endfacet
facet normal 1.0 0.0 0.0
  outer loop
    vertex 200.63710923931856 469.99111210941777 11.000000000000025
    vertex 200.63710923931856 475.9725481094185 -2.999999999999955
    vertex 200.63710923931856 475.9725481094185 11.000000000000025
  endloop
endfacet
facet normal 0.3782580967042925 0.9257001740723861 0.0
  outer loop
    vertex 199.0654154396648 489.09221432463505 11.000000000000025
    vertex 200.0686092178287 488.68229091770246 -2.999999999999955
    vertex 199.0654154396648 489.09221432463505 -2.999999999999955
  endloop
endfacet
facet normal 0.3782580967042925 0.9257001740723861 0.0
  outer loop
    vertex 200.0686092178287 488.68229091770246 -2.999999999999955
    vertex 199.0654154396648 489.09221432463505 11.000000000000025
    vertex 200.0686092178287 488.68229091770246 11.000000000000025
  endloop
endfacet
facet normal -0.4657402634445205 -0.8849214694008892 0.0
  outer loop
    vertex 173.91699509621301 484.05409219363185 11.000000000000025
    vertex 169.0956550830541 486.5915966451901 -3.0
    vertex 173.91699509621301 484.05409219363185 -3.0
  endloop
endfacet
facet normal -0.4657402634445205 -0.8849214694008892 0.0
  outer loop
    vertex 169.0956550830541 486.5915966451901 -3.0
    vertex 173.91699509621301 484.05409219363185 11.000000000000025
    vertex 169.0956550830541 486.5915966451901 11.000000000000025
  endloop
endfacet
facet normal 0.5746662266766162 -0.8183878835352221 0.0
  outer loop
    vertex 203.74227616472112 480.95732233978816 11.000000000000025
    vertex 203.27538211636153 480.6294726166598 -2.999999999999955
    vertex 203.74227616472112 480.95732233978816 -2.999999999999955
  endloop
endfacet
facet normal 0.5746662266766162 -0.8183878835352221 0.0
  outer loop
    vertex 203.27538211636153 480.6294726166598 -2.999999999999955
    vertex 203.74227616472112 480.95732233978816 11.000000000000025
    vertex 203.27538211636153 480.6294726166598 11.000000000000025
  endloop
endfacet
facet normal 7.63860035567591e-16 5.789483760859031e-16 -1.0
  outer loop
    vertex 200.996399524802 488.1222551131468 -2.999999999999955
    vertex 200.63710923931856 478.67866410941764 -2.999999999999955
    vertex 200.0686092178287 488.68229091770246 -2.999999999999955
  endloop
endfacet
facet normal 7.63860035567591e-16 5.789483760859031e-16 -1.0
  outer loop
    vertex 200.63710923931856 478.67866410941764 -2.999999999999955
    vertex 200.996399524802 488.1222551131468 -2.999999999999955
    vertex 201.2974440751933 479.16323625794087 -2.999999999999955
  endloop
endfacet
facet normal 7.63860035567591e-16 5.789483760859031e-16 -1.0
  outer loop
    vertex 201.2974440751933 479.16323625794087 -2.999999999999955
    vertex 200.996399524802 488.1222551131468 -2.999999999999955
    vertex 201.82649334220318 487.42556349527666 -2.999999999999955
  endloop
endfacet
facet normal 7.63860035567591e-16 5.789483760859031e-16 -1.0
  outer loop
    vertex 201.2974440751933 479.16323625794087 -2.999999999999955
    vertex 201.82649334220318 487.42556349527666 -2.999999999999955
    vertex 202.1817602545456 479.8121721730595 -2.999999999999955
  endloop
endfacet
facet normal 7.63860035567591e-16 5.789483760859031e-16 -1.0
  outer loop
    vertex 202.1817602545456 479.8121721730595 -2.999999999999955
    vertex 201.82649334220318 487.42556349527666 -2.999999999999955
    vertex 202.5389451105759 486.6089562250172 -2.999999999999955
  endloop
endfacet
facet normal 7.63860035567591e-16 5.789483760859031e-16 -1.0
  outer loop
    vertex 202.1817602545456 479.8121721730595 -2.999999999999955
    vertex 202.5389451105759 486.6089562250172 -2.999999999999955
    vertex 203.27538211636153 480.6294726166598 -2.999999999999955
  endloop
endfacet
facet normal 7.63860035567591e-16 5.789483760859031e-16 -1.0
  outer loop
    vertex 203.27538211636153 480.6294726166598 -2.999999999999955
    vertex 202.5389451105759 486.6089562250172 -2.999999999999955
    vertex 203.11663598286074 485.6920548060092 -2.999999999999955
  endloop
endfacet
facet normal 7.63860035567591e-16 5.789483760859031e-16 -1.0
  outer loop
    vertex 203.27538211636153 480.6294726166598 -2.999999999999955
    vertex 203.11663598286074 485.6920548060092 -2.999999999999955
    vertex 203.43959824933918 484.9429553999493 -2.999999999999955
  endloop
endfacet
facet normal 7.63860035567591e-16 5.789483760859031e-16 -1.0
  outer loop
    vertex 203.27538211636153 480.6294726166598 -2.999999999999955
    vertex 203.43959824933918 484.9429553999493 -2.999999999999955
    vertex 203.74227616472112 480.95732233978816 -2.999999999999955
  endloop
endfacet
facet normal 7.63860035567591e-16 5.789483760859031e-16 -1.0
  outer loop
    vertex 203.74227616472112 480.95732233978816 -2.999999999999955
    vertex 203.43959824933918 484.9429553999493 -2.999999999999955
    vertex 203.54568515739376 484.69689061758055 -2.999999999999955
  endloop
endfacet
facet normal 7.63860035567591e-16 5.789483760859031e-16 -1.0
  outer loop
    vertex 203.74227616472112 480.95732233978816 -2.999999999999955
    vertex 203.54568515739376 484.69689061758055 -2.999999999999955
    vertex 203.81578340690496 483.64737554303025 -2.999999999999955
  endloop
endfacet
facet normal 7.63860035567591e-16 5.789483760859031e-16 -1.0
  outer loop
    vertex 203.74227616472112 480.95732233978816 -2.999999999999955
    vertex 203.81578340690496 483.64737554303025 -2.999999999999955
    vertex 203.85714258918014 481.4868640695477 -2.999999999999955
  endloop
endfacet
facet normal 7.63860035567591e-16 5.789483760859031e-16 -1.0
  outer loop
    vertex 203.85714258918014 481.4868640695477 -2.999999999999955
    vertex 203.81578340690496 483.64737554303025 -2.999999999999955
    vertex 203.92044078943752 482.5687274130174 -2.999999999999955
  endloop
endfacet
facet normal 7.63860035567591e-16 5.789483760859031e-16 -1.0
  outer loop
    vertex 169.9695788572249 488.2523314362343 -2.999999999999955
    vertex 173.91699509621301 484.05409219363185 -3.0
    vertex 169.0956550830541 486.5915966451901 -3.0
  endloop
endfacet
facet normal 7.63860035567591e-16 5.789483760859031e-16 -1.0
  outer loop
    vertex 173.91699509621301 484.05409219363185 -3.0
    vertex 169.9695788572249 488.2523314362343 -2.999999999999955
    vertex 174.7443931875094 485.73969438967566 -2.999999999999955
  endloop
endfacet
facet normal 7.63860035567591e-16 5.789483760859031e-16 -1.0
  outer loop
    vertex 173.91699509621301 484.05409219363185 -3.0
    vertex 174.7443931875094 485.73969438967566 -2.999999999999955
    vertex 176.51055656574914 482.6890829313985 -3.0
  endloop
endfacet
facet normal 7.63860035567591e-16 5.789483760859031e-16 -1.0
  outer loop
    vertex 176.51055656574914 482.6890829313985 -3.0
    vertex 174.7443931875094 485.73969438967566 -2.999999999999955
    vertex 175.6606905140136 487.3806453493172 -2.999999999999955
  endloop
endfacet
facet normal 7.63860035567591e-16 5.789483760859031e-16 -1.0
  outer loop
    vertex 176.51055656574914 482.6890829313985 -3.0
    vertex 175.6606905140136 487.3806453493172 -2.999999999999955
    vertex 176.17929473806748 488.3093876631042 -2.999999999999955
  endloop
endfacet
facet normal 7.63860035567591e-16 5.789483760859031e-16 -1.0
  outer loop
    vertex 176.51055656574914 482.6890829313985 -3.0
    vertex 176.17929473806748 488.3093876631042 -2.999999999999955
    vertex 176.67326043758354 489.1940060781144 -2.999999999999955
  endloop
endfacet
facet normal 7.63860035567591e-16 5.789483760859031e-16 -1.0
  outer loop
    vertex 176.51055656574914 482.6890829313985 -3.0
    vertex 176.67326043758354 489.1940060781144 -2.999999999999955
    vertex 200.63710923931856 469.99111210941777 -2.999999999999955
  endloop
endfacet
facet normal 7.63860035567591e-16 5.789483760859031e-16 -1.0
  outer loop
    vertex 200.63710923931856 469.99111210941777 -2.999999999999955
    vertex 176.67326043758354 489.1940060781144 -2.999999999999955
    vertex 176.80289875268488 489.42616883950217 -2.999999999999955
  endloop
endfacet
facet normal 7.63860035567591e-16 5.789483760859031e-16 -1.0
  outer loop
    vertex 200.63710923931856 469.99111210941777 -2.999999999999955
    vertex 176.80289875268488 489.42616883950217 -2.999999999999955
    vertex 196.9304693534587 489.42616883950217 -2.999999999999955
  endloop
endfacet
facet normal 7.63860035567591e-16 5.789483760859031e-16 -1.0
  outer loop
    vertex 200.63710923931856 469.99111210941777 -2.999999999999955
    vertex 196.9304693534587 489.42616883950217 -2.999999999999955
    vertex 198.01092300922105 489.3421756621196 -2.999999999999955
  endloop
endfacet
facet normal 7.63860035567591e-16 5.789483760859031e-16 -1.0
  outer loop
    vertex 200.63710923931856 469.99111210941777 -2.999999999999955
    vertex 198.01092300922105 489.3421756621196 -2.999999999999955
    vertex 199.0654154396648 489.09221432463505 -2.999999999999955
  endloop
endfacet
facet normal 7.63860035567591e-16 5.789483760859031e-16 -1.0
  outer loop
    vertex 200.63710923931856 469.99111210941777 -2.999999999999955
    vertex 199.0654154396648 489.09221432463505 -2.999999999999955
    vertex 200.0686092178287 488.68229091770246 -2.999999999999955
  endloop
endfacet
facet normal 7.63860035567591e-16 5.789483760859031e-16 -1.0
  outer loop
    vertex 200.63710923931856 469.99111210941777 -2.999999999999955
    vertex 200.0686092178287 488.68229091770246 -2.999999999999955
    vertex 200.63710923931856 478.67866410941764 -2.999999999999955
  endloop
endfacet
facet normal 7.63860035567591e-16 5.789483760859031e-16 -1.0
  outer loop
    vertex 200.63710923931856 469.99111210941777 -2.999999999999955
    vertex 200.63710923931856 478.67866410941764 -2.999999999999955
    vertex 200.63710923931856 475.9725481094185 -2.999999999999955
  endloop
endfacet
facet normal 0.0 0.0 1.0
  outer loop
    vertex 173.91699509621301 484.05409219363185 11.000000000000025
    vertex 169.9695788572249 488.2523314362343 11.000000000000025
    vertex 169.0956550830541 486.5915966451901 11.000000000000025
  endloop
endfacet
facet normal 0.0 0.0 1.0
  outer loop
    vertex 169.9695788572249 488.2523314362343 11.000000000000025
    vertex 173.91699509621301 484.05409219363185 11.000000000000025
    vertex 174.7443931875094 485.73969438967566 11.000000000000025
  endloop
endfacet
facet normal 0.0 0.0 1.0
  outer loop
    vertex 174.7443931875094 485.73969438967566 11.000000000000025
    vertex 173.91699509621301 484.05409219363185 11.000000000000025
    vertex 176.51055656574914 482.6890829313985 11.000000000000025
  endloop
endfacet
facet normal 0.0 0.0 1.0
  outer loop
    vertex 174.7443931875094 485.73969438967566 11.000000000000025
    vertex 176.51055656574914 482.6890829313985 11.000000000000025
    vertex 175.6606905140136 487.3806453493172 11.000000000000025
  endloop
endfacet
facet normal 0.0 0.0 1.0
  outer loop
    vertex 175.6606905140136 487.3806453493172 11.000000000000025
    vertex 176.51055656574914 482.6890829313985 11.000000000000025
    vertex 176.17929473806748 488.3093876631042 11.000000000000025
  endloop
endfacet
facet normal 0.0 0.0 1.0
  outer loop
    vertex 176.17929473806748 488.3093876631042 11.000000000000025
    vertex 176.51055656574914 482.6890829313985 11.000000000000025
    vertex 176.67326043758354 489.1940060781144 11.000000000000025
  endloop
endfacet
facet normal 0.0 0.0 1.0
  outer loop
    vertex 176.67326043758354 489.1940060781144 11.000000000000025
    vertex 176.51055656574914 482.6890829313985 11.000000000000025
    vertex 200.63710923931856 469.99111210941777 11.000000000000025
  endloop
endfacet
facet normal 0.0 0.0 1.0
  outer loop
    vertex 176.67326043758354 489.1940060781144 11.000000000000025
    vertex 200.63710923931856 469.99111210941777 11.000000000000025
    vertex 176.80289875268488 489.42616883950217 11.000000000000025
  endloop
endfacet
facet normal 0.0 0.0 1.0
  outer loop
    vertex 176.80289875268488 489.42616883950217 11.000000000000025
    vertex 200.63710923931856 469.99111210941777 11.000000000000025
    vertex 196.9304693534587 489.42616883950217 11.000000000000025
  endloop
endfacet
facet normal 0.0 0.0 1.0
  outer loop
    vertex 196.9304693534587 489.42616883950217 11.000000000000025
    vertex 200.63710923931856 469.99111210941777 11.000000000000025
    vertex 198.01092300922105 489.3421756621196 11.000000000000025
  endloop
endfacet
facet normal 0.0 0.0 1.0
  outer loop
    vertex 198.01092300922105 489.3421756621196 11.000000000000025
    vertex 200.63710923931856 469.99111210941777 11.000000000000025
    vertex 199.0654154396648 489.09221432463505 11.000000000000025
  endloop
endfacet
facet normal 0.0 0.0 1.0
  outer loop
    vertex 199.0654154396648 489.09221432463505 11.000000000000025
    vertex 200.63710923931856 469.99111210941777 11.000000000000025
    vertex 200.0686092178287 488.68229091770246 11.000000000000025
  endloop
endfacet
facet normal 0.0 0.0 1.0
  outer loop
    vertex 200.0686092178287 488.68229091770246 11.000000000000025
    vertex 200.63710923931856 469.99111210941777 11.000000000000025
    vertex 200.63710923931856 478.67866410941764 11.000000000000025
  endloop
endfacet
facet normal 0.0 0.0 1.0
  outer loop
    vertex 200.0686092178287 488.68229091770246 11.000000000000025
    vertex 200.63710923931856 478.67866410941764 11.000000000000025
    vertex 200.996399524802 488.1222551131468 11.000000000000025
  endloop
endfacet
facet normal 0.0 0.0 1.0
  outer loop
    vertex 200.63710923931856 478.67866410941764 11.000000000000025
    vertex 200.63710923931856 469.99111210941777 11.000000000000025
    vertex 200.63710923931856 475.9725481094185 11.000000000000025
  endloop
endfacet
facet normal 0.0 0.0 1.0
  outer loop
    vertex 200.996399524802 488.1222551131468 11.000000000000025
    vertex 200.63710923931856 478.67866410941764 11.000000000000025
    vertex 201.2974440751933 479.16323625794087 11.000000000000025
  endloop
endfacet
facet normal 0.0 0.0 1.0
  outer loop
    vertex 200.996399524802 488.1222551131468 11.000000000000025
    vertex 201.2974440751933 479.16323625794087 11.000000000000025
    vertex 201.82649334220318 487.42556349527666 11.000000000000025
  endloop
endfacet
facet normal 0.0 0.0 1.0
  outer loop
    vertex 201.82649334220318 487.42556349527666 11.000000000000025
    vertex 201.2974440751933 479.16323625794087 11.000000000000025
    vertex 202.1817602545456 479.8121721730595 11.000000000000025
  endloop
endfacet
facet normal 0.0 0.0 1.0
  outer loop
    vertex 201.82649334220318 487.42556349527666 11.000000000000025
    vertex 202.1817602545456 479.8121721730595 11.000000000000025
    vertex 202.5389451105759 486.6089562250172 11.000000000000025
  endloop
endfacet
facet normal 0.0 0.0 1.0
  outer loop
    vertex 202.5389451105759 486.6089562250172 11.000000000000025
    vertex 202.1817602545456 479.8121721730595 11.000000000000025
    vertex 203.27538211636153 480.6294726166598 11.000000000000025
  endloop
endfacet
facet normal 0.0 0.0 1.0
  outer loop
    vertex 202.5389451105759 486.6089562250172 11.000000000000025
    vertex 203.27538211636153 480.6294726166598 11.000000000000025
    vertex 203.11663598286074 485.6920548060092 11.000000000000025
  endloop
endfacet
facet normal 0.0 0.0 1.0
  outer loop
    vertex 203.11663598286074 485.6920548060092 11.000000000000025
    vertex 203.27538211636153 480.6294726166598 11.000000000000025
    vertex 203.43959824933918 484.9429553999493 11.000000000000025
  endloop
endfacet
facet normal 0.0 0.0 1.0
  outer loop
    vertex 203.43959824933918 484.9429553999493 11.000000000000025
    vertex 203.27538211636153 480.6294726166598 11.000000000000025
    vertex 203.74227616472112 480.95732233978816 11.000000000000025
  endloop
endfacet
facet normal 0.0 0.0 1.0
  outer loop
    vertex 203.43959824933918 484.9429553999493 11.000000000000025
    vertex 203.74227616472112 480.95732233978816 11.000000000000025
    vertex 203.54568515739376 484.69689061758055 11.000000000000025
  endloop
endfacet
facet normal 0.0 0.0 1.0
  outer loop
    vertex 203.54568515739376 484.69689061758055 11.000000000000025
    vertex 203.74227616472112 480.95732233978816 11.000000000000025
    vertex 203.81578340690496 483.64737554303025 11.000000000000025
  endloop
endfacet
facet normal 0.0 0.0 1.0
  outer loop
    vertex 203.81578340690496 483.64737554303025 11.000000000000025
    vertex 203.74227616472112 480.95732233978816 11.000000000000025
    vertex 203.85714258918014 481.4868640695477 11.000000000000025
  endloop
endfacet
facet normal 0.0 0.0 1.0
  outer loop
    vertex 203.81578340690496 483.64737554303025 11.000000000000025
    vertex 203.85714258918014 481.4868640695477 11.000000000000025
    vertex 203.92044078943752 482.5687274130174 11.000000000000025
  endloop
endfacet
facet normal -0.8849505413566977 0.4656850216106245 8.86265812113621e-19
  outer loop
    vertex 169.9695788572249 488.2523314362343 11.000000000000025
    vertex 169.0956550830541 486.5915966451901 -3.0
    vertex 169.0956550830541 486.5915966451901 11.000000000000025
  endloop
endfacet
facet normal -0.8849505413566977 0.4656850216106245 8.86265812113621e-19
  outer loop
    vertex 169.0956550830541 486.5915966451901 -3.0
    vertex 169.9695788572249 488.2523314362343 11.000000000000025
    vertex 169.9695788572249 488.2523314362343 -2.999999999999955
  endloop
endfacet
facet normal 0.9772725510997444 -0.2119866997408033 0.0
  outer loop
    vertex 203.85714258918014 481.4868640695477 -2.999999999999955
    vertex 203.74227616472112 480.95732233978816 11.000000000000025
    vertex 203.74227616472112 480.95732233978816 -2.999999999999955
  endloop
endfacet
facet normal 0.9772725510997444 -0.2119866997408033 0.0
  outer loop
    vertex 203.74227616472112 480.95732233978816 11.000000000000025
    vertex 203.85714258918014 481.4868640695477 -2.999999999999955
    vertex 203.85714258918014 481.4868640695477 11.000000000000025
  endloop
endfacet
facet normal 0.9182908452093815 0.3959064581496994 0.0
  outer loop
    vertex 203.11663598286074 485.6920548060092 -2.999999999999955
    vertex 203.43959824933918 484.9429553999493 11.000000000000025
    vertex 203.43959824933918 484.9429553999493 -2.999999999999955
  endloop
endfacet
facet normal 0.9182908452093815 0.3959064581496994 0.0
  outer loop
    vertex 203.43959824933918 484.9429553999493 11.000000000000025
    vertex 203.11663598286074 485.6920548060092 -2.999999999999955
    vertex 203.11663598286074 485.6920548060092 11.000000000000025
  endloop
endfacet
facet normal 0.9182908452092337 0.3959064581500425 0.0
  outer loop
    vertex 203.43959824933918 484.9429553999493 -2.999999999999955
    vertex 203.54568515739376 484.69689061758055 11.000000000000025
    vertex 203.54568515739376 484.69689061758055 -2.999999999999955
  endloop
endfacet
facet normal 0.9182908452092337 0.3959064581500425 0.0
  outer loop
    vertex 203.54568515739376 484.69689061758055 11.000000000000025
    vertex 203.43959824933918 484.9429553999493 -2.999999999999955
    vertex 203.43959824933918 484.9429553999493 11.000000000000025
  endloop
endfacet
endsolid v10
